Crimson-Roman.sfdir
StartChar: exclam
Encoding: 1 33 1
Width: 241
Flags: W
HStem: -11 110<77.2305 163.537> 622 20G<109 140.5>
VStem: 65 110<1.23046 87.5371> 75 94<327.09 632.2>
LayerCount: 2
Back
Fore
SplineSet
65 45 m 0xe0
 65 75 91 99 121 99 c 0
 151 99 175 75 175 45 c 0
 175 15 151 -11 121 -11 c 0
 91 -11 65 15 65 45 c 0xe0
125 642 m 0
 156 642 169 610 169 584 c 0
 169 556 155 422 134 172 c 1
 130 164 127 160 118 159 c 1
 113 161 108 164 105 170 c 1
 91 331 75 533 75 584 c 0xd0
 75 612 93 642 125 642 c 0
EndSplineSet
Validated: 1
EndChar
StartChar: quotedbl
Encoding: 2 34 2
Width: 280
Flags: W
HStem: 473 226<74.0952 102.855 194.095 222.855>
VStem: 39 78<523.482 685.326> 159 78<523.482 685.326>
LayerCount: 2
Back
Fore
SplineSet
211 699 m 0
 223 699 229 696 237 686 c 1
 237 657 229 544 223 492 c 1
 220 486 211 477 203 473 c 1
 200 473 196 475 194 479 c 1
 173 551 159 601 159 629 c 0
 159 657 179 699 211 699 c 0
91 699 m 0
 103 699 109 696 117 686 c 1
 117 657 109 544 103 492 c 1
 100 486 91 477 83 473 c 1
 80 473 76 475 74 479 c 1
 53 551 39 601 39 629 c 0
 39 657 59 699 91 699 c 0
EndSplineSet
Validated: 1
EndChar
StartChar: numbersign
Encoding: 3 35 3
Width: 480
UnlinkRmOvrlpSave: 1
Flags: W
HStem: 178 49<53.2784 124 164 285 326 398.364> 369 49<80.6934 154 195 315 356 426.582>
LayerCount: 2
Back
Fore
SplineSet
326 227 m 1
 393 227 l 2
 398 227 400 221 400 213 c 0
 400 200 394 182 386 178 c 1
 318 178 l 1
 302 77 l 2
 301 73 293 64 278 64 c 0
 268 64 267 68 267 68 c 1
 285 178 l 1
 156 178 l 1
 140 77 l 2
 139 73 132 64 117 64 c 0
 107 64 106 68 106 68 c 1
 124 178 l 1
 57 178 l 2
 53 178 51 183 51 190 c 0
 51 203 58 224 67 227 c 1
 131 227 l 1
 154 369 l 1
 85 369 l 2
 81 369 79 374 79 382 c 0
 79 395 85 415 94 418 c 1
 162 418 l 1
 178 518 l 2
 181 527 181 531 200 531 c 0
 209 531 210 530 213 528 c 2
 195 418 l 1
 323 418 l 1
 339 518 l 2
 342 527 342 531 361 531 c 0
 370 531 371 530 374 528 c 2
 356 418 l 1
 420 418 l 2
 425 418 428 412 428 403 c 0
 428 390 422 373 414 369 c 1
 349 369 l 1
 326 227 l 1
292 227 m 1
 315 369 l 1
 187 369 l 1
 164 227 l 1
 292 227 l 1
EndSplineSet
EndChar
StartChar: dollar
Encoding: 4 36 4
Width: 498
Flags: W
HStem: -10 34<220 310.061> 606 33<190.359 278.617>
VStem: 51 36<116.874 172.135> 69 77<435.434 551.168> 285 35<638 680.877> 364 84<85.4024 206.73> 382 32<472.037 522.954>
LayerCount: 2
Back
Fore
SplineSet
292 683 m 1xd8
 300 683 327 683 327 676 c 1
 327 676 320 633 320 633 c 1
 344 628 366 620 402 612 c 1
 414 561 413 502 414 476 c 1
 409 473 403 472 396 472 c 0
 392 472 385 474 382 477 c 1xda
 378 510 352 560 312 587 c 1
 312 587 274 355 274 355 c 1
 276 354 279 352 281 351 c 0
 344 311 448 261 448 166 c 0
 448 60 350 -10 247 -10 c 0
 236 -10 225 -10 214 -9 c 1
 214 -9 207 -52 207 -52 c 1
 198 -52 172 -50 172 -43 c 1
 172 -43 178 -4 178 -4 c 1
 139 2 104 12 74 18 c 1
 62 75 51 154 51 165 c 1
 55 169 69 173 76 173 c 0
 81 173 85 172 87 168 c 1xec
 92 145 111 66 185 36 c 1
 185 36 226 284 226 284 c 1
 154 326 69 377 69 470 c 0
 69 572 161 639 257 639 c 0
 267 639 277 639 285 638 c 1
 285 638 292 683 292 683 c 1xd8
259 265 m 1
 259 265 220 26 220 26 c 1
 229 25 239 24 249 24 c 0
 309 24 364 65 364 140 c 0xcc
 364 210 316 234 259 265 c 1
241 375 m 1
 241 375 279 602 279 602 c 1
 270 604 261 606 251 606 c 0
 167 606 146 546 146 500 c 0xd8
 146 439 191 406 241 375 c 1
EndSplineSet
Validated: 1
EndChar
StartChar: percent
Encoding: 5 37 5
Width: 667
Flags: W
HStem: -7 25<451.434 521.549> 289 24<438.266 507.513> 325 25<163.003 231.1> 621 24<149.377 218.599>
VStem: 40 64<408.045 571.079> 271 66<399.6 570.458> 328 64<76.045 237.871> 559 66<66.3943 238.458>
LayerCount: 2
Back
Fore
SplineSet
186 621 m 0xfd
 127 621 104 555 104 496 c 0
 104 427 146 350 196 350 c 0
 254 350 271 418 271 476 c 0
 271 543 239 621 186 621 c 0xfd
190 645 m 0
 277 645 337 571 337 484 c 0
 337 404 281 325 190 325 c 0
 107 325 40 396 40 484 c 0
 40 573 101 645 190 645 c 0
475 289 m 0
 416 289 392 223 392 164 c 0xfb
 392 95 435 18 485 18 c 0
 543 18 559 86 559 144 c 0
 559 211 528 289 475 289 c 0
479 313 m 0
 566 313 625 239 625 152 c 0
 625 72 570 -7 478 -7 c 0
 395 -7 328 64 328 152 c 0
 328 241 390 313 479 313 c 0
598 624 m 1
 598 624 115 0 115 0 c 2
 111 -5 94 -12 82 -12 c 0
 68 -12 65 -3 64 -1 c 1
 64 -1 546 624 546 624 c 2
 551 630 560 636 566 636 c 0
 595 636 589 633 598 624 c 1
EndSplineSet
Validated: 1
EndChar
StartChar: ampersand
Encoding: 6 38 6
Width: 683
Flags: W
HStem: -3 43<199.243 342.066 514.5 607.13> 289 23<463.686 506.937 597.031 655.236> 620 36<262.399 355.509>
VStem: 53 86<94.0843 236.46> 161 73<445.099 592.5> 385 68<465.283 594.712>
LayerCount: 2
Back
Fore
SplineSet
406 95 m 1
 341 161 242 314 242 314 c 1
 188 277 139 244 139 172 c 0
 139 78 208 40 281 40 c 0
 321 40 374 61 406 95 c 1
313 620 m 0
 270 620 234 589 234 543 c 0
 234 494 254 443 286 385 c 1
 348 421 385 453 385 530 c 0
 385 575 358 620 313 620 c 0
308 656 m 0
 396 656 453 616 453 544 c 0
 453 454 380 400 304 353 c 1
 346 282 402 210 452 154 c 1
 489 210 509 261 509 271 c 0
 509 291 471 287 464 289 c 1
 461 295 461 308 465 312 c 1
 465 312 544 312 544 312 c 2
 579 312 608 315 654 317 c 1
 657 315 656 289 653 289 c 1
 636 289 595 279 584 272 c 0
 579 269 541 194 480 123 c 1
 525 76 554 45 578 45 c 0
 599 45 625 78 630 91 c 1
 641 91 653 80 653 73 c 1
 649 64 621 0 544 0 c 0
 485 0 429 72 429 72 c 1
 381 30 313 -3 247 -3 c 0
 130 -3 53 57 53 158 c 0
 53 254 135 307 219 350 c 1
 191 398 161 450 161 519 c 0
 161 595 224 656 308 656 c 0
EndSplineSet
Validated: 1
EndChar
StartChar: quotesingle
Encoding: 7 39 7
Width: 160
Flags: W
HStem: 473 226<74.0952 102.855>
VStem: 39 78<523.482 685.326>
LayerCount: 2
Back
Fore
SplineSet
91 699 m 0
 103 699 109 696 117 686 c 1
 117 657 109 544 103 492 c 1
 100 486 91 477 83 473 c 1
 80 473 76 475 74 479 c 1
 53 551 39 601 39 629 c 0
 39 657 59 699 91 699 c 0
EndSplineSet
Validated: 1
EndChar
StartChar: parenleft
Encoding: 8 40 8
Width: 262
Flags: W
VStem: 37 73<122.806 447.394>
LayerCount: 2
Back
Fore
SplineSet
110 285 m 0
 110 128 162 -47 256 -130 c 1
 257 -130 244 -146 237 -150 c 1
 120 -58 37 91 37 285 c 0
 37 480 120 627 237 719 c 1
 244 715 257 699 256 699 c 1
 162 616 110 443 110 285 c 0
EndSplineSet
Validated: 1
EndChar
StartChar: parenright
Encoding: 9 41 9
Width: 262
Flags: W
VStem: 152 73<122.806 447.394>
LayerCount: 2
Back
Fore
SplineSet
225 285 m 0
 225 91 142 -58 25 -150 c 1
 18 -146 5 -130 6 -130 c 1
 100 -47 152 128 152 285 c 0
 152 443 100 616 6 699 c 1
 5 699 18 715 25 719 c 1
 142 627 225 480 225 285 c 0
EndSplineSet
Validated: 1
EndChar
StartChar: asterisk
Encoding: 10 42 10
Width: 443
Flags: W
HStem: 390 61<310.125 393.976> 434 65<38.5068 148.988>
VStem: 130 57<572.979 660.875> 209 25<420.999 450.228>
LayerCount: 2
Back
Fore
SplineSet
302 613 m 0x70
 319 632 343 640 358 625 c 0
 374 609 371 586 352 569 c 0
 317 537 283 532 255 505 c 1
 255 505 249 496 250 491 c 0
 251 486 255 483 260 481 c 0
 295 465 323 471 367 451 c 0
 390 441 405 421 396 402 c 0
 386 382 363 378 341 390 c 0xb0
 299 413 284 444 250 462 c 1
 250 462 241 467 236 465 c 0
 230 462 231 457 230 452 c 0
 226 414 239 389 234 341 c 0
 231 316 217 296 196 299 c 0
 174 302 163 322 168 347 c 0
 177 394 202 419 209 457 c 1
 209 457 210 466 206 470 c 0
 203 474 198 474 193 473 c 0
 156 465 136 444 88 434 c 0
 64 429 39 436 36 457 c 0
 32 479 49 496 74 499 c 0
 122 505 151 489 190 494 c 1
 190 494 199 497 201 502 c 0
 203 507 202 511 199 516 c 0
 180 549 154 562 130 604 c 0
 118 626 118 650 136 660 c 0
 156 670 176 660 187 637 c 0
 207 593 201 560 218 525 c 1
 218 525 223 515 228 514 c 0
 233 513 237 516 241 520 c 0
 267 548 270 577 302 613 c 0x70
EndSplineSet
Validated: 33
EndChar
StartChar: plus
Encoding: 11 43 11
Width: 542
Flags: W
HStem: 218 56<35.4861 242 298 507.076>
VStem: 242 56<7.125 218 274 480.966>
LayerCount: 2
Back
Fore
SplineSet
242 474 m 1
 258 480 278 485 285 485 c 0
 295 485 298 479 298 479 c 1
 298 479 298 274 298 274 c 25
 378 274 422 274 502 274 c 16
 506 274 511 270 511 262 c 0
 511 246 503 226 495 218 c 1
 495 218 298 218 298 218 c 25
 298 218 298 93 298 16 c 1
 286 7 265 5 255 5 c 0
 248 5 242 10 242 14 c 2
 242 14 242 218 242 218 c 25
 242 218 37 218 37 218 c 1
 37 218 31 218 31 228 c 0
 31 232 36 266 46 274 c 1
 46 274 242 274 242 274 c 9
 242 274 242 455 242 474 c 1
EndSplineSet
Validated: 1
EndChar
StartChar: comma
Encoding: 12 44 12
Width: 201
Flags: W
HStem: -139 262
VStem: 80 70<-26.8236 65>
LayerCount: 2
Back
Fore
SplineSet
106 123 m 0
 114 123 125 120 132 116 c 1
 139 104 150 84 150 46 c 0
 150 -11 83 -111 32 -139 c 1
 25 -139 17 -124 17 -118 c 1
 37 -103 80 -71 80 -7 c 0
 80 26 47 35 47 74 c 0
 47 95 70 123 106 123 c 0
EndSplineSet
Validated: 1
EndChar
StartChar: hyphen
Encoding: 13 45 13
Width: 377
Flags: W
HStem: 210 63<80.002 314.131>
VStem: 58 261
LayerCount: 2
Back
Fore
SplineSet
71 261 m 1
 71 261 279 272 312 273 c 0
 316 273 319 272 319 264 c 0
 319 247 314 227 306 210 c 1
 259 207 156 203 65 199 c 0
 60 199 58 201 58 210 c 0
 58 229 64 246 71 261 c 1
EndSplineSet
Validated: 1
EndChar
StartChar: period
Encoding: 1397 46 262
Width: 207
Flags: W
HStem: -11 110<60.2305 146.537>
VStem: 48 110<1.23046 87.5371>
LayerCount: 2
Back
Fore
SplineSet
48 45 m 0
 48 75 74 99 104 99 c 0
 134 99 158 75 158 45 c 0
 158 15 134 -11 104 -11 c 0
 74 -11 48 15 48 45 c 0
EndSplineSet
Validated: 1
EndChar
StartChar: slash
Encoding: 14 47 14
Width: 413
Flags: W
LayerCount: 2
Back
Fore
SplineSet
369 761 m 0
 377 761 381 755 382 752 c 1
 382 752 87 -12 87 -12 c 2
 84 -19 71 -35 48 -35 c 0
 33 -35 30 -28 30 -28 c 1
 30 -28 329 746 329 746 c 1
 330 749 345 761 369 761 c 0
EndSplineSet
Validated: 1
EndChar
StartChar: zero
Encoding: 15 48 15
Width: 497
Flags: W
HStem: -3 37<199.748 294.125> 604 37<204.754 298.704>
VStem: 30.5 88<173.11 465.617> 378.5 88<171.948 470.875>
LayerCount: 2
Back
Fore
SplineSet
254.5 604 m 0
 170.5 604 118.5 477 118.5 320 c 0
 118.5 163 170.5 34 244.5 34 c 0
 333.5 34 378.5 168 378.5 325 c 0
 378.5 482 328.5 604 254.5 604 c 0
248.5 641 m 0
 388.5 641 466.5 493 466.5 319 c 0
 466.5 145 386.5 -3 248.5 -3 c 0
 112.5 -3 30.5 145 30.5 319 c 0
 30.5 493 110.5 641 248.5 641 c 0
EndSplineSet
Validated: 1
EndChar
StartChar: one
Encoding: 16 49 16
Width: 497
Flags: W
HStem: -3 29<150.791 216.671 308.104 373.984> 622 20G<296.888 303.388>
VStem: 223.388 79<32.7426 557.993>
LayerCount: 2
Back
Fore
SplineSet
223.387695312 116 m 2
 223.387695312 116 223.387695312 520 223.387695312 520 c 2
 223.387695312 549 216.387695312 558 202.387695312 558 c 0
 187.387695312 558 148.387695312 544 132.387695312 538 c 1
 127.387695312 542 122.387695312 548 122.387695312 555 c 0
 122.387695312 557 121.387695312 560 124.387695312 561 c 0
 206.387695312 598 295.387695312 642 298.387695312 642 c 2
 298.387695312 642 300.387695312 642 300.387695312 642 c 2
 306.387695312 642 309.387695312 631 310.387695312 626 c 1
 310.387695312 626 302.387695312 590 302.387695312 529 c 2
 302.387695312 529 302.387695312 116 302.387695312 116 c 2
 302.387695312 86 302.387695312 58 307.387695312 42 c 0
 310.387695312 31 359.387695312 26 371.387695312 26 c 1
 375.387695312 21 376.387695312 2 371.387695312 -3 c 1
 330.387695312 -1 299.387695312 2 260.387695312 2 c 0
 221.387695312 2 194.387695312 -1 153.387695312 -3 c 1
 148.387695312 2 149.387695312 21 153.387695312 26 c 1
 165.387695312 26 214.387695312 31 217.387695312 42 c 0
 222.387695312 58 223.387695312 86 223.387695312 116 c 2
EndSplineSet
Validated: 1
EndChar
StartChar: two
Encoding: 17 50 17
Width: 497
Flags: W
HStem: 0 73<139.5 389.105> 577 65<161.763 284.739>
VStem: 57.5 19<497.173 503.317> 329.5 85<378.152 530.573>
LayerCount: 2
Back
Fore
SplineSet
453.5 150 m 1
 433.5 101 405.5 18 399.5 0 c 9
 399.5 0 60.5 0 53.5 0 c 1
 49.5 2 43.5 10 43.5 14 c 1
 127.5 107 223.5 221 281.5 306 c 0
 322.5 366 329.5 407 329.5 456 c 0
 329.5 525 283.5 577 219.5 577 c 0
 139.5 577 88.5 511 76.5 491 c 1
 68.5 491 57.5 503 57.5 507 c 1
 64.5 532 136.5 642 241.5 642 c 0
 337.5 642 414.5 560 414.5 475 c 0
 414.5 418 392.5 367 357.5 324 c 0
 286.5 237 184.5 123 139.5 73 c 9
 139.5 73 337.5 73 337.5 73 c 2
 377.5 73 400.5 98 421.5 150 c 0
 423.5 155 427.5 156 433.5 156 c 0
 437.5 156 449.5 153 453.5 150 c 1
EndSplineSet
Validated: 1
EndChar
StartChar: three
Encoding: 18 51 18
Width: 497
Flags: W
HStem: -5 40<164.183 285.893> 318 30<156.8 206.151> 589 53<173.929 281.618>
VStem: 314.5 75<445.646 556.049> 350.5 86<125.145 267.973>
LayerCount: 2
Back
Fore
SplineSet
258.5 642 m 0xf0
 309.5 642 389.5 596 389.5 514 c 0xf0
 389.5 449 331.5 400 296.5 379 c 1
 353.5 371 436.5 316 436.5 218 c 0
 436.5 81 307.5 -5 182.5 -5 c 0
 155.5 -5 112.5 2 80.5 18 c 1
 74.5 22 60.5 40 60.5 56 c 0
 60.5 85 80.5 104 102.5 104 c 0
 130.5 104 142.5 76 158.5 60 c 0
 177.5 41 205.5 35 232.5 35 c 0
 285.5 35 350.5 75 350.5 190 c 0xe8
 350.5 271 288.5 331 222.5 331 c 0
 201.5 331 174.5 321 162.5 318 c 1
 158.5 323 156.5 330 156.5 338 c 0
 156.5 342 156.5 345 158.5 348 c 1
 238.5 366 314.5 410 314.5 496 c 0
 314.5 549 273.5 589 216.5 589 c 0
 153.5 589 113.5 530 104.5 523 c 1
 98.5 523 92.5 536 92.5 545 c 1
 123.5 591 180.5 642 258.5 642 c 0xf0
EndSplineSet
Validated: 1
EndChar
StartChar: four
Encoding: 19 52 19
Width: 497
Flags: W
HStem: -6 21G<342.5 374> 174 57<94.5 318.5 397.5 468.461> 624 20G<378.5 387.5>
VStem: 318.5 79<-5.38048 174 231 524>
LayerCount: 2
Back
Fore
SplineSet
382.5 644 m 0
 392.5 644 397.5 634 397.5 626 c 2
 397.5 626 397.5 231 397.5 231 c 25
 397.5 231 456.5 231 456.5 231 c 18
 462.5 231 470.5 211 470.5 190 c 0
 470.5 181 468.5 177 466.5 174 c 1
 466.5 174 397.5 174 397.5 174 c 25
 397.5 174 397.5 -1 397.5 -1 c 1
 397.5 -1 393.5 -6 354.5 -6 c 0
 330.5 -6 318.5 -5 318.5 2 c 2
 318.5 2 318.5 174 318.5 174 c 25
 318.5 174 36.5 174 36.5 174 c 1
 29.5 178 26.5 187 26.5 193 c 1
 26.5 193 352.5 619 352.5 619 c 2
 358.5 627 374.5 644 382.5 644 c 0
318.5 524 m 25
 318.5 524 94.5 231 94.5 231 c 25
 94.5 231 318.5 231 318.5 231 c 25
 318.5 231 318.5 524 318.5 524 c 25
EndSplineSet
Validated: 1
EndChar
StartChar: five
Encoding: 20 53 20
Width: 497
Flags: W
HStem: -5 40<164.183 285.893> 339 56<143.696 277.139> 556 79<174.562 377.182> 624 20G<304.5 399.5>
VStem: 350.5 86<126.942 266.661>
LayerCount: 2
Back
Fore
SplineSet
248.5 395 m 0xe8
 366.5 395 436.5 303 436.5 218 c 0
 436.5 81 307.5 -5 182.5 -5 c 0
 155.5 -5 112.5 2 80.5 18 c 1
 74.5 22 60.5 40 60.5 56 c 0
 60.5 85 80.5 104 102.5 104 c 0
 130.5 104 142.5 76 158.5 60 c 0
 177.5 41 205.5 35 232.5 35 c 0
 285.5 35 350.5 74 350.5 190 c 0
 350.5 252 306.5 339 190.5 339 c 3
 169.5 339 122.5 332 106.5 324 c 1
 102.5 324 98.5 331 98.5 338 c 1
 120.5 450 145.5 574 156.5 635 c 1
 156.5 635 304.5 635 304.5 635 c 2xe8
 345.5 635 396.5 644 396.5 644 c 17xd8
 402.5 640 408.5 638 408.5 633 c 0
 408.5 627 396.5 583 378.5 562 c 1
 350.5 559 314.5 556 262.5 556 c 2
 262.5 556 191.5 556 178.5 556 c 1
 166.5 496 154.5 432 142.5 376 c 1
 170.5 387 221.5 395 248.5 395 c 0xe8
EndSplineSet
Validated: 1
EndChar
StartChar: six
Encoding: 21 54 21
Width: 497
Flags: W
HStem: -6 33<206.737 301.455> 346 49<182.323 308.157> 618 29<386.176 420.518>
VStem: 49 86<119.341 313.338> 363 85<110.219 284.317>
LayerCount: 2
Back
Fore
SplineSet
139 306 m 1
 136 285 135 262 135 238 c 0
 135 148 173 27 253 27 c 0
 316 27 363 94 363 184 c 0
 363 269 327 346 237 346 c 0
 208 346 172 342 139 306 c 1
265 395 m 0
 405 395 448 275 448 203 c 0
 448 91 359 -6 245 -6 c 0
 124 -6 49 112 49 220 c 0
 49 322 82 416 145 485 c 0
 216 563 329 625 413 647 c 1
 422 647 425 624 425 618 c 1
 341 591 192 527 147 350 c 1
 182 379 231 395 265 395 c 0
EndSplineSet
Validated: 1
EndChar
StartChar: seven
Encoding: 22 55 22
Width: 497
Flags: W
HStem: -5 21G<149 159> 560 73<94.0763 396.5>
LayerCount: 2
Back
Fore
SplineSet
384.5 633 m 2
 410.5 633 446.5 636 452.5 636 c 0
 458.5 636 458.5 632 458.5 627 c 0
 458.5 614 443.5 588 430.5 560 c 2
 430.5 560 166.5 -2 166.5 -2 c 1
 164.5 -4 161.5 -5 156.5 -5 c 0
 141.5 -5 112.5 4 112.5 13 c 1
 215.5 169 396.5 560 396.5 560 c 9
 396.5 560 142.5 560 142.5 560 c 2
 102.5 560 85.5 536 70.5 483 c 0
 69.5 478 64.5 477 58.5 477 c 0
 54.5 477 42.5 480 38.5 483 c 1
 55.5 537 73.5 601 80.5 633 c 9
 80.5 633 384.5 633 384.5 633 c 2
EndSplineSet
Validated: 1
EndChar
StartChar: eight
Encoding: 23 56 23
Width: 497
Flags: W
HStem: -9 36<192.472 310.325> 608 35<202.682 297.828>
VStem: 60 79<77.0132 225.193> 88 74<430.437 556.213> 346 72<424.076 561.8> 356 81<86.3009 203.234>
LayerCount: 2
Back
Fore
SplineSet
248 27 m 0xe4
 314 27 356 70 356 138 c 0
 356 221 242 287 228 295 c 0
 226 296 225 297 222 297 c 0
 221 297 219 297 218 296 c 0
 163 261 139 221 139 157 c 0
 139 75 195 27 248 27 c 0xe4
248 608 m 0
 200 608 162 558 162 498 c 0
 162 421 228 386 266 364 c 0
 268 363 270 362 272 362 c 0
 274 362 275 362 278 364 c 0
 319 391 346 431 346 486 c 0xd8
 346 544 308 608 248 608 c 0
254 643 m 0
 343 643 418 589 418 496 c 0xd8
 418 418 352 373 306 344 c 1
 302 343 303 340 306 338 c 0
 366 304 437 239 437 167 c 0
 437 67 346 -9 246 -9 c 0
 136 -9 60 57 60 154 c 0xe4
 60 242 151 293 190 318 c 0
 193 320 192 323 190 324 c 0
 148 349 88 406 88 480 c 0
 88 565 166 643 254 643 c 0
EndSplineSet
Validated: 1
EndChar
StartChar: nine
Encoding: 24 57 24
Width: 497
Flags: W
HStem: -6 29<75.9823 110.324> 246 49<188.485 314.177> 614 33<195.18 289.763>
VStem: 49.5 85<356.683 532.466> 361.5 86<327.662 521.659>
LayerCount: 2
Back
Fore
SplineSet
357.5 335 m 1
 360.5 356 361.5 379 361.5 403 c 0
 361.5 493 323.5 614 243.5 614 c 0
 180.5 614 134.5 547 134.5 457 c 0
 134.5 372 169.5 295 259.5 295 c 0
 288.5 295 324.5 299 357.5 335 c 1
71.5 23 m 1
 155.5 50 304.5 114 349.5 291 c 1
 314.5 262 265.5 246 231.5 246 c 0
 91.5 246 49.5 366 49.5 438 c 0
 49.5 550 137.5 647 251.5 647 c 0
 372.5 647 447.5 529 447.5 421 c 0
 447.5 319 414.5 225 351.5 156 c 0
 280.5 78 167.5 16 83.5 -6 c 1
 74.5 -6 71.5 17 71.5 23 c 1
EndSplineSet
Validated: 1
EndChar
StartChar: colon
Encoding: 25 58 25
Width: 226
Flags: W
HStem: -11 110<70.2305 156.537> 321 110<70.2305 156.537>
VStem: 58 110<1.23046 87.5371 333.23 419.537>
LayerCount: 2
Back
Fore
SplineSet
58 45 m 0
 58 75 84 99 114 99 c 0
 144 99 168 75 168 45 c 0
 168 15 144 -11 114 -11 c 0
 84 -11 58 15 58 45 c 0
58 377 m 0
 58 407 84 431 114 431 c 0
 144 431 168 407 168 377 c 0
 168 347 144 321 114 321 c 0
 84 321 58 347 58 377 c 0
EndSplineSet
Validated: 1
EndChar
StartChar: semicolon
Encoding: 26 59 26
Width: 232
Flags: W
HStem: 321 110<73.2305 159.537>
VStem: 68 103<25.9041 111.105 332.398 420.324> 101 70<-26.8236 65>
LayerCount: 2
Back
Fore
SplineSet
127 123 m 0xc0
 135 123 146 120 153 116 c 1
 160 104 171 84 171 46 c 0xc0
 171 -11 104 -111 53 -139 c 1
 46 -139 38 -124 38 -118 c 1
 58 -103 101 -71 101 -7 c 0xa0
 101 26 68 35 68 74 c 0
 68 95 91 123 127 123 c 0xc0
61 377 m 0
 61 407 87 431 117 431 c 0
 147 431 171 407 171 377 c 0
 171 347 147 321 117 321 c 0
 87 321 61 347 61 377 c 0
EndSplineSet
Validated: 1
EndChar
StartChar: less
Encoding: 27 60 27
Width: 492
Flags: W
HStem: 410 20G<421.5 423.5>
LayerCount: 2
Back
Fore
SplineSet
444 35 m 0
 444 28 434 -15 428 -15 c 0
 427 -15 425 -14 423 -13 c 2
 423 -13 48 177 48 177 c 2
 33 185 30 200 30 217 c 0
 30 228 38 236 48 241 c 2
 48 241 417 428 417 428 c 2
 419 429 421 430 422 430 c 0
 425 430 432 420 439 383 c 0
 440 377 436 374 436 374 c 1
 436 374 110 209 110 209 c 1
 110 209 441 41 441 41 c 1
 441 41 444 40 444 35 c 0
EndSplineSet
Validated: 1
EndChar
StartChar: equal
Encoding: 28 61 28
Width: 565
Flags: W
HStem: 120 55<73.6592 493.502> 264 55<73.6592 493.502>
LayerCount: 2
Back
Fore
SplineSet
479 120 m 1
 479 120 73 120 73 120 c 1
 70 120 68 124 68 129 c 0
 68 143 79 171 89 175 c 9
 89 175 492 175 492 175 c 17
 496 175 498 171 498 164 c 0
 498 150 489 125 479 120 c 1
479 264 m 1
 479 264 73 264 73 264 c 1
 70 264 68 268 68 273 c 0
 68 287 79 315 89 319 c 9
 89 319 492 319 492 319 c 17
 496 319 498 315 498 308 c 0
 498 294 489 269 479 264 c 1
EndSplineSet
Validated: 1
EndChar
StartChar: greater
Encoding: 29 62 29
Width: 493
Flags: W
HStem: 410 20G<68 70.5>
LayerCount: 2
Back
Fore
SplineSet
48 35 m 0
 48 39 51 41 51 41 c 1
 51 41 382 209 382 209 c 1
 382 209 57 374 57 374 c 1
 57 374 54 375 54 382 c 0
 54 400 66 430 70 430 c 0
 71 430 73 429 75 428 c 2
 75 428 445 241 445 241 c 2
 455 236 462 228 462 217 c 0
 462 200 460 185 445 177 c 2
 445 177 70 -13 70 -13 c 2
 68 -14 66 -15 65 -15 c 0
 59 -15 48 27 48 35 c 0
EndSplineSet
Validated: 1
EndChar
StartChar: question
Encoding: 30 63 30
Width: 385
VWidth: 1000
Flags: W
HStem: -7 80<154.376 211.139> 353 56.9333<78.4401 143.779> 564 31<105.729 231.124>
VStem: 29.5283 33.4717<422.858 522.83> 142 81<4.86047 60.6238> 158.889 28.2929<134 227.348> 268.154 74.8462<373.225 531.969>
LayerCount: 2
Back
Fore
SplineSet
183 73 m 4xfa
 194.333333333 73 203.833333333 69 211.5 61 c 4
 219.166666667 53 223 43.3333333333 223 32 c 4
 223 21.3333333333 219.333333333 12.1666666667 212 4.5 c 4
 204.666666667 -3.16666666667 195 -7 183 -7 c 4
 171.666666667 -7 162 -3.33333333333 154 4 c 4
 146 11.3333333333 142 20.6666666667 142 32 c 4
 142 43.3333333333 146 53 154 61 c 4
 162 69 171.666666667 73 183 73 c 4xfa
343 455 m 4
 343 396.333333333 318.333333333 348.666666667 269 312 c 4
 214.454545455 272 187.181818182 219.327823691 187.181818182 153.983471074 c 4
 187.181818182 147.449035813 187.454545455 140.787878788 188 134 c 5
 188 134 166 134 166 134 c 5
 161.259259259 156.518518519 158.888888889 175.086419753 158.888888889 189.703703704 c 4xf6
 158.888888889 191.530864197 158.925925926 193.296296296 159 195 c 4
 161 236.333333333 180.333333333 280.666666667 217 328 c 4
 249.666666667 370.666666667 266.666666667 411.333333333 268 450 c 4
 268.102564103 452.512820513 268.153846154 454.998027613 268.153846154 457.455621302 c 4
 268.153846154 486.946745562 260.769230769 512.461538461 246 534 c 4
 232.666666667 554 204.333333333 564 161 564 c 4
 121.666666667 564 93 548 75 516 c 4
 67 501.333333333 63 486 63 470 c 4
 63 448 68 432.333333333 78 423 c 4
 87.3333333333 414.288888889 100.151111111 409.933333333 116.453333333 409.933333333 c 4
 117.617777778 409.933333333 118.8 409.955555555 120 410 c 4
 131.333333333 410.666666667 139.333333333 407.166666667 144 399.5 c 4
 148.666666667 391.833333333 150 383.666666667 148 375 c 4
 144 360.333333333 130.666666667 353 108 353 c 4
 94 353 82.3333333333 356 73 362 c 4
 44.0188679245 380.716981132 29.5283018868 412.284086864 29.5283018868 456.701317195 c 4
 29.5283018868 461.328112021 29.6855345912 466.094339623 30 471 c 4
 32 501.666666667 45 529.333333333 69 554 c 4
 95 581.333333333 134 595 186 595 c 4
 230.666666667 595 267.333333333 583 296 559 c 4
 327.333333333 533 343 498.333333333 343 455 c 4
EndSplineSet
Validated: 8913409
EndChar
StartChar: at
Encoding: 31 64 31
Width: 748
Flags: W
HStem: -124 18<261.319 285.566> -7 43<494.48 583.769> -5 58<283.059 341.022> 389 46<390.034 497.5> 538 40<314.127 518.377>
VStem: 49 40<62.2822 287.163> 194 74<65.092 232.038> 423 66<41.9004 125> 672 40<157.015 377.609>
LayerCount: 2
Back
Fore
SplineSet
418 578 m 0xdf80
 614 578 712 426 712 270 c 0
 712 117 623 -7 506 -7 c 0xdf80
 457 -7 423 18 423 79 c 0
 423 91 427 117 430 125 c 1
 411 88 347 -5 289 -5 c 3xbf80
 227 -5 194 60 194 130 c 3
 194 276 343 435 480 435 c 0
 515 435 534 429 553 422 c 9
 553 422 492 106 492 106 c 2
 491 102 489 86 489 81 c 0
 489 49 510 36 537 36 c 0
 600 36 672 142 672 267 c 0
 672 402 592 538 418 538 c 0
 214 538 89 344 89 170 c 0
 89 53 150 -36 222 -78 c 0
 258 -99 278 -103 297 -106 c 1
 297 -114 273 -124 261 -124 c 0
 249 -124 235 -123 222 -118 c 0
 130 -84 49 29 49 170 c 0
 49 366 186 578 418 578 c 0xdf80
438 389 m 3
 361 389 268 266 268 151 c 0
 268 89 284 53 319 53 c 3xbf80
 369 53 440 178 459 274 c 2
 459 274 479 376 479 376 c 17
 470 386 451 389 438 389 c 3
EndSplineSet
Validated: 1
EndChar
StartChar: A
Encoding: 32 65 32
Width: 627
Flags: W
HStem: -3 29<-13.6875 43.043 129.585 192.196 402.775 461.559 582.161 631.562> 253 39<199 378.999> 643 20G<321.5 327.5>
LayerCount: 2
Back
Fore
SplineSet
95 139 m 2
 95 139 227 478 288 634 c 1
 293 644 317 663 326 663 c 0
 329 663 329 661 332 660 c 1
 332 660 536 126 536 126 c 0
 550 89 559 64 561 60 c 0
 571 36 621 26 629 26 c 1
 634 19 632 0 631 -3 c 1
 591 -1 565 2 521 2 c 0
 475 2 451 -1 405 -3 c 1
 400 2 401 21 406 26 c 1
 418 26 453 31 462 39 c 0
 465 42 466 47 466 53 c 0
 466 83 398 248 398 248 c 1
 398 248 395 252 392 252 c 0
 365 253 318 253 293 253 c 0
 252 253 230 253 185 250 c 0
 183 250 180 247 180 247 c 1
 180 247 152 173 135 125 c 16
 123 90 121 67 121 54 c 0
 121 30 182 26 190 26 c 1
 193 23 194 3 192 -3 c 1
 152 -1 139 2 95 2 c 0
 49 2 34 -1 -12 -3 c 1
 -15 0 -15 19 -12 26 c 1
 0 26 38 32 48 45 c 0
 68 71 81 103 95 139 c 2
291 542 m 1
 291 542 199 298 199 298 c 1
 199 298 199 294 201 294 c 0
 227 293 269 292 292 292 c 0
 323 292 345 293 376 295 c 0
 378 295 379 300 379 300 c 1
 379 300 291 542 291 542 c 1
EndSplineSet
Validated: 1
EndChar
StartChar: B
Encoding: 33 66 33
Width: 596
Flags: W
HStem: -3 32<43.0862 114.671 217.188 380.413> 332 38<206 361.031> 627 32<44.2859 115.468 211.209 337.927>
VStem: 119 87<47.3571 332 370 616.422> 415 91<435.521 566.855> 453 99<105.284 263.241>
LayerCount: 2
Back
Fore
SplineSet
206 332 m 1xf4
 206 332 206 115 206 115 c 2
 206 101 208 54 215 47 c 0
 230 31 257 29 294 29 c 0
 369 29 453 54 453 176 c 0
 453 251 421 332 267 332 c 2
 267 332 206 332 206 332 c 1xf4
206 370 m 1
 206 370 290 370 290 370 c 2
 380 370 415 430 415 487 c 0xf8
 415 576 354 627 261 627 c 0
 249 627 215 626 211 617 c 0
 206 605 206 572 206 542 c 2
 206 542 206 370 206 370 c 1
305 659 m 0
 396 659 506 624 506 510 c 0xf8
 506 433 440 378 405 365 c 0
 403 364 402 362 405 360 c 1
 454 358 552 298 552 199 c 0xf4
 552 142 534 92 485 51 c 0
 437 11 352 -2 275 -3 c 0
 242 -3 84 -3 45 -3 c 1
 40 2 41 21 45 26 c 1
 57 26 111 31 114 42 c 0
 119 58 119 86 119 116 c 2
 119 116 119 543 119 543 c 2
 119 573 119 601 114 617 c 0
 111 628 57 633 45 633 c 1
 41 638 40 657 45 662 c 1
 86 660 124 657 163 657 c 0
 202 657 246 659 305 659 c 0
EndSplineSet
Validated: 513
EndChar
StartChar: C
Encoding: 34 67 34
Width: 674
Flags: W
HStem: -6 33<318.873 489.461> 634 33<314.22 486.001>
VStem: 48 99<212.479 447.288> 587 34<485.58 538.617> 600 32<140.38 186.781>
LayerCount: 2
Back
Fore
SplineSet
386 667 m 0xe8
 452 667 524 662 598 646 c 1
 598 646 621 508 621 498 c 1
 622 492 609 485 599 485 c 0
 593 485 590 486 587 488 c 1xf0
 581 519 558 634 391 634 c 0
 243 634 147 483 147 343 c 0
 147 187 233 27 407 27 c 0
 468 27 510 49 539 75 c 0
 578 110 593 158 600 191 c 1
 613 191 623 189 632 183 c 1
 632 163 611 51 597 39 c 1
 542 8 474 -6 382 -6 c 0
 184 -6 48 145 48 322 c 0
 48 509 189 667 386 667 c 0xe8
EndSplineSet
Validated: 1
EndChar
StartChar: D
Encoding: 35 68 35
Width: 710
Flags: W
HStem: -3 32<43.0862 114.671 213.396 390.374> 626 32<45 115.65 210.721 376.678>
VStem: 119 88<43.3146 622.145> 560 99<197.497 448.749>
LayerCount: 2
Back
Fore
SplineSet
207 541 m 2
 207 541 207 115 207 115 c 0
 207 101 208 49 213 43 c 0
 221 32 258 29 295 29 c 0
 437 29 560 118 560 313 c 0
 560 539 425 626 281 626 c 0
 269 626 215 625 212 615 c 0
 207 599 207 570 207 541 c 2
308 658 m 0
 527 658 659 519 659 334 c 0
 659 164 577 -3 295 -3 c 0
 251 -3 84 -3 45 -3 c 1
 40 2 41 21 45 26 c 1
 57 26 111 31 114 42 c 0
 119 58 119 86 119 116 c 2
 119 116 119 543 119 543 c 2
 119 573 119 601 114 617 c 0
 111 628 57 633 45 633 c 1
 41 638 40 657 45 662 c 1
 86 660 124 657 163 657 c 0
 202 657 264 658 308 658 c 0
EndSplineSet
Validated: 513
EndChar
StartChar: E
Encoding: 36 69 36
Width: 587
Flags: W
HStem: -3 29<42.4037 113.252> 0 34<212.612 435.606> 312 37<206 383.451> 408 20G<423.5 430.5> 624 33<209.721 433.774> 633 29<42.5487 113.252>
VStem: 119 87<44.2663 310.528 349.429 620.395> 412 32<230.002 289.298 372.014 427.976> 482 32<523.07 571.016>
LayerCount: 2
Back
Fore
SplineSet
163 657 m 0x3b80
 257 657 376 664 485 664 c 1
 492 614 505 573 514 528 c 1
 511 525 503 523 496 523 c 0
 489 523 483 525 482 530 c 0
 460 610 419 624 366 624 c 2
 366 624 280 624 280 624 c 0
 268 624 214 623 211 613 c 0
 206 597 206 569 206 542 c 2
 206 542 206 355 206 355 c 2
 206 350 227 349 249 349 c 2
 249 349 302 349 302 349 c 2
 398 349 395 355 412 421 c 0
 413 426 420 428 427 428 c 0
 434 428 441 426 444 423 c 1
 444 423 444 234 444 234 c 1
 442 232 435 230 428 230 c 0
 421 230 414 233 412 238 c 0
 397 295 393 298 384 304 c 0
 373 311 316 312 278 312 c 0
 250 312 206 312 206 303 c 2
 206 303 206 113 206 113 c 2
 206 98 206 49 212 44 c 0
 225 34 241 34 283 34 c 2
 283 34 331 34 331 34 c 2
 378 34 429 44 457 61 c 0
 489 80 504 119 520 162 c 0
 521 166 527 168 534 168 c 0
 544 168 556 165 559 162 c 1
 540 108 512 40 505 -4 c 1
 396 -4 297 0 164 0 c 0x7b80
 117 0 84 -3 45 -3 c 1
 40 2 41 21 45 26 c 1
 57 26 111 31 114 42 c 0
 119 58 119 86 119 116 c 2
 119 116 119 543 119 543 c 2
 119 573 119 601 114 617 c 0
 111 628 57 633 45 633 c 1
 41 638 40 657 45 662 c 1xb780
 86 660 124 657 163 657 c 0x3b80
EndSplineSet
Validated: 513
EndChar
StartChar: F
Encoding: 37 70 37
Width: 535
Flags: W
HStem: -3 29<42.4037 113.252 211.812 292.596> 312 37<206 383.451> 408 20G<423.5 430.5> 624 33<209.721 433.774> 633 29<42.5487 113.252>
VStem: 119 87<33.4148 310.528 349.429 620.395> 412 32<230.002 289.298 372.014 427.976> 482 32<523.07 571.016>
LayerCount: 2
Back
Fore
SplineSet
163 657 m 0xf7
 257 657 376 664 485 664 c 1
 492 614 505 573 514 528 c 1
 511 525 503 523 496 523 c 0
 489 523 483 525 482 530 c 0
 460 610 419 624 366 624 c 2
 366 624 280 624 280 624 c 0xf7
 268 624 214 623 211 613 c 0
 206 597 206 569 206 542 c 2
 206 542 206 355 206 355 c 2
 206 350 227 349 249 349 c 2
 249 349 302 349 302 349 c 2
 398 349 395 355 412 421 c 0
 413 426 420 428 427 428 c 0
 434 428 441 426 444 423 c 1
 444 423 444 234 444 234 c 1
 442 232 435 230 428 230 c 0
 421 230 414 233 412 238 c 0
 397 295 393 298 384 304 c 0
 373 311 316 312 278 312 c 0
 250 312 206 312 206 303 c 2
 206 303 206 116 206 116 c 2
 206 86 206 58 211 42 c 0
 214 31 278 26 290 26 c 1
 294 21 295 2 290 -3 c 1
 249 -1 202 2 163 2 c 0
 116 2 84 -3 45 -3 c 1
 40 2 41 21 45 26 c 1
 57 26 111 31 114 42 c 0
 119 58 119 86 119 116 c 2
 119 116 119 543 119 543 c 2
 119 573 119 601 114 617 c 0
 111 628 57 633 45 633 c 1
 41 638 40 657 45 662 c 1xef
 86 660 124 657 163 657 c 0xf7
EndSplineSet
Validated: 513
EndChar
StartChar: G
Encoding: 38 71 38
Width: 720
Flags: W
HStem: -6 33<318.687 492.59> 265 29<459.404 529.258 626.723 693.596> 634 33<314.22 486.001>
VStem: 48 99<212.479 447.288> 535 86<64.4681 258.257> 587 34<485.58 538.617>
LayerCount: 2
Back
Fore
SplineSet
535 175 m 2xf8
 535 205 535 233 530 249 c 0
 527 260 474 265 462 265 c 1
 458 270 457 289 462 294 c 1
 503 292 540 289 579 289 c 0
 618 289 650 292 691 294 c 1
 696 289 695 270 691 265 c 1
 679 265 629 260 626 249 c 0
 621 233 621 205 621 175 c 2
 621 175 621 114 621 104 c 0xf8
 621 83 631 74 631 64 c 0
 631 58 628 55 611 46 c 0
 568 23 514 -6 382 -6 c 0
 184 -6 48 145 48 322 c 0
 48 509 189 667 386 667 c 0
 452 667 524 662 598 646 c 1
 598 646 621 508 621 498 c 1
 622 492 609 485 599 485 c 0
 593 485 590 486 587 488 c 1xf4
 581 519 558 634 391 634 c 0
 243 634 147 483 147 343 c 0
 147 187 232 27 407 27 c 0
 459 27 498 44 528 59 c 0
 534 62 535 67 535 74 c 0
 535 74 535 175 535 175 c 2xf8
EndSplineSet
Validated: 1
EndChar
StartChar: H
Encoding: 39 72 39
Width: 726
Flags: W
HStem: -3 32<42.5037 113.999 211.001 282.496 443.504 514.999 612.001 683.496> 325 34<207.196 520> 630 32<42.5037 113.999 211.001 282.496 443.504 514.999 612.001 683.496>
VStem: 119 87<35.7426 318.953 362.001 623.257> 520 87<35.7426 320.999 362.001 623.257>
LayerCount: 2
Back
Fore
SplineSet
163 657 m 0
 202 657 239 660 280 662 c 1
 285 657 284 635 280 630 c 1
 268 630 214 625 211 614 c 0
 206 598 206 570 206 540 c 2
 206 540 206 365 206 365 c 1
 206 363 208 362 208 362 c 1
 257 361 309 359 365 359 c 0
 412 359 473 361 518 362 c 1
 518 362 520 364 520 366 c 0
 520 366 520 540 520 540 c 2
 520 570 520 598 515 614 c 0
 512 625 458 630 446 630 c 1
 442 635 441 657 446 662 c 1
 487 660 525 657 564 657 c 0
 603 657 640 660 681 662 c 1
 686 657 685 635 681 630 c 1
 669 630 615 625 612 614 c 0
 607 598 607 570 607 540 c 2
 607 540 607 119 607 119 c 2
 607 89 607 61 612 45 c 0
 615 34 669 29 681 29 c 1
 685 24 686 2 681 -3 c 1
 640 -1 603 2 564 2 c 0
 525 2 487 -1 446 -3 c 1
 441 2 442 24 446 29 c 1
 458 29 512 34 515 45 c 0
 520 61 520 89 520 119 c 2
 520 119 520 317 520 317 c 1
 520 319 518 321 518 321 c 1
 471 322 416 325 365 325 c 0
 226 325 211 321 207 319 c 1
 206 318 206 317 206 317 c 1
 206 317 206 119 206 119 c 2
 206 89 206 61 211 45 c 0
 214 34 268 29 280 29 c 1
 284 24 285 2 280 -3 c 1
 239 -1 202 2 163 2 c 0
 124 2 86 -1 45 -3 c 1
 40 2 41 24 45 29 c 1
 57 29 111 34 114 45 c 0
 119 61 119 89 119 119 c 2
 119 119 119 540 119 540 c 2
 119 570 119 598 114 614 c 0
 111 625 57 630 45 630 c 1
 41 635 40 657 45 662 c 1
 86 660 124 657 163 657 c 0
EndSplineSet
Validated: 1
EndChar
StartChar: I
Encoding: 40 73 40
Width: 324
Flags: W
HStem: -3 29<42.4037 113.252 211.748 282.596> 633 29<42.4037 113.252 211.748 282.596>
VStem: 119 87<32.7426 626.257>
LayerCount: 2
Back
Fore
SplineSet
163 657 m 0
 202 657 239 660 280 662 c 1
 285 657 284 638 280 633 c 1
 268 633 214 628 211 617 c 0
 206 601 206 573 206 543 c 2
 206 543 206 116 206 116 c 2
 206 86 206 58 211 42 c 0
 214 31 268 26 280 26 c 1
 284 21 285 2 280 -3 c 1
 239 -1 202 2 163 2 c 0
 124 2 86 -1 45 -3 c 1
 40 2 41 21 45 26 c 1
 57 26 111 31 114 42 c 0
 119 58 119 86 119 116 c 2
 119 116 119 543 119 543 c 2
 119 573 119 601 114 617 c 0
 111 628 57 633 45 633 c 1
 41 638 40 657 45 662 c 1
 86 660 124 657 163 657 c 0
EndSplineSet
Validated: 1
EndChar
StartChar: J
Encoding: 41 74 41
Width: 313
Flags: W
HStem: -227 47<-40.5 66.2636> 633 29<37.4037 108.252 206.748 277.596>
VStem: 114 87<-53.3294 626.257>
LayerCount: 2
Back
Fore
SplineSet
158 657 m 0
 197 657 234 660 275 662 c 1
 280 657 279 638 275 633 c 1
 263 633 209 628 206 617 c 0
 201 601 201 573 201 543 c 2
 201 543 201 121 201 121 c 2
 201 -129 102 -227 -33 -227 c 0
 -48 -227 -84 -218 -96 -209 c 1
 -101 -204 -104 -193 -104 -186 c 0
 -104 -155 -88 -130 -56 -130 c 0
 -38 -130 -22 -146 -8 -159 c 0
 3 -169 20 -180 37 -180 c 0
 79 -180 114 -126 114 116 c 2
 114 116 114 543 114 543 c 2
 114 573 114 601 109 617 c 0
 106 628 52 633 40 633 c 1
 36 638 35 657 40 662 c 1
 81 660 119 657 158 657 c 0
EndSplineSet
Validated: 1
EndChar
StartChar: K
Encoding: 42 75 42
Width: 657
Flags: W
HStem: -3 32<42.5037 113.999 211.001 282.496 589.9 660.782> 631 31<42.5037 113.252 211.748 282.496 402.462 458.721 556.457 628.082>
VStem: 119 87<35.7426 306.999 341 623.257>
LayerCount: 2
Back
SplineSet
163 657 m 4
 202 657 239 660 280 662 c 5
 285 657 284 635 280 630 c 5
 268 630 214 625 211 614 c 4
 206 598 206 570 206 540 c 6
 206 341 l 5
 227 354 278 402 319 442 c 4
 397 519 416 539 446 578 c 4
 452 586 460 599 460 609 c 4
 460 634 413 631 404 631 c 5
 401 637 401 653 404 662 c 5
 441 660 482 656 519 656 c 4
 563 656 587 660 627 662 c 5
 629 656 630 631 625 631 c 4
 616 630 560 631 526 594 c 4
 440 500 382 448 295 364 c 5
 293 361 293 359 295 356 c 5
 391 244 474 145 551 72 c 4
 576 49 605 30 660 26 c 5
 665 21 660 -1 659 -3 c 5
 592 -3 537 1 517 8 c 4
 503 13 477 23 449 51 c 4
 428 72 337 175 224 304 c 4
 222 307 219 307 215 307 c 4
 212 307 208 306 206 305 c 5
 206 119 l 6
 206 89 206 61 211 45 c 4
 214 34 268 29 280 29 c 5
 284 24 285 2 280 -3 c 5
 239 -1 202 2 163 2 c 4
 124 2 86 -1 45 -3 c 5
 40 2 41 24 45 29 c 5
 57 29 111 34 114 45 c 4
 119 61 119 89 119 119 c 6
 119 540 l 6
 119 570 119 598 114 614 c 4
 111 625 57 630 45 630 c 5
 41 635 40 657 45 662 c 5
 86 660 124 657 163 657 c 4
EndSplineSet
Fore
SplineSet
163 657 m 0
 202 657 239 660 280 662 c 1
 285 657 284 635 280 630 c 1
 268 630 214 625 211 614 c 0
 206 598 206 570 206 540 c 2
 206 540 206 341 206 341 c 1
 227 354 278 402 319 442 c 0
 397 519 416 539 446 578 c 0
 452 586 460 599 460 609 c 0
 460 629 431 631 414 631 c 1
 414 631 404 631 404 631 c 1
 401 637 401 653 404 662 c 1
 441 660 482 656 519 656 c 0
 563 656 587 660 627 662 c 1
 629 656 630 631 625 631 c 0
 616 630 560 631 526 594 c 0
 440 500 382 448 295 364 c 1
 293 361 293 359 295 356 c 1
 391 244 474 145 551 72 c 0
 576 49 605 30 660 26 c 1
 665 21 660 -1 659 -3 c 1
 592 -3 537 1 517 8 c 0
 503 13 477 23 449 51 c 0
 428 72 337 175 224 304 c 0
 222 307 219 307 215 307 c 0
 212 307 208 306 206 305 c 1
 206 305 206 119 206 119 c 2
 206 89 206 61 211 45 c 0
 214 34 268 29 280 29 c 1
 284 24 285 2 280 -3 c 1
 239 -1 202 2 163 2 c 0
 124 2 86 -1 45 -3 c 1
 40 2 41 24 45 29 c 1
 57 29 111 34 114 45 c 0
 119 61 119 89 119 119 c 2
 119 119 119 540 119 540 c 2
 119 570 119 598 114 614 c 0
 111 625 57 630 45 630 c 1
 41 635 40 657 45 662 c 1
 86 660 124 657 163 657 c 0
EndSplineSet
Validated: 1
EndChar
StartChar: L
Encoding: 43 76 43
Width: 564
Flags: W
HStem: -3 29<42.4037 113.252> 0 34<212.612 437.392> 633 29<42.4037 113.252 211.748 282.596>
VStem: 119 87<44.2685 626.257>
LayerCount: 2
Back
Fore
SplineSet
206 116 m 2xb0
 206 101 206 49 212 44 c 0
 225 34 241 34 283 34 c 2
 283 34 340 34 340 34 c 2
 378 34 429 42 457 61 c 0
 482 78 504 109 520 162 c 0
 521 166 527 168 534 168 c 0
 544 168 556 165 559 162 c 1
 540 108 512 40 505 -4 c 1
 396 -4 297 0 164 0 c 0x70
 117 0 84 -3 45 -3 c 1
 40 2 41 21 45 26 c 1
 57 26 111 31 114 42 c 0
 119 58 119 86 119 116 c 2
 119 116 119 543 119 543 c 2
 119 573 119 601 114 617 c 0
 111 628 57 633 45 633 c 1
 41 638 40 657 45 662 c 1
 86 660 124 657 163 657 c 0
 202 657 239 660 280 662 c 1
 285 657 284 638 280 633 c 1
 268 633 214 628 211 617 c 0
 206 601 206 573 206 543 c 2
 206 543 206 116 206 116 c 2xb0
EndSplineSet
Validated: 513
EndChar
StartChar: M
Encoding: 44 77 44
Width: 907
Flags: W
HStem: -3 29<24.1812 102.346 171.148 249.653 632.181 698.416 803.076 873.36> 633 29<57.7476 121.145 787.912 853.014>
VStem: 119 45<37.5115 289.668> 133 44<371.361 583.939> 693 86<325.272 584.822> 708 81<37.202 383.21>
LayerCount: 2
Back
Fore
SplineSet
162 657 m 0xd0
 196 657 221 660 243 662 c 1
 263 599 384 324 455 146 c 0
 456 144 458 144 459 144 c 0
 460 144 463 145 464 148 c 0
 523 300 559 394 617 542 c 0
 635 588 661 662 661 662 c 1
 693 660 721 658 740 658 c 0
 775 658 827 660 852 662 c 1
 853 659 855 633 855 633 c 17
 841 633 789 625 784 615 c 0
 780 606 779 589 779 577 c 0xd8
 781 508 786 270 789 140 c 0
 790 101 792 67 801 43 c 0
 806 29 863 26 871 26 c 1
 876 17 874 0 873 -3 c 1
 833 -1 798 2 754 2 c 0
 708 2 680 -1 634 -3 c 1
 632 -1 630 18 634 26 c 1
 646 26 687 30 699 37 c 0
 706 41 708 65 708 79 c 0xc4
 708 93 706 122 706 137 c 0
 702 281 699 403 693 565 c 0
 693 569 691 585 684 585 c 0
 682 585 681 583 679 578 c 8
 597 372 545 242 468 49 c 0
 464 40 441 0 430 -2 c 0
 427 -3 424 -1 421 0 c 1
 421 0 177 584 177 584 c 1xd8
 173 366 164 85 164 75 c 0
 164 66 165 52 168 44 c 0
 174 29 239 26 247 26 c 1
 252 20 250 0 249 -3 c 1
 209 -1 187 2 143 2 c 0
 97 2 72 -1 26 -3 c 1
 24 -1 22 18 26 26 c 1
 38 26 98 31 107 44 c 0
 116 57 118 73 119 94 c 0xe0
 128 334 133 554 133 572 c 0
 133 586 133 601 129 612 c 0
 125 624 71 633 59 633 c 1
 57 633 57 660 59 662 c 1
 105 660 116 657 162 657 c 0xd0
EndSplineSet
Validated: 1
EndChar
StartChar: O
Encoding: 46 79 46
Width: 748
Flags: W
HStem: -10 34<312.807 466.307> 633 34<280.332 437.715>
VStem: 49 99<213.913 447.61> 600 99<209.584 443.622>
LayerCount: 2
Back
Fore
SplineSet
358 633 m 0
 208 633 148 484 148 350 c 0
 148 195 234 24 389 24 c 0
 539 24 600 174 600 309 c 0
 600 464 513 633 358 633 c 0
373 667 m 0
 549 667 699 527 699 328 c 0
 699 141 549 -10 373 -10 c 0
 197 -10 49 130 49 328 c 0
 49 515 197 667 373 667 c 0
EndSplineSet
Validated: 1
EndChar
StartChar: P
Encoding: 47 80 47
Width: 548
Flags: W
HStem: -3 29<42.4037 113.252 211.748 282.596> 278 28<251.776 345.657> 627 32<44.2859 115.468 211.209 339.676>
VStem: 119 87<32.7426 616.422> 426 92<383.77 555.24>
LayerCount: 2
Back
Fore
SplineSet
518 479 m 0
 518 357 429 278 298 278 c 0
 287 278 265 281 255 286 c 0
 252 288 241 296 241 308 c 0
 241 310 242 314 246 313 c 1
 257 310 269 306 284 306 c 0
 364 306 426 362 426 462 c 0
 426 561 372 627 261 627 c 0
 249 627 215 626 211 617 c 0
 206 605 206 572 206 542 c 2
 206 542 206 116 206 116 c 2
 206 86 206 58 211 42 c 0
 214 31 268 26 280 26 c 1
 284 21 285 2 280 -3 c 1
 239 -1 202 2 163 2 c 0
 124 2 86 -1 45 -3 c 1
 40 2 41 21 45 26 c 1
 57 26 111 31 114 42 c 0
 119 58 119 86 119 116 c 2
 119 116 119 543 119 543 c 2
 119 573 119 601 114 617 c 0
 111 628 57 633 45 633 c 1
 41 638 40 657 45 662 c 1
 86 660 124 657 163 657 c 0
 202 657 246 659 305 659 c 0
 411 659 518 595 518 479 c 0
EndSplineSet
Validated: 1
EndChar
StartChar: Q
Encoding: 48 81 48
Width: 747
Flags: W
HStem: -136 55<579.579 714.391> 633 34<280.332 437.715>
VStem: 49 99<215.297 447.61> 600 99<206.759 443.622>
LayerCount: 2
Back
Fore
SplineSet
358 633 m 0
 208 633 148 484 148 350 c 0
 148 195 234 24 389 24 c 0
 539 24 600 174 600 309 c 0
 600 464 513 633 358 633 c 0
373 667 m 0
 549 667 699 527 699 328 c 0
 699 175 599 46 466 4 c 1
 562 -42 582 -81 685 -81 c 0
 725 -81 749 -77 756 -75 c 1
 763 -75 771 -78 774 -82 c 0
 775 -83 775 -84 775 -85 c 1
 720 -114 670 -136 609 -136 c 0
 502 -136 423 -33 293 0 c 0
 154 35 49 161 49 328 c 0
 49 515 197 667 373 667 c 0
EndSplineSet
Validated: 1
EndChar
StartChar: R
Encoding: 49 82 49
Width: 621
Flags: W
HStem: -3 29<42.4037 113.252 211.748 282.596 586.565 646.782> 302 31<206 288.998> 627 32<44.2859 115.468 211.209 339.85>
VStem: 119 87<32.7426 302 333 616.422> 415 93<414.193 565.385>
LayerCount: 2
Back
Fore
SplineSet
305 659 m 0
 396 659 508 600 508 486 c 0
 508 414 439 344 372 321 c 1
 425 233 467 173 533 86 c 0
 562 48 591 30 646 26 c 1
 651 21 646 -1 645 -3 c 1
 578 -3 533 2 513 9 c 0
 499 14 472 22 448 53 c 0
 433 73 352 192 289 290 c 0
 283 299 273 302 259 302 c 0
 259 302 215 302 206 302 c 1
 206 302 206 116 206 116 c 1
 206 86 206 58 211 42 c 0
 214 31 268 26 280 26 c 1
 284 21 285 2 280 -3 c 1
 239 -1 202 2 163 2 c 0
 124 2 86 -1 45 -3 c 1
 40 2 41 21 45 26 c 1
 57 26 111 31 114 42 c 0
 119 58 119 86 119 116 c 2
 119 116 119 543 119 543 c 2
 119 573 119 601 114 617 c 0
 111 628 57 633 45 633 c 1
 41 638 40 657 45 662 c 1
 86 660 124 657 163 657 c 0
 202 657 246 659 305 659 c 0
415 477 m 0
 415 564 372 627 261 627 c 0
 249 627 215 626 211 617 c 0
 206 605 206 572 206 542 c 2
 206 542 206 333 206 333 c 1
 206 333 241 333 260 333 c 0
 338 333 415 389 415 477 c 0
EndSplineSet
Validated: 1
EndChar
StartChar: S
Encoding: 50 83 50
Width: 502
Flags: W
HStem: -10 34<181.241 314.943> 632 34<192.457 311.611>
VStem: 49 37<125.029 184.71> 65 80<454.853 571.394> 372 87<90.4983 213.651>
LayerCount: 2
Back
Fore
SplineSet
261 666 m 0xd8
 323 666 346 653 412 638 c 1
 420 586 424 523 426 496 c 0
 427 489 412 485 405 485 c 0
 402 485 397 486 394 489 c 1
 388 539 339 632 254 632 c 0
 172 632 145 569 145 521 c 0xd8
 145 441 219 408 285 366 c 0
 351 324 459 272 459 173 c 0
 459 63 357 -10 250 -10 c 0
 182 -10 119 9 70 19 c 1
 58 78 49 162 49 174 c 1
 55 180 66 186 75 186 c 0
 82 186 85 182 86 177 c 0xe8
 94 139 132 24 252 24 c 0
 317 24 372 68 372 146 c 0
 372 229 308 250 239 290 c 0
 162 335 65 389 65 490 c 0
 65 596 161 666 261 666 c 0xd8
EndSplineSet
Validated: 1
EndChar
StartChar: T
Encoding: 51 84 51
Width: 626
Flags: W
HStem: -3 29<193.404 264.252 362.748 433.596> 626 35<95.8184 270 357 528.71>
VStem: 12 33<499.771 557.091> 270 87<32.7426 626> 580 33<499.771 557.091>
LayerCount: 2
Back
Fore
SplineSet
508 661 m 0
 524 661 556 670 568 676 c 0
 578 681 581 681 587 678 c 1
 594 617 602 559 613 506 c 1
 610 503 603 498 594 499 c 0
 589 499 582 501 580 504 c 1
 566 574 534 626 484 626 c 2
 484 626 357 626 357 626 c 1
 357 626 357 116 357 116 c 2
 357 86 357 58 362 42 c 0
 365 31 419 26 431 26 c 1
 435 21 436 2 431 -3 c 1
 390 -1 353 2 314 2 c 0
 275 2 237 -1 196 -3 c 1
 191 2 192 21 196 26 c 1
 208 26 262 31 265 42 c 0
 270 58 270 86 270 116 c 2
 270 116 270 626 270 626 c 1
 270 626 141 626 141 626 c 2
 91 626 59 574 45 504 c 1
 43 501 36 499 31 499 c 0
 22 498 15 503 12 506 c 1
 23 559 31 617 38 678 c 1
 44 681 55 678 61 675 c 0
 73 669 101 661 117 661 c 0
 204 661 415 661 508 661 c 0
EndSplineSet
Validated: 1
EndChar
StartChar: U
Encoding: 52 85 52
Width: 723
Flags: W
HStem: -4 58<281.017 475.654> 633 29<26.4037 97.2515 195.748 266.596 485.409 554.262 631.763 705.988>
VStem: 103 87<158.21 626.257> 570 46<156.61 613.249>
LayerCount: 2
Back
Fore
SplineSet
147 657 m 0
 186 657 223 660 264 662 c 1
 269 657 268 638 264 633 c 1
 252 633 198 628 195 617 c 0
 190 601 190 573 190 543 c 2
 190 543 190 296 190 296 c 2
 190 213 207 152 239 112 c 0
 270 73 317 54 376 54 c 0
 479 54 567 102 570 274 c 2
 570 274 570 545 570 545 c 2
 570 581 570 598 560 614 c 0
 554 624 504 634 488 634 c 1
 483 641 484 657 486 663 c 1
 526 661 553 658 597 658 c 0
 643 658 658 661 704 663 c 1
 707 658 709 645 704 634 c 1
 692 634 633 626 626 614 c 0
 617 599 616 584 616 546 c 2
 616 546 616 276 616 276 c 2
 616 76 511 -4 355 -4 c 0
 283 -4 221 20 177 62 c 0
 131 106 103 171 103 251 c 2
 103 251 103 543 103 543 c 2
 103 573 103 601 98 617 c 0
 95 628 41 633 29 633 c 1
 25 638 24 657 29 662 c 1
 70 660 108 657 147 657 c 0
EndSplineSet
Validated: 1
EndChar
StartChar: V
Encoding: 53 86 53
Width: 638
Flags: W
HStem: -2 21G<302 310.5> 633 29<-7.25244 48.078 182.204 234.639 447.308 499.533 600.896 652.397>
LayerCount: 2
Back
Fore
SplineSet
110 657 m 0
 154 657 194 660 234 662 c 1
 236 656 236 634 232 633 c 1
 224 633 172 628 172 600 c 0
 172 590 177 566 189 532 c 0
 222 442 335 137 338 129 c 1
 344 142 438 369 498 523 c 16
 507 546 516 575 516 593 c 0
 516 625 462 632 450 632 c 1
 445 634 445 656 450 661 c 1
 487 659 517 657 554 657 c 0
 600 657 612 660 652 662 c 1
 655 657 653 633 650 633 c 1
 642 633 603 627 586 607 c 0
 574 593 551 544 536 506 c 0
 463 322 420 218 342 32 c 0
 331 5 317 -2 304 -2 c 0
 300 -2 296 10 294 14 c 0
 226 192 179 322 104 514 c 0
 89 553 75 584 58 610 c 0
 47 626 6 633 -6 633 c 1
 -8 633 -8 660 -6 662 c 1
 40 660 64 657 110 657 c 0
EndSplineSet
Validated: 1
EndChar
StartChar: W
Encoding: 54 87 54
Width: 900
Flags: W
HStem: -2 21G<258 266.5 620 628.5> 633 29<-5.25244 46.2641 174.204 226.788 699.074 754.21 857.325 904.577>
LayerCount: 2
Back
Fore
SplineSet
118 657 m 0
 162 657 186 660 226 662 c 1
 228 656 228 634 224 633 c 1
 216 633 164 628 164 600 c 1
 164 593 169 570 179 535 c 0
 202 452 253 290 295 148 c 1
 342 303 416 531 446 629 c 0
 452 648 471 662 482 662 c 0
 486 662 489 657 494 646 c 1
 501 624 586 350 653 151 c 1
 696 304 721 383 758 524 c 0
 764 548 770 576 770 594 c 0
 770 626 714 633 702 633 c 1
 697 635 697 657 702 662 c 1
 739 660 773 657 810 657 c 0
 856 657 864 660 904 662 c 1
 907 657 905 633 902 633 c 1
 894 633 859 624 839 607 c 0
 825 595 815 572 803 531 c 0
 748 342 713 211 660 32 c 0
 655 14 635 -2 622 -2 c 0
 618 -2 613 10 612 14 c 0
 555 199 448 508 448 508 c 1
 392 324 351 209 298 32 c 0
 293 14 273 -2 260 -2 c 0
 256 -2 251 10 250 14 c 0
 192 199 151 335 90 532 c 0
 78 572 73 595 54 613 c 0
 40 626 8 633 -4 633 c 1
 -6 633 -6 660 -4 662 c 1
 42 660 72 657 118 657 c 0
EndSplineSet
Validated: 1
EndChar
StartChar: X
Encoding: 55 88 55
Width: 668
Flags: W
HStem: -3 29<-7.95435 56.9492 154.295 228.378 416.188 467.693 601.241 669.049> 633 29<31.1875 86.7014 234.181 288.161 432.979 495.938 593.067 648.393>
LayerCount: 2
Back
Fore
SplineSet
159 657 m 0
 208 657 247 660 287 662 c 1
 289 656 290 633 285 633 c 0
 271 633 225 627 225 601 c 0
 225 593 229 583 237 571 c 2
 237 571 353 393 353 393 c 1
 413 473 474 550 499 590 c 0
 503 596 503 604 503 606 c 0
 503 615 492 632 436 632 c 1
 432 633 431 654 434 661 c 1
 474 658 500 656 537 656 c 0
 589 656 623 659 647 661 c 1
 650 656 651 638 645 632 c 1
 637 632 585 627 556 592 c 0
 479 500 444 456 372 360 c 1
 372 360 569 66 569 66 c 2
 588 37 634 26 667 26 c 1
 671 21 669 -1 668 -3 c 1
 628 -1 606 2 565 2 c 0
 509 2 475 -1 419 -3 c 1
 414 2 414 26 419 26 c 0
 430 26 477 35 477 54 c 0
 477 57 474 63 472 66 c 2
 472 66 320 301 320 301 c 1
 260 221 169 94 154 66 c 0
 153 63 149 56 149 50 c 0
 149 38 170 26 226 26 c 1
 230 20 230 0 228 -3 c 1
 191 -1 152 2 115 2 c 0
 63 2 32 -1 -8 -3 c 1
 -11 3 -8 23 -6 26 c 1
 2 26 73 34 101 70 c 0
 177 167 225 236 297 332 c 1
 258 392 156 548 156 548 c 2
 133 584 118 601 90 617 c 0
 73 627 46 633 34 633 c 0
 29 633 29 657 34 662 c 1
 83 660 110 657 159 657 c 0
EndSplineSet
Validated: 1
EndChar
StartChar: Y
Encoding: 56 89 56
Width: 598
Flags: W
HStem: -3 29<184.404 255.252 353.748 424.596> 633 29<-12.8125 42.7014 190.181 244.161 392.728 456.191 541.222 603.413>
VStem: 261 87<32.7426 320.855>
LayerCount: 2
Back
Fore
SplineSet
261 116 m 2
 261 116 261 267 261 267 c 0
 261 274 259 285 254 295 c 16
 196 400 171 442 112 548 c 0
 91 585 74 601 46 617 c 0
 29 627 2 633 -10 633 c 0
 -15 633 -15 657 -10 662 c 1
 39 660 66 657 115 657 c 0
 164 657 203 660 243 662 c 1
 245 656 246 633 241 633 c 0
 227 633 181 627 181 601 c 0
 181 593 185 584 193 571 c 2
 193 571 332 331 332 331 c 1
 381 419 447 554 462 590 c 0
 463 593 465 599 465 605 c 0
 465 615 451 632 395 632 c 1
 392 632 391 658 393 661 c 1
 430 659 456 656 493 656 c 0
 545 656 563 659 603 661 c 1
 605 655 604 632 601 632 c 1
 593 632 535 632 512 592 c 0
 474 525 397 381 354 301 c 8
 348 290 349 279 349 270 c 0
 349 210 348 116 348 116 c 2
 348 86 348 58 353 42 c 0
 356 31 410 26 422 26 c 1
 426 21 427 2 422 -3 c 1
 381 -1 344 2 305 2 c 0
 266 2 228 -1 187 -3 c 1
 182 2 183 21 187 26 c 1
 199 26 253 31 256 42 c 0
 261 58 261 86 261 116 c 2
EndSplineSet
Validated: 1
EndChar
StartChar: Z
Encoding: 57 90 57
Width: 633
Flags: W
HStem: 0 35<157 486.264> 626 35<153.755 459.953> 649 20G<73 86.5 520 564>
VStem: 43 37<491.927 543.908>
LayerCount: 2
Back
Fore
SplineSet
216 626 m 2xd0
 148 626 102 577 80 495 c 1
 78 492 74 491 69 491 c 0
 60 491 46 496 43 499 c 1
 60 545 70 601 76 669 c 1xb0
 97 666 131 661 158 661 c 0
 158 661 352 661 352 661 c 2xd0
 436 661 478 665 562 671 c 1
 566 670 580 657 580 649 c 1xb0
 578 641 157 35 157 35 c 25
 157 35 418 35 418 35 c 2
 461 35 490 50 511 71 c 0
 540 100 553 140 564 169 c 0
 565 171 573 172 578 172 c 0
 588 172 598 167 602 163 c 1
 578 84 566 51 554 0 c 1
 554 0 246 0 53 0 c 0
 42 0 31 8 35 14 c 2
 35 14 460 626 460 626 c 1
 460 626 216 626 216 626 c 2xd0
EndSplineSet
Validated: 1
EndChar
StartChar: bracketleft
Encoding: 58 91 58
Width: 259
Flags: W
HStem: -144 25<195.153 253.583> 699 25<195.153 253.583>
VStem: 79 48<-98.9827 678.983>
LayerCount: 2
Back
Fore
SplineSet
98 718 m 0
 180 718 251 724 251 724 c 1
 251 724 254 721 254 715 c 0
 254 709 250 701 244 699 c 0
 206 686 127 676 127 676 c 1
 127 676 127 -96 127 -96 c 1
 127 -96 206 -106 244 -119 c 0
 250 -121 254 -129 254 -135 c 0
 254 -141 251 -144 251 -144 c 1
 251 -144 180 -138 98 -138 c 0
 80 -138 79 -116 79 -115 c 2
 79 -115 79 695 79 695 c 2
 79 696 80 718 98 718 c 0
EndSplineSet
Validated: 1
EndChar
StartChar: backslash
Encoding: 59 92 59
Width: 401
Flags: W
VStem: 31 338
LayerCount: 2
Back
Fore
SplineSet
31 750 m 1
 34 755 44 757 51 757 c 0
 62 757 76 749 79 741 c 2
 79 741 369 -11 369 -17 c 1
 368 -21 358 -28 346 -28 c 0
 339 -28 328 -21 325 -14 c 0
 214 275 119 524 31 750 c 1
EndSplineSet
Validated: 1
EndChar
StartChar: bracketright
Encoding: 60 93 60
Width: 260
Flags: W
HStem: -144 25<6.41714 64.8474> 699 25<6.41714 64.8474>
VStem: 133 48<-98.9827 678.983>
LayerCount: 2
Back
Fore
SplineSet
162 718 m 0
 180 718 181 696 181 695 c 2
 181 695 181 -115 181 -115 c 2
 181 -116 180 -138 162 -138 c 0
 80 -138 9 -144 9 -144 c 1
 9 -144 6 -141 6 -135 c 0
 6 -129 10 -121 16 -119 c 0
 54 -106 133 -96 133 -96 c 1
 133 -96 133 676 133 676 c 1
 133 676 54 686 16 699 c 0
 10 701 6 709 6 715 c 0
 6 721 9 724 9 724 c 1
 9 724 80 718 162 718 c 0
EndSplineSet
Validated: 1
EndChar
StartChar: asciicircum
Encoding: 61 94 61
Width: 390
Flags: W
HStem: 423 222
VStem: 61 250
LayerCount: 2
Back
Fore
SplineSet
186 645 m 0
 191 645 198 640 202 632 c 0
 242 553 268 514 311 439 c 1
 311 429 302 423 296 423 c 1
 250 471 186 552 186 552 c 25
 186 552 123 471 77 423 c 1
 71 423 61 429 61 439 c 1
 104 514 131 553 171 632 c 0
 175 640 181 645 186 645 c 0
EndSplineSet
Validated: 1
EndChar
StartChar: underscore
Encoding: 62 95 62
Width: 505
Flags: W
HStem: -43 56<17.9907 476.32>
LayerCount: 2
Back
Fore
SplineSet
14 -33 m 1
 14 -33 19 13 29 13 c 2
 29 13 478 13 478 13 c 2
 480 13 482 12 482 8 c 0
 482 -1 478 -15 472 -37 c 0
 470 -43 466 -43 466 -43 c 1
 466 -43 21 -43 21 -43 c 1
 21 -43 14 -43 14 -33 c 1
EndSplineSet
Validated: 1
EndChar
StartChar: a
Encoding: 64 97 64
Width: 431
Flags: W
HStem: -8 54<138.481 211.996 323.5 388.237> 398 38<158.777 269.5>
VStem: 37 83<64.4927 166.568> 52 81<294.824 353.758> 274 76<67.9015 223 245.918 361.958>
LayerCount: 2
Back
Fore
SplineSet
187 46 m 0xe8
 222 46 274 77 274 87 c 2
 274 87 274 223 274 223 c 17
 247 215 199 201 181 194 c 0
 145 180 120 154 120 116 c 0
 120 79 149 46 187 46 c 0xe8
241 436 m 0
 298 436 350 376 350 299 c 2
 350 299 350 93 350 93 c 2
 350 66 358 46 381 46 c 0
 399 46 411 57 414 59 c 1
 417 59 418 54 418 51 c 0
 418 45 416 37 413 32 c 1
 401 21 359 -6 338 -6 c 0
 309 -6 283 28 277 59 c 1
 265 47 189 -8 154 -8 c 0
 88 -8 37 42 37 107 c 0xe8
 37 148 65 179 87 187 c 0
 143 207 233 237 262 250 c 0
 272 254 274 257 274 275 c 2
 274 275 274 302 274 302 c 2
 274 347 237 398 188 398 c 0
 153 398 140 375 133 336 c 0
 127 302 111 288 86 288 c 0
 65 288 52 310 52 330 c 0xd8
 52 334 55 349 59 354 c 1
 90 383 168 436 241 436 c 0
EndSplineSet
Validated: 1
EndChar
StartChar: b
Encoding: 65 98 65
Width: 498
Flags: W
HStem: -7 34<182.935 293.746> 379 5<154 227> 628 26<3.89859 61.8281> 674 20G<127 150.5>
VStem: 71 77<53.1875 351.859 383.777 621.593> 374 84<134.316 299.421>
LayerCount: 2
Back
Fore
SplineSet
211 -7 m 0
 196 -7 158 2 137 8 c 0
 122 12 107 17 92 17 c 0
 86 17 79 16 72 14 c 1
 67 14 59 31 59 36 c 1
 68 56 71 90 71 110 c 2
 71 110 71 558 71 558 c 2
 71 571 71 598 66 610 c 0
 60 624 33 628 5 628 c 1
 4 628 2 653 6 654 c 1
 56 659 106 675 148 694 c 1
 153 694 159 685 159 678 c 1
 159 678 148 646 148 591 c 2
 148 591 148 394 148 394 c 2
 148 389 148 379 154 384 c 0
 169 395 237 438 275 438 c 0
 395 438 458 324 458 233 c 0
 458 102 353 -7 211 -7 c 0
227 379 m 0
 201 379 162 361 153 352 c 0
 150 349 148 346 148 341 c 2
 148 341 148 98 148 98 c 2
 148 55 197 27 241 27 c 0
 313 27 374 113 374 194 c 0
 374 310 316 379 227 379 c 0
EndSplineSet
Validated: 1
EndChar
StartChar: c
Encoding: 66 99 66
Width: 423
Flags: W
HStem: -8 66<191.945 321.563> 394 44<193.28 290.075>
VStem: 39 78<132.251 288.818>
LayerCount: 2
Back
Fore
SplineSet
382 386 m 0
 382 350 361 338 344 338 c 1
 322 338 303 364 286 375 c 0
 265 389 255 394 229 394 c 0
 176 394 117 332 117 227 c 0
 117 110 189 58 279 58 c 0
 334 58 372 94 385 109 c 1
 386 109 393 103 393 95 c 0
 393 90 390 82 387 77 c 0
 369 48 319 -8 241 -8 c 0
 120 -8 39 90 39 194 c 0
 39 340 178 438 282 438 c 0
 317 438 348 430 372 414 c 1
 376 410 382 396 382 386 c 0
EndSplineSet
Validated: 1
EndChar
StartChar: d
Encoding: 67 100 67
Width: 515
Flags: W
HStem: -8 62<192.397 289.897> 20 27<438.72 496.784> 396 42<196.789 327.598> 628 26<283.899 341.828> 674 20G<407 430.5>
VStem: 39 84<130.201 291.813> 351 77<70.6579 374.572 428.007 621.593>
LayerCount: 2
Back
Fore
SplineSet
277 438 m 0xbe
 298 438 336 432 346 428 c 1
 350 428 351 437 351 449 c 2
 351 449 351 558 351 558 c 2
 351 572 351 598 346 610 c 0
 340 624 313 628 285 628 c 1
 284 628 282 653 286 654 c 1
 336 659 386 675 428 694 c 1
 433 694 439 685 439 678 c 1
 439 678 428 646 428 591 c 2
 428 591 428 163 428 163 c 2
 428 124 429 79 435 65 c 0
 443 47 491 48 494 47 c 0
 496 46 497 38 497 35 c 0
 497 33 494 20 489 20 c 0x7e
 437 17 360 -8 359 -8 c 0
 353 -8 351 4 351 11 c 2
 351 11 351 46 351 46 c 2
 351 51 350 54 348 52 c 0
 333 36 263 -8 215 -8 c 0
 124 -8 39 84 39 206 c 0
 39 337 187 438 277 438 c 0xbe
245 396 m 0
 169 396 123 314 123 230 c 0
 123 136 173 54 264 54 c 0xbe
 309 54 351 78 351 94 c 2
 351 94 351 347 351 347 c 2
 351 370 301 396 245 396 c 0
EndSplineSet
Validated: 1
EndChar
StartChar: e
Encoding: 68 101 68
Width: 430
Flags: W
HStem: -8 64<191.874 321.098> 248 37<116 301.718> 402 36<172.746 268.112>
VStem: 40 71<141.952 248 285 299.044> 302 85<285.425 371.236>
LayerCount: 2
Back
Fore
SplineSet
116 285 m 1
 125 285 269 285 279 285 c 0
 291 285 302 290 302 308 c 0
 302 337 281 402 220 402 c 0
 139 402 116 294 116 286 c 0
 116 285 116 285 116 285 c 1
111 248 m 1
 111 246 111 243 111 241 c 0
 111 118 188 56 274 56 c 0
 329 56 371 94 384 109 c 1
 385 109 392 103 392 95 c 0
 392 90 389 82 386 77 c 0
 368 48 318 -8 240 -8 c 0
 122 -8 40 82 40 200 c 0
 40 334 149 438 237 438 c 0
 357 438 387 342 387 302 c 0
 387 273 382 256 363 255 c 0
 332 253 123 248 111 248 c 1
EndSplineSet
Validated: 1
EndChar
StartChar: f
Encoding: 69 102 69
Width: 308
Flags: W
HStem: -3 29<25.4037 90.2898 178.736 247.596> 391 41<40.9629 96 173 294.375> 637 60<214.478 300.419>
VStem: 96 77<32.7426 391 432 545.43>
LayerCount: 2
Back
Fore
SplineSet
269 697 m 0
 299 697 301 695 316 685 c 1
 320 681 326 667 326 657 c 0
 326 621 299 617 286 617 c 0
 276 617 268 622 257 628 c 0
 246 634 241 637 228 637 c 0
 197 637 173 605 173 543 c 2
 173 543 173 432 173 432 c 1
 173 432 291 432 291 432 c 2
 296 432 296 427 296 421 c 0
 296 412 291 400 282 391 c 1
 282 391 173 391 173 391 c 1
 173 391 173 116 173 116 c 2
 173 86 173 58 178 42 c 0
 181 31 233 26 245 26 c 1
 249 21 250 2 245 -3 c 1
 204 -1 173 2 134 2 c 0
 95 2 69 -1 28 -3 c 1
 23 2 24 21 28 26 c 1
 40 26 88 31 91 42 c 0
 96 58 96 86 96 116 c 2
 96 116 96 391 96 391 c 1
 96 391 38 391 38 391 c 2
 35 391 33 397 33 400 c 0
 33 404 58 431 59 432 c 1
 59 432 96 432 96 432 c 1
 96 432 96 438 96 438 c 2
 96 583 208 697 269 697 c 0
EndSplineSet
Validated: 1
EndChar
StartChar: g
Encoding: 70 103 70
Width: 466
Flags: W
HStem: -227 39<156.933 296.835> -4 71<162.372 348.141> 137 30<177.303 264.226> 374 51<388.868 443.481> 409 30<171.516 260.162>
VStem: 23 79<-141.286 -60.5231> 50 77<74.2375 115.659 218.047 361.11> 308 77<216.006 366.022> 387 69<-103.007 -10>
LayerCount: 2
Back
Fore
SplineSet
215 409 m 27xeb80
 158 409 127 349 127 292 c 27
 127 231 162 167 223 167 c 27
 278 167 308 226 308 281 c 27
 308 343 277 409 215 409 c 27xeb80
255 -4 m 0
 237 -4 169 -5 162 -9 c 0
 139 -22 102 -50 102 -76 c 0xe580
 102 -141 151 -188 236 -188 c 0
 305 -188 387 -136 387 -81 c 0
 387 -52 350 -4 255 -4 c 0
301 67 m 0
 380 67 456 18 456 -38 c 0
 456 -120 335 -227 196 -227 c 0
 115 -227 23 -187 23 -105 c 0xf580
 23 -61 95 -18 129 -1 c 1
 94 10 47 42 47 92 c 1
 64 112 115 149 133 160 c 1
 84 187 50 239 50 288 c 0
 50 367 123 439 219 439 c 0xeb80
 262 439 292 424 310 417 c 0
 329 410 324 412 333 410 c 1
 333 410 440 425 440 425 c 1
 447 423 450 419 450 415 c 0
 450 407 437 380 427 374 c 1xf380
 402 375 361 378 361 378 c 2
 358 378 357 377 357 375 c 1
 362 370 385 330 385 284 c 0
 385 214 312 137 216 137 c 0
 199 137 170 142 160 146 c 1
 142 136 123 118 123 102 c 0
 123 92 143 67 183 67 c 0
 249 67 257 67 301 67 c 0
EndSplineSet
Validated: 1
EndChar
StartChar: h
Encoding: 71 104 71
Width: 516
Flags: W
HStem: -3 29<18.4037 83.2898 171.71 236.596 288.404 353.29 441.71 506.596> 380 58<240.761 327.184> 628 26<21.8986 79.8281> 674 20G<145 168.5>
VStem: 89 77<32.4189 347.537 363.001 621.593> 359 77<32.4189 346.845>
LayerCount: 2
Back
Fore
SplineSet
307 438 m 0
 415 438 436 371 436 226 c 2
 436 226 436 116 436 116 c 2
 436 86 436 58 441 42 c 0
 444 31 492 26 504 26 c 1
 508 21 509 2 504 -3 c 1
 463 -1 436 2 397 2 c 0
 358 2 332 -1 291 -3 c 1
 286 2 287 21 291 26 c 1
 303 26 351 31 354 42 c 0
 359 58 359 86 359 116 c 2
 359 116 359 216 359 216 c 2
 359 340 339 380 261 380 c 0
 224 380 166 334 166 325 c 2
 166 325 166 116 166 116 c 2
 166 86 166 58 171 42 c 0
 174 31 222 26 234 26 c 1
 238 21 239 2 234 -3 c 1
 193 -1 166 2 127 2 c 0
 88 2 62 -1 21 -3 c 1
 16 2 17 21 21 26 c 1
 33 26 81 31 84 42 c 0
 89 58 89 86 89 116 c 2
 89 116 89 558 89 558 c 2
 89 571 89 598 84 610 c 0
 78 624 51 628 23 628 c 1
 22 628 20 653 24 654 c 1
 74 659 124 675 166 694 c 1
 171 694 177 685 177 678 c 1
 177 678 166 646 166 591 c 2
 166 591 166 373 166 365 c 0
 166 364 167 363 169 363 c 0
 170 363 171 364 172 365 c 0
 192 387 259 438 307 438 c 0
EndSplineSet
Validated: 513
EndChar
StartChar: i
Encoding: 72 105 72
Width: 270
Flags: W
HStem: -3 29<33.4037 98.2898 186.71 251.596> 372 26<32.1812 93.4485> 420 20<157 179.5> 543 100<93.4375 176.562>
VStem: 85 100<551.438 634.562> 104 77<32.4189 365.708>
LayerCount: 2
Back
Fore
SplineSet
181 325 m 0
 181 325 181 116 181 116 c 2
 181 86 181 58 186 42 c 0
 189 31 237 26 249 26 c 1
 253 21 254 2 249 -3 c 1
 208 -1 181 2 142 2 c 0
 103 2 77 -1 36 -3 c 1
 31 2 32 21 36 26 c 1
 48 26 96 31 99 42 c 0
 104 58 104 86 104 116 c 2
 104 116 104 302 104 302 c 2
 104 315 104 342 99 354 c 0
 92 371 41 372 34 372 c 1
 32 374 30 393 34 398 c 1
 85 405 137 419 177 440 c 1
 182 440 188 429 188 424 c 1
 187 417 181 368 181 358 c 2
 181 358 181 325 181 325 c 0
EndSplineSet
Refer: 144 775 N 1 0 0 1 390 45 2
Validated: 513
EndChar
StartChar: j
Encoding: 73 106 73
Width: 239
Flags: W
HStem: 372 26<20.1812 81.4485> 420 20<145 167.5> 543 100<74.4375 157.562>
VStem: 66 100<551.438 634.562> 92 77<-68.5639 365.708>
LayerCount: 2
Back
Fore
SplineSet
92 45 m 2xe8
 92 45 92 302 92 302 c 2
 92 315 92 342 87 354 c 0
 80 371 29 372 22 372 c 1
 20 374 18 393 22 398 c 1
 73 405 125 419 165 440 c 1
 170 440 176 429 176 424 c 1
 175 417 169 371 169 358 c 2
 169 358 169 324 169 324 c 0
 169 324 169 68 169 68 c 1
 169 -124 64 -203 -4 -231 c 1
 -9 -228 -15 -221 -17 -216 c 0
 -18 -214 -18 -210 -17 -209 c 1
 40 -168 92 -121 92 45 c 2xe8
EndSplineSet
Refer: 144 775 N 1 0 0 1 371 45 2
Validated: 513
EndChar
StartChar: k
Encoding: 74 107 74
Width: 518
Flags: W
HStem: -3 29<18.4037 83.2898 171.71 236.596 441.499 512.505> 396 29<290.188 339.56 417.283 480.065> 628 26<21.8986 79.8281> 674 20G<145 168.5>
VStem: 89 77<32.4189 204 235 621.593>
LayerCount: 2
Back
Fore
SplineSet
166 116 m 2
 166 86 166 58 171 42 c 0
 174 31 222 26 234 26 c 1
 238 21 239 2 234 -3 c 1
 193 -1 166 2 127 2 c 0
 88 2 62 -1 21 -3 c 1
 16 2 17 21 21 26 c 1
 33 26 81 31 84 42 c 0
 89 58 89 86 89 116 c 2
 89 116 89 558 89 558 c 2
 89 572 89 598 84 610 c 0
 78 624 51 628 23 628 c 1
 22 628 20 653 24 654 c 1
 74 659 124 675 166 694 c 1
 171 694 177 685 177 678 c 1
 177 678 166 646 166 591 c 2
 166 591 166 235 166 235 c 1
 183 241 214 267 248 296 c 0
 300 340 340 369 340 379 c 0
 340 394 301 395 292 396 c 1
 287 403 289 423 294 425 c 1
 323 422 358 420 390 420 c 0
 424 420 456 422 478 425 c 1
 482 419 481 400 478 396 c 1
 464 396 422 388 401 373 c 0
 390 365 298 299 239 249 c 1
 314 168 395 73 419 53 c 0
 445 32 483 26 511 26 c 1
 513 23 515 7 512 2 c 1
 505 -1 474 -4 447 -4 c 0
 388 -4 339 24 324 40 c 2
 324 40 238 133 181 195 c 0
 177 200 166 204 166 204 c 1
 166 204 166 116 166 116 c 2
EndSplineSet
Validated: 1
EndChar
StartChar: l
Encoding: 75 108 75
Width: 255
Flags: W
HStem: -3 29<18.4037 83.2898 171.71 236.596> 628 26<21.8986 79.8281> 674 20G<145 168.5>
VStem: 89 77<32.4189 621.593>
LayerCount: 2
Back
Fore
SplineSet
89 558 m 2
 89 572 89 598 84 610 c 0
 78 624 51 628 23 628 c 1
 22 628 20 653 24 654 c 1
 74 659 124 675 166 694 c 1
 171 694 177 685 177 678 c 1
 177 678 166 646 166 591 c 2
 166 591 166 116 166 116 c 2
 166 86 166 58 171 42 c 0
 174 31 222 26 234 26 c 1
 238 21 239 2 234 -3 c 1
 193 -1 166 2 127 2 c 0
 88 2 62 -1 21 -3 c 1
 16 2 17 21 21 26 c 1
 33 26 81 31 84 42 c 0
 89 58 89 86 89 116 c 2
 89 116 89 558 89 558 c 2
EndSplineSet
Validated: 513
EndChar
StartChar: m
Encoding: 76 109 76
Width: 790
Flags: W
HStem: -3 29<33.4037 98.2898 186.71 251.596 297.404 362.29 450.71 515.596 561.404 626.29 714.71 779.596> 372 26<32.1812 93.4485> 380 58<248.714 337.397 512.548 600.39>
VStem: 104 77<32.4189 351.536> 368 77<32.4189 347.073> 632 77<32.4189 348.119>
CounterMasks: 1 1c
LayerCount: 2
Back
Fore
SplineSet
319 438 m 0xbc
 378 438 417 415 433 355 c 1
 477 395 532 438 580 438 c 0
 688 438 709 371 709 226 c 2
 709 226 709 116 709 116 c 2
 709 86 709 58 714 42 c 0
 717 31 765 26 777 26 c 1
 781 21 782 2 777 -3 c 1
 736 -1 709 2 670 2 c 0
 631 2 605 -1 564 -3 c 1
 559 2 560 21 564 26 c 1
 576 26 624 31 627 42 c 0
 632 58 632 86 632 116 c 2
 632 116 632 223 632 223 c 2
 632 322 619 380 538 380 c 0
 489 380 440 330 440 323 c 0
 440 322 441 312 441 310 c 0
 444 291 445 257 445 239 c 2
 445 239 445 116 445 116 c 2
 445 86 445 58 450 42 c 0
 453 31 501 26 513 26 c 1
 517 21 518 2 513 -3 c 1
 472 -1 445 2 406 2 c 0
 367 2 341 -1 300 -3 c 1
 295 2 296 21 300 26 c 1
 312 26 360 31 363 42 c 0
 368 58 368 86 368 116 c 2
 368 116 368 218 368 218 c 2
 368 340 346 380 274 380 c 0xbc
 229 380 181 338 181 325 c 2
 181 325 181 116 181 116 c 2
 181 86 181 58 186 42 c 0
 189 31 237 26 249 26 c 1
 253 21 254 2 249 -3 c 1
 208 -1 181 2 142 2 c 0
 103 2 77 -1 36 -3 c 1
 31 2 32 21 36 26 c 1
 48 26 96 31 99 42 c 0
 104 58 104 86 104 116 c 2
 104 116 104 298 104 298 c 2
 104 311 104 342 99 354 c 0
 92 371 41 372 34 372 c 1
 32 374 30 393 34 398 c 1
 85 405 137 419 177 440 c 1
 182 440 188 429 188 424 c 1
 187 417 182 380 182 372 c 0xdc
 182 371 182 368 184 368 c 0
 185 368 186 369 187 370 c 0
 212 391 265 438 319 438 c 0xbc
EndSplineSet
Validated: 1
EndChar
StartChar: n
Encoding: 77 110 77
Width: 532
Flags: W
HStem: -3 29<33.4037 98.2898 186.71 251.596 303.404 368.29 456.71 521.596> 372 26<32.1812 93.4485> 380 58<255.761 342.184>
VStem: 104 77<32.4189 347.537> 374 77<32.4189 346.845>
LayerCount: 2
Back
Fore
SplineSet
322 438 m 0xb8
 430 438 451 371 451 226 c 2
 451 226 451 116 451 116 c 2
 451 86 451 58 456 42 c 0
 459 31 507 26 519 26 c 1
 523 21 524 2 519 -3 c 1
 478 -1 451 2 412 2 c 0
 373 2 347 -1 306 -3 c 1
 301 2 302 21 306 26 c 1
 318 26 366 31 369 42 c 0
 374 58 374 86 374 116 c 2
 374 116 374 216 374 216 c 2
 374 340 354 380 276 380 c 0xb8
 239 380 181 334 181 325 c 2
 181 325 181 116 181 116 c 2
 181 86 181 58 186 42 c 0
 189 31 237 26 249 26 c 1
 253 21 254 2 249 -3 c 1
 208 -1 181 2 142 2 c 0
 103 2 77 -1 36 -3 c 1
 31 2 32 21 36 26 c 1
 48 26 96 31 99 42 c 0
 104 58 104 86 104 116 c 2
 104 116 104 298 104 298 c 2
 104 311 104 342 99 354 c 0
 92 371 41 372 34 372 c 1
 32 374 30 393 34 398 c 1xd8
 85 405 137 419 177 440 c 1
 182 440 188 429 188 424 c 1
 187 417 182 375 182 367 c 0
 182 366 182 363 184 363 c 0
 185 363 186 364 187 365 c 0
 207 387 274 438 322 438 c 0xb8
EndSplineSet
Validated: 1
EndChar
StartChar: o
Encoding: 78 111 78
Width: 509
Flags: W
HStem: -7 33<213.699 320.24> 406 33<189.214 295.584>
VStem: 41 86<120.834 313.837> 382 86<116.337 309.213>
LayerCount: 2
Back
Fore
SplineSet
243 406 m 0
 158 406 127 319 127 233 c 0
 127 136 176 26 266 26 c 0
 351 26 382 113 382 198 c 0
 382 295 332 406 243 406 c 0
254 439 m 0
 386 439 468 346 468 221 c 0
 468 92 377 -7 256 -7 c 0
 124 -7 41 88 41 213 c 0
 41 342 133 439 254 439 c 0
EndSplineSet
Validated: 1
EndChar
StartChar: p
Encoding: 79 112 79
Width: 510
Flags: W
HStem: -226 29<15.4037 80.2898 168.71 233.596> -8 35<196.172 312.721> 372 26<14.1812 75.4485> 379 59<220.78 316.97>
VStem: 86 77<-190.581 2.99635 52.6571 362.458> 387 84<139.167 301.166>
LayerCount: 2
Back
Fore
SplineSet
290 438 m 0xdc
 414 438 471 318 471 232 c 0
 471 103 350 -8 237 -8 c 0
 211 -8 183 -2 167 3 c 1
 167 3 163 -2 163 -10 c 2
 163 -10 163 -107 163 -107 c 2
 163 -137 163 -165 168 -181 c 0
 171 -192 219 -197 231 -197 c 1
 235 -202 236 -221 231 -226 c 1
 190 -224 163 -221 124 -221 c 0
 85 -221 59 -224 18 -226 c 1
 13 -221 14 -202 18 -197 c 1
 30 -197 78 -192 81 -181 c 0
 86 -165 86 -137 86 -107 c 2
 86 -107 86 302 86 302 c 2
 86 315 86 342 81 354 c 0
 74 371 23 372 16 372 c 1
 14 374 12 393 16 398 c 1xec
 67 405 119 419 159 440 c 1
 164 440 170 429 170 424 c 1
 169 417 163 391 163 383 c 0
 163 382 163 379 165 379 c 0
 166 379 167 380 168 381 c 0
 193 402 250 438 290 438 c 0xdc
247 379 m 0xdc
 206 379 163 354 163 340 c 2
 163 340 163 100 163 100 c 2
 163 48 221 27 256 27 c 0
 339 27 387 114 387 195 c 0
 387 314 323 379 247 379 c 0xdc
EndSplineSet
Validated: 1
EndChar
StartChar: q
Encoding: 80 113 80
Width: 497
Flags: W
HStem: -227 29<278.404 343.29 431.71 496.596> -7 60<194.146 287.669> 402 36<206.474 316.856>
VStem: 39 84<129.217 289.501> 349 77<-191.581 50.178 68.9193 376.812>
LayerCount: 2
Back
Fore
SplineSet
256 402 m 0
 162 402 123 296 123 235 c 0
 123 117 186 53 269 53 c 0
 309 53 349 78 349 93 c 2
 349 93 349 332 349 332 c 2
 349 375 300 402 256 402 c 0
286 438 m 0
 316 438 372 413 405 413 c 0
 411 413 419 414 425 416 c 1
 431 416 438 399 438 394 c 1
 429 374 426 340 426 320 c 2
 426 320 426 -108 426 -108 c 2
 426 -138 426 -166 431 -182 c 0
 434 -193 482 -198 494 -198 c 1
 498 -203 499 -222 494 -227 c 1
 453 -225 426 -222 387 -222 c 0
 348 -222 322 -225 281 -227 c 1
 276 -222 277 -203 281 -198 c 1
 293 -198 341 -193 344 -182 c 0
 349 -166 349 -138 349 -108 c 2
 349 -108 349 40 349 40 c 2
 349 45 347 54 342 50 c 0
 327 37 260 -7 217 -7 c 0
 102 -7 39 110 39 199 c 0
 39 336 179 438 286 438 c 0
EndSplineSet
Validated: 1
EndChar
StartChar: r
Encoding: 81 114 81
Width: 383
Flags: W
HStem: -3 29<33.4037 98.2898 186.857 274.596> 360 77<252.089 312.624> 372 26<32.1812 93.4485>
VStem: 104 77<33.7634 321.777 329.953 365.708>
LayerCount: 2
Back
Fore
SplineSet
303 437 m 0xd0
 329 437 355 424 364 408 c 1
 366 402 368 392 368 381 c 0
 368 344 345 329 335 329 c 0
 321 329 309 341 298 348 c 0
 289 354 279 360 261 360 c 0xd0
 218 360 181 293 181 270 c 2
 181 270 181 116 181 116 c 2
 181 86 181 58 186 42 c 0
 189 31 260 26 272 26 c 1
 276 21 277 2 272 -3 c 1
 231 -1 187 2 148 2 c 0
 109 2 77 -1 36 -3 c 1
 31 2 32 21 36 26 c 1
 48 26 96 31 99 42 c 0
 104 58 104 86 104 116 c 2
 104 116 104 302 104 302 c 2
 104 315 104 342 99 354 c 0
 92 371 41 372 34 372 c 1
 32 374 30 393 34 398 c 1xb0
 85 405 137 419 177 440 c 1
 182 440 188 429 188 424 c 1
 187 417 181 343 181 332 c 0
 181 328 184 329 185 330 c 0
 205 373 258 437 303 437 c 0xd0
EndSplineSet
Validated: 1
EndChar
StartChar: s
Encoding: 82 115 82
Width: 369
Flags: W
HStem: -11 32<127.723 223.223> 406 31<147.772 235.89>
VStem: 41 27<85.9752 117.421> 50 77<291.129 381.207> 248 81<55.287 144.678> 282 27<309.164 347.416>
LayerCount: 2
Back
Fore
SplineSet
195 437 m 0xd8
 234 437 253 429 297 424 c 1
 304 393 308 350 309 314 c 0
 309 310 304 309 299 309 c 0
 294 309 287 310 282 314 c 1
 272 351 241 406 198 406 c 0
 150 406 127 379 127 343 c 0xd4
 127 291 169 276 214 249 c 0
 259 222 329 190 329 127 c 0
 329 46 256 -11 175 -11 c 0
 129 -11 102 0 58 8 c 1
 50 29 41 86 41 112 c 1
 45 115 54 118 59 118 c 0
 62 118 65 118 68 116 c 1xe8
 80 74 123 21 176 21 c 0
 217 21 248 47 248 93 c 0
 248 154 184 174 126 208 c 0
 86 231 50 262 50 315 c 0
 50 389 121 437 195 437 c 0xd8
EndSplineSet
Validated: 1
EndChar
StartChar: t
Encoding: 83 116 83
Width: 311
Flags: W
HStem: -7 54<176.456 252.292> 391 41<27.9629 83 160 292.375>
VStem: 83 77<62.1149 391 432 519.684>
LayerCount: 2
Back
Fore
SplineSet
160 432 m 1
 160 432 289 432 289 432 c 2
 294 432 294 427 294 421 c 0
 294 412 289 400 280 391 c 1
 280 391 160 391 160 391 c 1
 160 391 160 129 160 129 c 2
 160 76 182 47 226 47 c 0
 256 47 284 65 291 70 c 1
 293 69 294 66 294 63 c 0
 294 57 291 49 290 48 c 0
 276 32 236 -7 187 -7 c 0
 136 -7 83 15 83 101 c 2
 83 101 83 391 83 391 c 1
 83 391 25 391 25 391 c 2
 22 391 20 397 20 400 c 0
 20 404 45 431 46 432 c 1
 62 432 72 432 83 432 c 1
 83 443 83 487 83 495 c 1
 102 517 142 559 144 562 c 1
 149 567 160 567 160 563 c 2
 160 563 160 432 160 432 c 1
EndSplineSet
Validated: 1
EndChar
StartChar: u
Encoding: 84 117 84
Width: 515
Flags: W
HStem: -7 56<195.956 286.265> 20 27<437.72 495.58> 394 26<14.7989 66.4209 283.799 335.421> 420 20G<136 156.5 405 425.5>
VStem: 81 77<92.1211 386.167> 350 77<73.0835 386.167>
LayerCount: 2
Back
Fore
SplineSet
350 320 m 2x9c
 350 333 350 359 342 374 c 0
 332 392 299 394 286 394 c 1
 283 397 282 415 286 420 c 1xac
 337 422 387 429 423 440 c 1
 428 440 434 421 434 416 c 1
 430 408 427 380 427 351 c 2
 427 351 427 305 427 305 c 0
 427 305 427 141 427 141 c 2
 427 130 428 93 434 65 c 0
 439 46 490 48 493 47 c 0
 495 46 496 39 496 36 c 0
 496 34 493 20 488 20 c 0x5c
 436 17 359 -8 358 -8 c 0
 353 -8 350 1 350 8 c 2
 350 8 350 54 350 54 c 2
 350 59 348 59 348 59 c 1
 320 29 257 -7 206 -7 c 0
 100 -7 81 108 81 192 c 2
 81 192 81 320 81 320 c 2
 81 333 81 359 73 374 c 0
 63 392 30 394 17 394 c 1
 14 397 13 415 17 420 c 1xac
 68 422 118 429 154 440 c 1
 159 440 165 425 165 420 c 1
 161 412 158 380 158 351 c 2
 158 351 158 308 158 308 c 0
 158 308 158 204 158 204 c 2
 158 98 188 49 258 49 c 0
 302 49 350 80 350 104 c 2
 350 104 350 320 350 320 c 2x9c
EndSplineSet
Validated: 513
EndChar
StartChar: v
Encoding: 85 118 85
Width: 473
Flags: W
HStem: -11 21G<227 232> 401 29<0.308105 53.2112 149.473 201.887 294.188 347.061 422.157 471.647>
LayerCount: 2
Back
Fore
SplineSet
102 425 m 0
 140 425 162 428 202 430 c 1
 204 424 203 401 198 401 c 1
 191 401 149 399 149 384 c 0
 149 383 149 382 150 380 c 0
 150 380 260 110 260 110 c 1
 260 110 311 243 349 337 c 0
 354 349 355 362 355 369 c 0
 355 389 331 401 297 401 c 1
 292 401 292 425 297 430 c 1
 328 428 337 425 378 425 c 0
 416 425 431 428 471 430 c 1
 475 424 472 401 468 401 c 1
 460 401 417 395 405 367 c 0
 346 226 313 148 255 6 c 0
 252 -2 235 -11 229 -11 c 0
 225 -11 221 -9 220 -7 c 0
 155 147 109 266 57 381 c 0
 48 401 14 401 2 401 c 1
 0 406 -2 420 2 430 c 1
 43 428 61 425 102 425 c 0
EndSplineSet
Validated: 1
EndChar
StartChar: w
Encoding: 86 119 86
Width: 721
Flags: W
HStem: -11 21G<225 232.5 480 486> 401 29<0.244385 50.9044 151.786 201.716 267.074 310.057 419.353 466.307 538.229 593.354 668.478 720.257>
VStem: 338 76<305.286 379.109>
LayerCount: 2
Back
Fore
SplineSet
101 425 m 0
 139 425 161 428 201 430 c 1
 203 424 203 403 199 401 c 1
 191 401 149 399 149 378 c 0
 149 377 151 372 154 363 c 0
 166 331 201 249 257 117 c 1
 308 246 338 318 338 327 c 0
 338 334 327 363 314 382 c 0
 303 398 282 401 270 401 c 1
 265 404 265 425 270 430 c 1
 311 428 320 425 361 425 c 0
 399 425 425 428 465 430 c 1
 467 424 468 405 464 401 c 1
 433 401 414 393 414 369 c 0
 414 366 415 363 417 358 c 0
 425 331 453 262 508 120 c 1
 547 217 581 302 596 344 c 0
 600 355 601 364 601 368 c 0
 601 397 564 399 541 401 c 1
 537 404 536 425 541 430 c 1
 582 428 587 425 628 425 c 0
 666 425 680 428 720 430 c 1
 721 427 723 406 717 401 c 1
 709 401 661 395 649 365 c 0
 594 226 562 145 504 6 c 0
 501 -2 489 -11 483 -11 c 0
 477 -11 472 -9 471 -7 c 2
 471 -7 360 282 360 282 c 1
 360 282 252 8 252 8 c 2
 251 5 238 -11 227 -11 c 0
 223 -11 219 -9 218 -7 c 0
 156 148 122 230 56 379 c 0
 47 400 14 401 2 401 c 1
 -1 407 -1 424 2 430 c 1
 43 428 60 425 101 425 c 0
EndSplineSet
Validated: 1
EndChar
StartChar: x
Encoding: 87 120 87
Width: 476
Flags: W
HStem: -3 29<10.8831 76.2715 148.187 202.125 260.633 304.05 413.024 468.774> 401 29<22.2969 82.3207 182.273 224.653 266.46 322.759 380.245 449>
LayerCount: 2
Back
Fore
SplineSet
123 425 m 0
 164 425 202 428 224 430 c 1
 225 426 227 407 222 401 c 1
 206 401 182 399 182 384 c 0
 182 381 184 377 187 372 c 2
 187 372 253 267 253 267 c 1
 280 309 324 362 324 382 c 0
 324 402 274 400 268 401 c 1
 266 402 265 426 268 430 c 1
 309 428 328 425 369 425 c 0
 405 425 435 428 449 430 c 1
 450 425 450 401 448 401 c 1
 429 400 384 396 371 379 c 0
 335 329 280 251 271 240 c 1
 281 225 391 62 391 62 c 2
 411 33 439 26 468 26 c 1
 470 26 470 1 467 -3 c 1
 430 -1 410 2 373 2 c 0
 330 2 305 -1 262 -3 c 1
 259 4 260 26 263 26 c 1
 277 27 305 32 305 44 c 0
 305 46 304 48 303 50 c 2
 303 50 251 135 224 175 c 1
 205 146 180 111 152 67 c 0
 147 59 146 53 146 48 c 0
 146 29 178 28 201 26 c 1
 203 26 204 2 200 -3 c 1
 161 -1 144 2 105 2 c 0
 67 2 49 -1 11 -3 c 1
 9 5 10 21 13 26 c 1
 45 31 85 34 108 65 c 2
 108 65 201 199 206 206 c 1
 198 218 90 379 90 379 c 2
 79 396 43 401 23 401 c 1
 21 401 21 424 24 430 c 1
 57 427 84 425 123 425 c 0
EndSplineSet
Validated: 1
EndChar
StartChar: y
Encoding: 88 121 88
Width: 469
Flags: W
HStem: -228 72<43.7208 134.001> 401 29<0.747559 52.2444 148.485 201.887 289.188 342.061 417.369 467.352>
LayerCount: 2
Back
Fore
SplineSet
102 425 m 0
 140 425 185 428 202 430 c 1
 204 424 203 401 198 401 c 1
 191 401 148 399 148 384 c 0
 148 383 149 382 150 380 c 0
 150 380 256 110 256 110 c 1
 256 110 306 243 344 337 c 0
 349 349 350 362 350 369 c 0
 350 389 326 401 292 401 c 1
 287 401 287 425 292 430 c 1
 307 428 341 425 382 425 c 0
 420 425 446 428 466 430 c 1
 470 424 468 401 464 401 c 1
 456 401 412 395 400 367 c 0
 341 226 308 148 250 6 c 0
 225 -55 207 -119 171 -172 c 0
 148 -206 117 -228 84 -228 c 0
 65 -228 40 -221 40 -185 c 0
 40 -173 47 -162 52 -156 c 1
 99 -156 126 -153 166 -99 c 0
 182 -78 211 -9 214 2 c 1
 158 145 114 252 56 381 c 0
 47 401 14 401 2 401 c 1
 0 401 0 428 2 430 c 1
 21 428 61 425 102 425 c 0
EndSplineSet
Validated: 1
EndChar
StartChar: z
Encoding: 89 122 89
Width: 447
Flags: W
HStem: 0 35<136 334.447> 397 34<106.374 290.509> 419 20G<57.5 148 377.5 400.5>
VStem: 386 33<89.5612 128.954>
LayerCount: 2
Back
Fore
SplineSet
148 431 m 2xd0
 148 431 276 431 276 431 c 2xd0
 330 431 357 434 398 439 c 1xb0
 403 431 401 420 401 415 c 1
 401 415 136 38 136 35 c 1
 136 35 276 35 276 35 c 2
 337 35 374 82 386 125 c 0
 387 130 389 131 393 131 c 0
 401 131 414 125 419 119 c 1
 419 119 389 46 374 0 c 1
 316 0 180 0 49 0 c 1
 42 2 34 12 34 20 c 0
 34 21 34 26 35 27 c 2
 35 27 292 396 292 396 c 1
 292 396 152 397 152 397 c 2xd0
 95 397 84 345 76 327 c 0
 74 323 64 318 54 318 c 0
 48 318 43 319 43 321 c 1
 47 336 56 386 59 439 c 1xb0
 59 439 112 431 148 431 c 2xd0
EndSplineSet
Validated: 1
EndChar
StartChar: braceleft
Encoding: 90 123 90
Width: 222
Flags: W
VStem: 58 44<-56.6142 70.4159 505.584 632.614> 104 46<119.735 242.755 333.245 456.265>
LayerCount: 2
Back
Fore
SplineSet
104 383 m 0
 104 409 92 433 81 458 c 0
 69 484 58 510 58 541 c 0
 58 638 122 703 165 720 c 1
 173 720 181 710 181 701 c 1
 154 688 102 640 102 589 c 0
 102 551 115 526 127 498 c 0
 139 473 150 445 150 405 c 0
 150 340 103 298 77 288 c 1
 103 278 150 236 150 171 c 0
 150 131 139 103 127 78 c 0
 115 50 102 25 102 -13 c 0
 102 -64 154 -112 181 -125 c 1
 181 -134 173 -144 165 -144 c 1
 122 -127 58 -62 58 35 c 0
 58 66 69 92 81 118 c 0
 92 143 104 167 104 193 c 0
 104 246 67 267 28 277 c 1
 26 279 26 284 26 288 c 0
 26 292 26 297 28 299 c 1
 67 309 104 330 104 383 c 0
EndSplineSet
Validated: 1
EndChar
StartChar: bar
Encoding: 91 124 91
Width: 205
Flags: W
VStem: 77 51<-117.404 764.903>
LayerCount: 2
Back
Fore
SplineSet
128 -106 m 2
 128 -114 84 -123 82 -123 c 0
 75 -123 77 -119 77 -115 c 2
 77 -115 77 757 77 757 c 1
 77 757 76 763 82 765 c 0
 99 770 116 772 119 772 c 0
 128 772 127 766 127 766 c 1
 127 766 128 -106 128 -106 c 2
EndSplineSet
Validated: 1
EndChar
StartChar: braceright
Encoding: 92 125 92
Width: 223
Flags: W
VStem: 72 46<119.735 242.755 333.245 456.265> 120 44<-56.6142 70.4159 505.584 632.614>
LayerCount: 2
Back
Fore
SplineSet
57 720 m 1
 100 703 164 638 164 541 c 0
 164 510 153 484 141 458 c 0
 130 433 118 409 118 383 c 0
 118 330 155 309 194 299 c 1
 195 297 196 292 196 288 c 0
 196 283 196 280 194 277 c 1
 155 267 118 246 118 193 c 0
 118 167 130 143 141 118 c 0
 153 92 164 66 164 35 c 0
 164 -62 100 -127 57 -144 c 1
 49 -144 41 -134 41 -125 c 1
 68 -112 120 -64 120 -13 c 0
 120 25 107 50 95 78 c 0
 83 103 72 131 72 171 c 0
 72 236 119 278 145 288 c 1
 119 298 72 340 72 405 c 0
 72 445 83 473 95 498 c 0
 107 526 120 551 120 589 c 0
 120 640 68 688 41 701 c 1
 41 710 49 720 57 720 c 1
EndSplineSet
Validated: 1
EndChar
StartChar: asciitilde
Encoding: 93 126 93
Width: 570
Flags: W
HStem: 250 51<314.795 473.297> 303 51<106.163 260.768>
LayerCount: 2
Back
Fore
SplineSet
271 277 m 0
 236 290 201 303 156 303 c 0
 117 303 89 281 65 259 c 1
 59 262 56 268 56 276 c 0
 56 313 133 354 186 354 c 0
 233 354 269 340 305 327 c 0
 340 314 375 301 422 301 c 0
 461 301 483 322 512 345 c 1
 518 342 521 336 521 328 c 0
 521 295 455 250 393 250 c 0
 344 250 308 263 271 277 c 0
EndSplineSet
Validated: 1
EndChar
StartChar: exclamdown
Encoding: 95 161 95
Width: 215
Flags: W
HStem: 320 110<64.4629 150.77>
VStem: 53 110<331.463 417.77> 59 94<-213.2 91.9102>
LayerCount: 2
Back
Fore
SplineSet
53 374 m 0xc0
 53 404 77 430 107 430 c 0
 137 430 163 404 163 374 c 0
 163 344 137 320 107 320 c 0
 77 320 53 344 53 374 c 0xc0
103 -223 m 0
 72 -223 59 -191 59 -165 c 0
 59 -137 72 -3 93 247 c 1
 97 255 100 259 109 260 c 1
 114 258 120 255 123 249 c 1
 137 88 153 -114 153 -165 c 0xa0
 153 -193 135 -223 103 -223 c 0
EndSplineSet
Validated: 1
EndChar
StartChar: cent
Encoding: 96 162 96
Width: 446
Flags: W
HStem: -8 66<197.945 327.563> 394 44<199.28 296.075>
VStem: 45 78<132.251 288.818> 189 28<-43.416 -0.869301> 272 28<427.956 470.975>
LayerCount: 2
Back
Fore
SplineSet
272 472 m 17
 280 472 300 473 300 466 c 1
 300 466 217 -45 217 -45 c 1
 208 -45 189 -45 189 -38 c 9
 189 -38 272 472 272 472 c 17
EndSplineSet
Refer: 66 99 N 1 0 0 1 6 0 2
Validated: 5
EndChar
StartChar: sterling
Encoding: 97 163 97
Width: 477
UnlinkRmOvrlpSave: 1
Flags: W
HStem: -8 66<237.736 360.199> 49 56<99.375 178.889> 306 36<67.469 378.738> 590 46<236.671 331.5>
VStem: 125 77<344.61 509.144> 148 75<188.868 347.673> 427 13<127.679 134.817>
LayerCount: 2
Back
Fore
SplineSet
314 636 m 0x7a
 349 636 362 628 386 612 c 1
 390 608 396 594 396 584 c 0
 396 548 375 536 358 536 c 1
 336 536 320 559 305 573 c 0
 290 587 283 590 270 590 c 0
 218 590 202 528 202 459 c 0x7a
 202 385 223 328 223 272 c 0
 223 197 159 120 134 97 c 1
 148 104 158 105 169 105 c 0x76
 224 105 238 58 327 58 c 0
 382 58 418 121 427 139 c 1
 428 139 440 131 440 123 c 0
 440 119 439 114 437 108 c 0
 426 76 369 -8 291 -8 c 0xb6
 206 -8 168 49 116 49 c 0
 85 49 77 10 60 -6 c 1
 52 -6 44 7 44 16 c 0
 44 45 79 79 94 94 c 0
 122 122 148 182 148 231 c 0x76
 148 252 126 367 125 399 c 0
 121 535 220 636 314 636 c 0x7a
78 342 m 1
 94 342 370 342 381 342 c 1
 395 331 378 310 372 306 c 1
 55 306 l 17
 49 312 69 342 78 342 c 1
EndSplineSet
EndChar
StartChar: currency
Encoding: 98 164 98
Width: 574
Flags: W
HStem: 120 32<245.525 340.572> 463 33<230.384 325.636>
VStem: 102 73<224.803 397.542> 395 72<218.015 391.134>
LayerCount: 2
Back
Fore
SplineSet
294 152 m 0
 355 152 395 219 395 294 c 0
 395 386 340 463 277 463 c 0
 216 463 175 394 175 319 c 0
 175 227 231 152 294 152 c 0
398 455 m 1
 398 455 457 510 457 510 c 2
 465 518 491 490 498 466 c 1
 498 466 438 410 438 410 c 1
 456 380 467 344 467 307 c 0
 467 267 455 230 434 199 c 1
 434 199 488 141 488 141 c 2
 496 133 468 107 444 100 c 1
 444 100 392 155 392 155 c 1
 362 133 326 120 286 120 c 0
 243 120 203 135 172 160 c 1
 172 160 119 110 119 110 c 2
 111 102 85 130 78 154 c 1
 78 154 132 205 132 205 c 1
 113 235 102 270 102 307 c 0
 102 351 116 391 140 423 c 1
 140 423 88 479 88 479 c 2
 80 487 108 513 132 520 c 1
 132 520 184 465 184 465 c 1
 213 485 248 496 286 496 c 0
 329 496 367 481 398 455 c 1
EndSplineSet
Validated: 33
EndChar
StartChar: yen
Encoding: 99 165 99
Width: 672
UnlinkRmOvrlpSave: 1
Flags: W
HStem: -3 29<224.404 295.252 393.748 464.596> 138 37<213.68 481.931> 218 37<213.68 481.931> 611 29<27.1875 82.7014 230.181 284.161 429.728 496.386 581.222 643.413>
VStem: 301 87<32.7426 298.855>
LayerCount: 2
Back
Fore
SplineSet
223 175 m 1
 239 175 474 175 485 175 c 1
 499 164 481 142 475 138 c 1
 203 138 l 17
 197 144 214 175 223 175 c 1
223 255 m 1
 239 255 474 255 485 255 c 1
 499 244 481 222 475 218 c 1
 203 218 l 17
 197 224 214 255 223 255 c 1
301 116 m 2
 301 245 l 0
 301 252 299 263 294 273 c 16
 236 378 211 420 152 526 c 0
 131 563 114 579 86 595 c 0
 69 605 42 611 30 611 c 0
 25 611 25 635 30 640 c 1
 79 638 106 635 155 635 c 0
 204 635 243 638 283 640 c 1
 285 634 286 611 281 611 c 0
 267 611 221 605 221 579 c 0
 221 571 225 562 233 549 c 2
 372 311 l 1
 421 399 490 536 504 570 c 0
 505 573 507 579 507 585 c 0
 507 591 488 610 432 610 c 1
 429 610 428 636 430 639 c 1
 467 637 496 634 533 634 c 0
 585 634 603 637 643 639 c 1
 645 633 644 610 641 610 c 1
 633 610 575 610 552 570 c 0
 514 503 437 359 394 279 c 8
 388 268 389 257 389 248 c 0
 389 188 388 116 388 116 c 2
 388 86 388 58 393 42 c 0
 396 31 450 26 462 26 c 1
 466 21 467 2 462 -3 c 1
 421 -1 384 2 345 2 c 0
 306 2 268 -1 227 -3 c 1
 222 2 223 21 227 26 c 1
 239 26 293 31 296 42 c 0
 301 58 301 86 301 116 c 2
EndSplineSet
EndChar
StartChar: brokenbar
Encoding: 100 166 100
Width: 214
Flags: W
VStem: 82 51<-118.458 256.903 389.542 764.903>
LayerCount: 2
Back
Fore
SplineSet
133 400 m 2
 133 392 89 385 87 385 c 0
 80 385 82 389 82 393 c 2
 82 393 82 757 82 757 c 1
 82 757 81 763 87 765 c 0
 104 770 122 770 125 770 c 0
 134 770 133 764 133 764 c 1
 133 764 133 400 133 400 c 2
82 -115 m 2
 82 -115 82 249 82 249 c 1
 82 249 81 255 87 257 c 0
 104 262 122 262 125 262 c 0
 134 262 133 256 133 256 c 1
 133 256 133 -108 133 -108 c 2
 133 -116 89 -123 87 -123 c 0
 80 -123 82 -119 82 -115 c 2
EndSplineSet
Validated: 1
EndChar
StartChar: section
Encoding: 101 167 101
Width: 441
UnlinkRmOvrlpSave: 1
Flags: W
HStem: -78 50<112.723 238.609> 603 50<203.391 329.277>
VStem: 38 54<353.266 469.951> 120 46<493.45 550.473> 276 46<24.5271 81.55> 350 54<105.049 221.734>
LayerCount: 2
Back
Fore
SplineSet
304 653 m 0
 192 653 120 587 120 507 c 0
 120 435 190 379 238 335 c 0
 292 285 350 218 350 135 c 0
 350 91 332 71 310 33 c 0
 310 33 286 14 276 -3 c 24
 270 -14 272 -23 270 -35 c 17
 308 -9 404 105 404 179 c 0
 404 265 340 335 288 383 c 0
 241 426 166 503 166 549 c 0
 166 587 216 603 247 603 c 0
 262 603 271 599 279 595 c 0
 289 590 298 583 315 583 c 0
 331 583 351 605 351 619 c 0
 351 625 350 635 345 645 c 1
 331 651 318 653 304 653 c 0
138 -78 m 0
 124 -78 111 -76 97 -70 c 1
 92 -60 91 -50 91 -44 c 0
 91 -30 111 -8 127 -8 c 0
 144 -8 153 -15 163 -20 c 0
 171 -24 180 -28 195 -28 c 0
 226 -28 276 -12 276 26 c 0
 276 72 201 149 154 192 c 0
 102 240 38 310 38 396 c 0
 38 470 134 584 172 610 c 9
 170 598 172 589 166 578 c 24
 156 561 132 542 132 542 c 0
 110 504 92 484 92 440 c 0
 92 357 150 290 204 240 c 0
 252 196 322 140 322 68 c 0
 322 -12 250 -78 138 -78 c 0
EndSplineSet
EndChar
StartChar: copyright
Encoding: 103 169 103
Width: 659
Flags: W
HStem: 69 31<247.455 411.652> 195 32<296.319 416.675> 449 34<289.437 404.899> 584 31<247.455 411.652>
VStem: 56 33<256.704 427.296> 187 57<271.691 409.392> 572 31<259.894 424.106>
LayerCount: 2
Back
Fore
SplineSet
456 276 m 1
 456 273 443 217 436 214 c 0
 404 201 372 195 330 195 c 0
 249 195 187 257 187 336 c 0
 187 416 245 483 328 483 c 0
 358 483 406 477 440 464 c 1
 440 464 456 407 456 403 c 0
 456 398 447 394 440 394 c 0
 437 394 435 395 433 396 c 1
 430 409 411 449 340 449 c 0
 286 449 244 400 244 345 c 0
 244 264 303 227 349 227 c 0
 379 227 408 234 421 246 c 0
 433 257 434 279 436 279 c 0
 439 279 455 278 456 276 c 1
89 342 m 0
 89 209 197 100 330 100 c 0
 463 100 572 209 572 342 c 0
 572 475 463 584 330 584 c 0
 197 584 89 475 89 342 c 0
56 342 m 0
 56 493 178 615 329 615 c 0
 480 615 603 493 603 342 c 0
 603 191 480 69 329 69 c 0
 178 69 56 191 56 342 c 0
EndSplineSet
Validated: 1
EndChar
StartChar: ordfeminine
Encoding: 104 170 104
Width: 345
Flags: W
HStem: 249 37<115.046 173.137 245 294.603> 526 30<126.074 190.272>
VStem: 47 57<293.972 374.217> 57 56<455.248 499.854> 211 53<299.663 405 422.392 513.145>
LayerCount: 2
Back
Fore
SplineSet
151 286 m 0xe8
 175 286 211 313 211 320 c 2
 211 320 211 405 211 405 c 17
 192 399 159 390 147 385 c 0
 122 375 104 361 104 335 c 0
 104 309 125 286 151 286 c 0xe8
188 556 m 0
 227 556 264 515 264 462 c 2
 264 462 264 319 264 319 c 2
 264 300 269 286 285 286 c 0
 297 286 306 294 308 295 c 1
 310 295 311 292 311 290 c 0
 311 286 309 280 307 277 c 1
 299 269 270 250 255 250 c 0
 235 250 217 274 213 295 c 1
 205 287 152 249 128 249 c 0
 82 249 47 284 47 329 c 0xe8
 47 357 67 378 82 384 c 0
 121 398 183 419 203 428 c 0
 210 431 211 433 211 445 c 2
 211 445 211 464 211 464 c 2
 211 495 190 526 152 526 c 0
 128 526 118 514 113 487 c 0
 109 463 98 454 81 454 c 0
 66 454 57 469 57 483 c 0xd8
 57 486 59 497 62 500 c 1
 83 520 137 556 188 556 c 0
EndSplineSet
Validated: 1
EndChar
StartChar: guillemotleft
Encoding: 105 171 105
Width: 482
Flags: W
LayerCount: 2
Back
Fore
SplineSet
207 246 m 0
 207 256 208 255 212 264 c 1
 343 343 420 422 421 423 c 1
 437 418 441 414 443 411 c 1
 437 390 341 288 295 247 c 1
 341 206 437 104 443 83 c 1
 441 80 437 76 421 71 c 1
 420 72 343 151 212 230 c 1
 210 233 207 240 207 246 c 0
27 246 m 0
 27 256 28 255 32 264 c 1
 163 343 240 422 241 423 c 1
 257 418 261 414 263 411 c 1
 257 390 161 288 115 247 c 1
 161 206 257 104 263 83 c 1
 261 80 257 76 241 71 c 1
 240 72 163 151 32 230 c 1
 30 233 27 240 27 246 c 0
EndSplineSet
Validated: 1
EndChar
StartChar: logicalnot
Encoding: 106 172 106
Width: 587
Flags: W
HStem: 364 56<48.988 456>
VStem: 456 60<159.121 364>
LayerCount: 2
Back
Fore
SplineSet
516 420 m 17
 516 420 516 169 516 169 c 17
 515 168 489 154 469 154 c 0
 469 154 459 155 456 161 c 1
 456 183 456 285 456 364 c 9
 456 364 51 364 51 364 c 1
 51 364 45 364 45 374 c 1
 45 374 50 420 60 420 c 2
 60 420 516 420 516 420 c 17
EndSplineSet
Validated: 1
EndChar
StartChar: registered
Encoding: 107 174 107
Width: 659
Flags: W
HStem: 133 32<247.455 411.652> 273 14<204.5 234.937 286.063 316.5 448.858 477> 403 18<284 313.466> 536 17<204.83 234.937 286.102 341.279> 648 32<247.455 411.652>
VStem: 56 33<321.65 492.235> 237 47<294.331 403 421 531.759> 365 48<431.535 526.839> 572 31<324.848 489.045>
LayerCount: 2
Back
Fore
SplineSet
323 553 m 4
 361 553 413 527 413 479 c 4
 413 449 387 421 358 410 c 5
 380 373 402 344 430 310 c 4
 443 294 455 289 478 287 c 5
 480 285 477 274 477 273 c 5
 449 273 417 275 409 278 c 4
 403 280 392 283 382 296 c 4
 376 304 339 357 312 398 c 4
 309 402 305 403 299 403 c 4
 299 403 288 403 284 403 c 5
 284 403 284 325 284 325 c 5
 284 312 284 301 286 294 c 4
 287 289 310 287 315 287 c 5
 317 285 317 275 315 273 c 5
 298 274 277 275 261 275 c 4
 245 275 223 274 206 273 c 5
 204 275 204 285 206 287 c 5
 211 287 234 289 235 294 c 4
 237 301 237 312 237 325 c 6
 237 325 237 502 237 502 c 6
 237 514 237 526 235 533 c 4
 234 538 211 540 206 540 c 5
 204 542 204 552 206 554 c 5
 223 553 247 552 263 552 c 4
 279 552 298 553 323 553 c 4
365 469 m 4
 365 507 354 536 307 536 c 4
 302 536 288 536 286 532 c 4
 284 527 284 513 284 500 c 6
 284 500 284 421 284 421 c 5
 284 421 295 421 302 421 c 20
 338 421 365 436 365 469 c 4
89 407 m 4
 89 274 197 165 330 165 c 4
 463 165 572 274 572 407 c 4
 572 540 463 648 330 648 c 4
 197 648 89 540 89 407 c 4
56 407 m 4
 56 558 178 680 329 680 c 4
 480 680 603 558 603 407 c 4
 603 256 480 133 329 133 c 4
 178 133 56 256 56 407 c 4
EndSplineSet
Validated: 1
EndChar
StartChar: degree
Encoding: 109 176 109
Width: 274
Flags: W
HStem: 437 37<93.8121 179.842> 597 37<93.8121 179.842>
VStem: 38 37<492.812 578.842> 198 37<492.812 578.842>
LayerCount: 2
Back
Fore
SplineSet
75 536 m 0
 75 502 103 474 137 474 c 0
 171 474 198 502 198 536 c 0
 198 570 171 597 137 597 c 0
 103 597 75 570 75 536 c 0
38 536 m 0
 38 590 83 634 137 634 c 0
 191 634 235 590 235 536 c 0
 235 482 191 437 137 437 c 0
 83 437 38 482 38 536 c 0
EndSplineSet
Validated: 1
EndChar
StartChar: plusminus
Encoding: 110 177 110
Width: 548
Flags: W
HStem: 6 56<38.4861 510.076> 305 56<38.4861 245 301 510.076>
VStem: 245 56<94.125 305 361 567.966>
LayerCount: 2
Back
Fore
SplineSet
49 62 m 1
 129 62 458 62 505 62 c 0
 509 62 514 58 514 50 c 0
 514 34 506 14 498 6 c 1
 498 6 40 6 40 6 c 1
 40 6 34 6 34 16 c 0
 34 20 39 54 49 62 c 1
49 361 m 1
 49 361 245 361 245 361 c 9
 245 361 245 542 245 561 c 1
 261 567 281 572 288 572 c 0
 298 572 301 566 301 566 c 1
 301 566 301 361 301 361 c 25
 381 361 425 361 505 361 c 16
 509 361 514 357 514 349 c 0
 514 333 506 313 498 305 c 1
 498 305 301 305 301 305 c 25
 301 305 301 180 301 103 c 1
 289 94 268 92 258 92 c 0
 251 92 245 97 245 101 c 2
 245 101 245 305 245 305 c 25
 245 305 40 305 40 305 c 1
 40 305 34 305 34 315 c 0
 34 319 39 353 49 361 c 1
EndSplineSet
Validated: 1
EndChar
StartChar: uni00B2
Encoding: 111 178 111
Width: 358
Flags: W
HStem: 254 55<121 283> 602 45<108.49 210.382>
VStem: 227 65<472.168 585.997>
LayerCount: 2
Back
Fore
SplineSet
320 360 m 1
 309 331 297 287 283 254 c 1
 283 254 51 254 51 254 c 1
 45 254 37 262 39 266 c 1
 79 310 139 363 180 418 c 0
 208 455 227 494 227 530 c 0
 227 572 203 602 161 602 c 0
 116 602 92 575 74 553 c 1
 70 549 56 565 57 570 c 1
 80 610 127 647 173 647 c 0
 243 647 292 603 292 540 c 0
 292 507 276 475 246 439 c 0
 219 407 169 358 121 309 c 1
 121 309 241 309 241 309 c 2
 282 309 295 353 301 363 c 0
 302 365 303 365 306 366 c 0
 309 366 317 364 320 360 c 1
EndSplineSet
Validated: 1
EndChar
StartChar: uni00B3
Encoding: 112 179 112
Width: 318
Flags: W
HStem: 249 28<107.743 187.501> 607 39<102.602 180.209>
VStem: 193 56<513.694 596.981> 217 64<312.363 429.422>
LayerCount: 2
Back
Fore
SplineSet
162 646 m 0xe0
 204 646 249 620 249 569 c 0xe0
 249 525 213 496 191 486 c 1
 217 486 281 452 281 386 c 0
 281 298 205 249 118 249 c 0
 96 249 61 255 51 264 c 1
 51 264 39 275 39 288 c 0
 39 308 54 321 70 321 c 0
 87 321 94 304 106 292 c 0
 116 282 130 277 145 277 c 0
 187 277 217 307 217 368 c 0xd0
 217 417 182 454 145 454 c 0
 127 454 110 447 105 446 c 1
 103 448 101 453 100 457 c 0
 99 461 99 465 100 467 c 1
 149 477 193 507 193 556 c 0
 193 582 168 607 142 607 c 0
 105 607 78 576 72 570 c 1
 67 572 62 585 63 586 c 1
 77 607 109 646 162 646 c 0xe0
EndSplineSet
Validated: 1
EndChar
StartChar: uni00B5
Encoding: 114 181 114
Width: 541
Flags: W
HStem: -227 21G<126 137> -9 73<167.372 250.249 410.184 469.783> 417 20G<113 124 355 366>
VStem: 95 77<250.141 422.656> 95 43<108.623 298.513> 337 77<250.141 422.656>
LayerCount: 2
Back
Fore
SplineSet
144 223 m 0xf4
 144 144 159 64 195 64 c 0
 262 64 312 155 337 227 c 1
 337 251 337 275 337 298 c 0
 337 311 338 379 337 417 c 1
 342 425 349 437 361 437 c 0
 371 437 414 413 414 400 c 0
 414 382 405 335 391 246 c 0
 389 236 381 195 381 195 c 1
 381 124 405 66 451 66 c 0
 477 66 495 87 502 96 c 1
 505 96 508 92 511 87 c 0
 513 83 514 79 514 76 c 0
 501 32 461 -4 421 -4 c 0
 373 -3 358 115 356 142 c 1
 326 72 271 -9 201 -9 c 0
 159 -9 143 71 138 101 c 1xec
 140 76 133 -89 155 -207 c 1
 150 -215 143 -227 131 -227 c 0
 121 -227 78 -203 78 -190 c 0
 78 -172 87 100 99 204 c 1
 99 228 95 275 95 298 c 0
 95 311 96 379 95 417 c 1
 100 425 107 437 119 437 c 0
 129 437 172 413 172 400 c 0
 172 382 168 335 149 246 c 0
 148 240 144 223 144 223 c 0xf4
EndSplineSet
Validated: 33
EndChar
StartChar: paragraph
Encoding: 115 182 115
Width: 484
Flags: W
HStem: -4 27<156.918 214.942 372.084 432.289> 2 34<268.061 318.941> 288 40<265 321> 299 40<362 391.484> 611 37<265.286 321.805> 624 29<370.14 425.455>
VStem: 34 231<391.968 555.804> 226 39<42.7588 287> 322 40<42.7588 292 339 610.302>
LayerCount: 2
Back
Fore
SplineSet
322 333 m 1x2980
 322 369 322 593 322 606 c 1
 318 610 303 611 293 611 c 0
 283 611 271 611 265 605 c 9
 265 605 265 430 265 328 c 1
 271 328 318 330 322 333 c 1x2980
321 292 m 17
 307 291 281 289 265 288 c 9
 265 221 265 183 265 116 c 20
 265 86 265 58 268 42 c 4
 269 35 289 36 293 36 c 4x6180
 300 36 318 36 319 42 c 4
 322 58 322 86 322 116 c 6
 322 116 321 292 321 292 c 17
361 299 m 1x1680
 361 228 361 187 361 116 c 16
 361 86 361 58 366 42 c 0
 369 31 419 23 431 23 c 1
 433 23 433 -2 431 -4 c 1x9680
 368 -2 360 2 297 2 c 0x4280
 251 2 198 -2 158 -4 c 1
 156 2 155 19 160 23 c 1
 168 23 218 31 221 42 c 0
 226 58 226 86 226 116 c 2
 226 116 226 287 226 287 c 17x8180
 98 287 34 399 34 469 c 0
 34 578 123 652 205 652 c 0
 264 652 243 648 302 648 c 0x8a80
 369 648 423 653 423 653 c 1
 428 648 427 627 422 624 c 1
 407 624 370 616 365 604 c 0
 363 597 362 591 362 540 c 0
 362 479 362 358 362 339 c 1
 367 338 411 352 411 352 c 1
 416 352 421 350 421 346 c 0
 420 336 399 312 392 309 c 0
 381 304 369 300 361 299 c 1x1680
EndSplineSet
Validated: 33
EndChar
StartChar: periodcentered
Encoding: 116 183 116
Width: 224
Flags: W
HStem: 205 117<67.2549 156.745>
VStem: 54 116<217.764 309.619>
LayerCount: 2
Back
Fore
SplineSet
54 264 m 0
 54 296 80 322 112 322 c 0
 144 322 170 296 170 264 c 0
 170 232 144 205 112 205 c 0
 80 205 54 232 54 264 c 0
EndSplineSet
Validated: 1
EndChar
StartChar: uni00B9
Encoding: 118 185 118
Width: 292
Flags: W
HStem: 253 25<57.7773 115.633 207.768 258.819>
VStem: 123 74<293.746 568.147>
LayerCount: 2
Back
Fore
SplineSet
123 518 m 2
 123 564 115 569 104 569 c 0
 92 569 68 560 48 553 c 1
 42 556 39 564 39 570 c 0
 39 573 40 577 42 578 c 0
 148 622 189 652 192 652 c 2
 192 652 194 652 194 652 c 2
 200 652 205 632 206 629 c 1
 206 629 197 587 197 548 c 2
 197 548 197 340 197 340 c 2
 197 320 198 309 205 293 c 0
 208 286 249 279 257 279 c 1
 260 279 260 257 257 253 c 1
 218 254 200 256 161 256 c 0
 122 256 100 254 61 253 c 1
 56 256 56 278 61 278 c 0
 73 278 114 285 117 292 c 0
 122 305 123 328 123 338 c 2
 123 338 123 518 123 518 c 2
EndSplineSet
Validated: 1
EndChar
StartChar: ordmasculine
Encoding: 119 186 119
Width: 388
Flags: W
HStem: 247 24<163.771 239.041> 530 24<149.201 227.228>
VStem: 38 69<322.561 478.564> 281 69<323.778 480.457>
LayerCount: 2
Back
Fore
SplineSet
187 530 m 0
 129 530 107 467 107 411 c 0
 107 345 138 271 204 271 c 0
 259 271 281 336 281 391 c 0
 281 456 252 530 187 530 c 0
196 554 m 0
 283 554 350 486 350 403 c 0
 350 320 283 247 196 247 c 0
 109 247 38 316 38 399 c 0
 38 484 107 554 196 554 c 0
EndSplineSet
Validated: 1
EndChar
StartChar: guillemotright
Encoding: 120 187 120
Width: 482
Flags: W
LayerCount: 2
Back
Fore
SplineSet
277 246 m 0
 277 240 274 233 272 230 c 1
 141 151 64 72 63 71 c 1
 47 76 43 80 41 83 c 1
 47 104 143 206 189 247 c 1
 143 288 47 390 41 411 c 1
 43 414 47 418 63 423 c 1
 64 422 141 343 272 264 c 1
 276 255 277 256 277 246 c 0
457 246 m 0
 457 240 454 233 452 230 c 1
 321 151 244 72 243 71 c 1
 227 76 223 80 221 83 c 1
 227 104 323 206 369 247 c 1
 323 288 227 390 221 411 c 1
 223 414 227 418 243 423 c 1
 244 422 321 343 452 264 c 1
 456 255 457 256 457 246 c 0
EndSplineSet
Validated: 1
EndChar
StartChar: onequarter
Encoding: 121 188 121
Width: 699
Flags: W
HStem: -3 21G<581.5 595> 106 45<442 556 618 652.032> 251 22<51.0603 98.6719 184.454 233.491>
VStem: 112 62<288.617 554.988> 556 59<-2.78125 106 151 305>
LayerCount: 2
Back
Fore
SplineSet
606 407 m 4
 612 407 615 400 615 395 c 12
 615 298 615 238 615 146 c 5
 622 146 640 146 650 146 c 5
 659 138 664 120 656 106 c 5
 642 106 624 106 618 106 c 13
 618 106 618 0 618 0 c 5
 616 -2 602 -3 588 -3 c 4
 575 -3 561 -2 556 2 c 13
 556 2 556 106 556 106 c 5
 556 106 391 106 391 106 c 5
 386 107 382 111 381 122 c 5
 381 122 586 395 586 395 c 6
 590 400 598 407 606 407 c 4
556 151 m 13
 556 151 556 296 556 305 c 5
 515 253 487 209 442 151 c 5
 449 151 548 151 556 151 c 13
174 534 m 2
 174 534 174 336 174 336 c 2
 174 316 176 302 181 287 c 0
 183 280 223 273 231 273 c 1
 236 268 233 253 232 251 c 1
 193 252 185 254 146 254 c 0
 107 254 93 252 54 251 c 1
 49 254 50 269 54 273 c 1
 66 273 101 281 104 288 c 0
 109 301 112 324 112 334 c 2
 112 334 112 520 112 520 c 2
 112 539 105 555 95 555 c 0
 84 555 67 547 47 540 c 1
 41 543 36 552 34 558 c 1
 53 570 84 588 169 638 c 1
 176 636 182 629 182 622 c 1
 182 622 174 573 174 534 c 2
186 -13 m 0
 175 -11 175 -4 175 -4 c 1
 175 -4 524 636 524 636 c 1
 525 639 538 647 555 644 c 0
 561 643 563 637 563 634 c 1
 563 634 218 2 218 2 c 2
 215 -4 202 -16 186 -13 c 0
EndSplineSet
Validated: 33
EndChar
StartChar: onehalf
Encoding: 122 189 122
Width: 750
Flags: W
HStem: -1 55<517 679> 251 22<54.0603 101.672 187.454 236.491> 347 45<504.49 606.382>
VStem: 115 62<288.617 554.988> 623 65<217.236 330.997>
LayerCount: 2
Back
Fore
SplineSet
569 392 m 0
 639 392 688 348 688 285 c 0
 688 252 672 220 642 184 c 0
 615 152 565 103 517 54 c 1
 517 54 637 54 637 54 c 2
 678 54 691 98 697 108 c 0
 698 110 699 110 702 111 c 0
 705 111 713 109 716 105 c 1
 705 76 693 32 679 -1 c 1
 679 -1 447 -1 447 -1 c 1
 441 -1 433 7 435 11 c 1
 473 52 527 101 567 152 c 0
 599 193 623 235 623 275 c 0
 623 317 599 347 557 347 c 0
 512 347 488 320 470 298 c 1
 466 294 452 310 453 315 c 1
 476 355 523 392 569 392 c 0
177 534 m 2
 177 534 177 336 177 336 c 2
 177 316 179 302 184 287 c 0
 186 280 226 273 234 273 c 1
 239 268 236 253 235 251 c 1
 196 252 188 254 149 254 c 0
 110 254 96 252 57 251 c 1
 52 254 53 269 57 273 c 1
 69 273 104 281 107 288 c 0
 112 301 115 324 115 334 c 2
 115 334 115 520 115 520 c 2
 115 539 108 555 98 555 c 0
 87 555 70 547 50 540 c 1
 44 543 39 552 37 558 c 1
 56 570 87 588 172 638 c 1
 179 636 185 629 185 622 c 1
 185 622 177 573 177 534 c 2
564 634 m 1
 564 634 219 2 219 2 c 2
 216 -4 203 -16 187 -13 c 0
 176 -11 176 -4 176 -4 c 1
 176 -4 525 636 525 636 c 1
 526 639 539 647 556 644 c 0
 562 643 564 637 564 634 c 1
EndSplineSet
Validated: 33
EndChar
StartChar: threequarters
Encoding: 123 190 123
Width: 700
Flags: W
HStem: -3 21G<582.5 596> 106 45<443 557 619 653.032> 249 28<103.743 183.501> 607 39<98.6021 176.209>
VStem: 189 56<513.694 596.981> 213 64<312.363 429.422> 557 59<-2.78125 106 151 305>
LayerCount: 2
Back
Fore
SplineSet
607 407 m 0xf2
 613 407 616 400 616 395 c 8
 616 298 616 238 616 146 c 1
 623 146 641 146 651 146 c 1
 660 138 665 120 657 106 c 1
 643 106 625 106 619 106 c 9
 619 106 619 0 619 0 c 1
 617 -2 603 -3 589 -3 c 0
 576 -3 562 -2 557 2 c 9
 557 2 557 106 557 106 c 1
 557 106 392 106 392 106 c 1
 387 107 383 111 382 122 c 1
 382 122 587 395 587 395 c 2
 591 400 599 407 607 407 c 0xf2
557 151 m 9
 557 151 557 296 557 305 c 1
 516 253 488 209 443 151 c 1
 450 151 549 151 557 151 c 9
158 646 m 0
 200 646 245 620 245 569 c 0xfa
 245 525 209 496 187 486 c 1
 213 486 277 452 277 386 c 0
 277 298 201 249 114 249 c 0
 92 249 57 255 47 264 c 1
 47 264 35 275 35 288 c 0
 35 308 50 321 66 321 c 0
 83 321 90 304 102 292 c 0
 112 282 126 277 141 277 c 0
 183 277 213 307 213 368 c 0xf6
 213 417 178 454 141 454 c 0
 123 454 106 447 101 446 c 1
 99 448 97 453 96 458 c 0
 95 461 95 465 96 467 c 1
 145 477 189 507 189 556 c 0xfa
 189 582 164 607 138 607 c 0
 101 607 74 576 68 570 c 1
 63 572 58 585 59 586 c 1
 73 607 105 646 158 646 c 0
569 634 m 1
 569 634 224 2 224 2 c 2
 221 -4 208 -16 192 -13 c 0
 181 -11 181 -4 181 -4 c 1
 181 -4 530 636 530 636 c 1
 531 639 544 647 561 644 c 0
 567 643 569 637 569 634 c 1
EndSplineSet
Validated: 33
EndChar
StartChar: questiondown
Encoding: 124 191 124
Width: 345
Flags: W
HStem: -223 94<167.451 286.234> -223 73<158.434 267.661> 320 110<189.463 275.77>
VStem: 41 50<-116.531 -13.6233> 178 110<331.463 417.77> 226 29<177.761 259.712>
LayerCount: 2
Back
Fore
SplineSet
288 374 m 0x38
 288 344 262 320 232 320 c 0
 202 320 178 344 178 374 c 0
 178 404 202 430 232 430 c 0
 262 430 288 404 288 374 c 0x38
255 249 m 1xb4
 260 228 263 185 263 158 c 0
 263 84 215 58 178 34 c 0
 129 3 91 -20 91 -68 c 0
 91 -120 127 -150 165 -150 c 0x78
 218 -150 225 -129 251 -129 c 0
 265 -129 295 -146 295 -179 c 0
 295 -194 291 -209 286 -216 c 1
 276 -221 259 -223 238 -223 c 0
 172 -223 41 -155 41 -38 c 0
 41 30 67 72 142 115 c 0
 169 131 214 166 220 177 c 0
 229 193 226 224 226 247 c 1
 230 255 233 259 242 260 c 1
 247 258 252 255 255 249 c 1xb4
EndSplineSet
Validated: 33
EndChar
StartChar: multiply
Encoding: -1 215 482
Width: 493
VWidth: 1000
GlyphClass: 2
Flags: W
LayerCount: 2
Back
Fore
SplineSet
56 330 m 1
 56 330 91 365 91 365 c 1
 91 365 229 225 229 225 c 1
 229 225 371 362 371 362 c 1
 371 362 407 329 407 329 c 1
 407 329 263 188 263 188 c 1
 263 188 412 46 412 46 c 1
 412 46 374 11 374 11 c 1
 374 11 228 155 228 155 c 1
 228 155 81 10 81 10 c 1
 81 10 47 43 47 43 c 1
 47 43 199 194 199 194 c 1
 199 194 56 330 56 330 c 1
EndSplineSet
Validated: 1
EndChar
StartChar: divide
Encoding: -1 247 483
Width: 397
VWidth: 1000
GlyphClass: 2
Flags: W
HStem: 67 61<175.781 237.182> 182 40<38 373> 265 63<174.531 235>
VStem: 175 64<67.9844 126.474 266.32 325.913>
LayerCount: 2
Back
Fore
SplineSet
207 128 m 0
 215.666666667 128 223.166666667 124.666666667 229.5 118 c 0
 235.833333333 111.333333333 239 103.666666667 239 95 c 0
 239 76.3333333333 228 67 206 67 c 0
 185.333333333 67 175 77 175 97 c 0
 175 117.666666667 185.666666667 128 207 128 c 0
206 328 m 0
 214.666666667 328 222 324.5 228 317.5 c 0
 234 310.5 237 303 237 295 c 0
 237 275 226.333333333 265 205 265 c 0
 183.666666667 265 173 275.666666667 173 297 c 0
 173 305 176.333333333 312.166666667 183 318.5 c 0
 189.666666667 324.833333333 197.333333333 328 206 328 c 0
38 182 m 1
 38 182 38 222 38 222 c 1
 38 222 373 222 373 222 c 1
 373 222 373 182 373 182 c 1
 373 182 38 182 38 182 c 1
EndSplineSet
Validated: 524289
EndChar
StartChar: OE
Encoding: 270 338 125
Width: 1024
LayerCount: 2
Back
SplineSet
358 633 m 0
 208 633 148 484 148 350 c 0
 148 195 234 24 389 24 c 1024
373 -10 m 0
 197 -10 49 130 49 328 c 0
 49 515 197 667 373 667 c 1024
EndSplineSet
Fore
Validated: 1
EndChar
StartChar: uni02BE
Encoding: 1411 702 264
Width: 195
VWidth: 0
Flags: W
HStem: 438 34<31.7764 79.7197> 664 34<29.7155 80.748>
VStem: 114 51<501.495 637.302>
LayerCount: 2
Back
Fore
SplineSet
34 472 m 1
 81 472 114 517 114 568 c 0
 114 623 85 664 30 664 c 1
 27 670 25 685 33 698 c 1
 107 698 165 639 165 569 c 0
 165 499 104 438 31 438 c 1
 28 447 29 458 34 472 c 1
EndSplineSet
Validated: 33
EndChar
StartChar: uni02BF
Encoding: 1412 703 265
Width: 195
VWidth: 0
Flags: W
HStem: 438 34<115.28 163.224> 664 34<114.252 165.284>
VStem: 30 51<501.495 637.302>
LayerCount: 2
Back
Fore
SplineSet
161 472 m 1
 166 458 167 447 164 438 c 1
 91 438 30 499 30 569 c 0
 30 639 88 698 162 698 c 1
 170 685 168 670 165 664 c 1
 110 664 81 623 81 568 c 0
 81 517 114 472 161 472 c 1
EndSplineSet
Validated: 33
EndChar
StartChar: gravecomb
Encoding: 332 768 137
Width: 0
GlyphClass: 4
Flags: W
HStem: 498 160
VStem: -350 160
LayerCount: 2
Back
Fore
SplineSet
-314 658 m 0
 -300 658 -288 651 -287 650 c 0
 -255 610 -190 517 -190 511 c 0
 -190 505 -192 498 -199 498 c 0
 -209 498 -350 597 -350 629 c 0
 -350 634 -349 658 -314 658 c 0
EndSplineSet
Validated: 1
EndChar
StartChar: acutecomb
Encoding: 333 769 138
Width: 0
GlyphClass: 4
Flags: W
HStem: 498 160
VStem: -320 160
LayerCount: 2
Back
Fore
SplineSet
-196 658 m 0
 -161 658 -160 634 -160 629 c 0
 -160 597 -301 498 -311 498 c 0
 -318 498 -320 505 -320 511 c 0
 -320 517 -255 610 -223 650 c 0
 -222 651 -210 658 -196 658 c 0
EndSplineSet
Validated: 1
EndChar
StartChar: uni0302
Encoding: 334 770 139
Width: 0
GlyphClass: 4
Flags: W
HStem: 497 154
VStem: -365 210
LayerCount: 2
Back
Fore
SplineSet
-260 651 m 0
 -256 651 -252 647 -249 642 c 0
 -215 587 -194 561 -155 510 c 1
 -155 503 -161 497 -166 497 c 1
 -204 528 -260 573 -260 573 c 25
 -260 573 -319 525 -354 497 c 1
 -359 497 -365 503 -365 510 c 1
 -326 561 -305 587 -271 642 c 0
 -268 647 -264 651 -260 651 c 0
EndSplineSet
Validated: 1
EndChar
StartChar: tildecomb
Encoding: 335 771 140
Width: 0
GlyphClass: 4
Flags: W
HStem: 498 45<-237.358 -146.566> 545 45<-351.215 -260.562>
VStem: -375 255
LayerCount: 2
Back
Fore
SplineSet
-301 590 m 0
 -276 590 -258 578 -240 567 c 0
 -221 555 -196 543 -182 543 c 0
 -146 543 -133 578 -126 582 c 1
 -120 582 -120 577 -120 573 c 0
 -120 560 -128 544 -134 535 c 0
 -151 512 -172 498 -196 498 c 0
 -221 498 -238 509 -256 520 c 0
 -275 532 -297 545 -315 545 c 0
 -351 545 -360 510 -367 506 c 1
 -373 506 -375 513 -375 517 c 0
 -375 530 -369 545 -363 554 c 0
 -346 577 -325 590 -301 590 c 0
EndSplineSet
Validated: 1
EndChar
StartChar: uni0304
Encoding: 336 772 141
Width: 0
GlyphClass: 4
Flags: W
HStem: 498 42<-374.462 -146.479>
LayerCount: 2
Back
Fore
SplineSet
-151 498 m 1
 -197 498 -300 498 -375 498 c 1
 -385 502 -378 534 -369 540 c 9
 -282 540 -232 540 -145 540 c 1
 -138 535 -141 509 -151 498 c 1
EndSplineSet
Validated: 33
EndChar
StartChar: uni0305
Encoding: 337 773 142
Width: 0
GlyphClass: 4
Flags: W
HStem: 739 63<-591.44 -1.09664>
LayerCount: 2
Back
Fore
SplineSet
-595 749 m 0
 -595 751 -592 802 -581 802 c 2
 -581 802 1 802 1 802 c 2
 3 802 7 801 7 793 c 0
 7 775 0 750 -1 746 c 0
 -3 740 -9 739 -9 739 c 1
 -9 739 -589 739 -589 739 c 1
 -589 739 -595 739 -595 749 c 0
EndSplineSet
Validated: 1
EndChar
StartChar: uni0306
Encoding: 338 774 143
Width: 0
GlyphClass: 4
Flags: W
HStem: 497 46<-316.932 -201.068>
VStem: -368 22<598.095 615.805> -172 22<597.096 615.805>
LayerCount: 2
Back
Fore
SplineSet
-259 543 m 0
 -217 543 -182 572 -172 615 c 0
 -172 617 -170 618 -168 618 c 0
 -162 618 -150 610 -150 605 c 0
 -150 604 -151 599 -151 597 c 0
 -160 544 -205 497 -259 497 c 0
 -313 497 -358 541 -367 598 c 0
 -367 600 -368 604 -368 605 c 0
 -368 610 -356 618 -350 618 c 0
 -348 618 -346 617 -346 615 c 0
 -336 572 -301 543 -259 543 c 0
EndSplineSet
Validated: 1
EndChar
StartChar: uni0307
Encoding: 339 775 144
Width: 0
GlyphClass: 4
Flags: W
HStem: 498 100<-296.562 -213.438>
VStem: -305 100<506.438 589.562>
LayerCount: 2
Back
Fore
SplineSet
-305 548 m 0
 -305 576 -283 598 -255 598 c 0
 -227 598 -205 576 -205 548 c 0
 -205 520 -227 498 -255 498 c 0
 -283 498 -305 520 -305 548 c 0
EndSplineSet
Validated: 1
EndChar
StartChar: uni0308
Encoding: 340 776 145
Width: 0
GlyphClass: 4
Flags: W
HStem: 498 92<-381.358 -302.642 -198.358 -119.642>
VStem: -389 94<505.646 582.037> -206 94<505.646 582.037>
LayerCount: 2
Back
Fore
SplineSet
-158 590 m 0
 -133 590 -112 568 -112 543 c 0
 -112 518 -134 498 -159 498 c 0
 -184 498 -206 519 -206 544 c 0
 -206 569 -183 590 -158 590 c 0
-341 590 m 0
 -316 590 -295 568 -295 543 c 0
 -295 518 -317 498 -342 498 c 0
 -367 498 -389 519 -389 544 c 0
 -389 569 -366 590 -341 590 c 0
EndSplineSet
Validated: 1
EndChar
StartChar: hookabovecomb
Encoding: 341 777 146
Width: 0
GlyphClass: 4
Flags: W
HStem: 643 29<-270.742 -219.775>
VStem: -321 46<587.661 639.444> -291 42<507.096 553.298> -215 41<580.096 641.757>
LayerCount: 2
Back
Fore
SplineSet
-228 672 m 0xd0
 -193 672 -174 651 -174 621 c 0
 -174 588 -202 565 -225 555 c 0
 -243 547 -249 542 -249 530 c 0
 -249 522 -244 514 -241 511 c 1
 -241 506 -252 497 -257 497 c 1
 -263 499 -291 510 -291 530 c 0xb0
 -291 555 -261 567 -246 574 c 0
 -226 583 -215 594 -215 611 c 0
 -215 627 -225 643 -243 643 c 0
 -263 643 -275 634 -275 607 c 0
 -275 592 -293 587 -305 587 c 0
 -312 587 -321 591 -321 596 c 0
 -321 630 -271 672 -228 672 c 0xd0
EndSplineSet
Validated: 1
EndChar
StartChar: uni030A
Encoding: 342 778 147
Width: 0
GlyphClass: 4
Flags: W
HStem: 498 34<-293.32 -217.027> 643 34<-294.737 -216.575>
VStem: -343 33<548.832 626.822> -201 33<548.832 626.822>
LayerCount: 2
Back
Fore
SplineSet
-310 588 m 0
 -310 557 -285 532 -255 532 c 0
 -225 532 -201 557 -201 588 c 0
 -201 619 -225 643 -255 643 c 0
 -285 643 -310 619 -310 588 c 0
-343 588 m 0
 -343 637 -303 677 -255 677 c 0
 -207 677 -168 637 -168 588 c 0
 -168 539 -207 498 -255 498 c 0
 -303 498 -343 539 -343 588 c 0
EndSplineSet
Validated: 1
EndChar
StartChar: uni030C
Encoding: 344 780 149
Width: 0
GlyphClass: 4
Flags: W
HStem: 497 154
VStem: -360 210
LayerCount: 2
Back
Fore
SplineSet
-255 497 m 0
 -259 497 -263 501 -266 506 c 0
 -300 561 -321 587 -360 638 c 1
 -360 645 -354 651 -349 651 c 1
 -310 617 -255 568 -255 568 c 25
 -255 568 -200 617 -161 651 c 1
 -156 651 -150 645 -150 638 c 1
 -189 587 -210 561 -244 506 c 0
 -247 501 -251 497 -255 497 c 0
EndSplineSet
Validated: 1
EndChar
StartChar: uni0311
Encoding: 1413 785 266
Width: 0
GlyphClass: 4
Flags: W
HStem: 573 46<-316.932 -201.068>
VStem: -368 22<500.195 517.905> -172 22<500.195 518.904>
LayerCount: 2
Back
Fore
SplineSet
-259 573 m 0
 -301 573 -336 544 -346 501 c 0
 -346 499 -348 498 -350 498 c 0
 -356 498 -368 506 -368 511 c 0
 -368 512 -367 516 -367 518 c 0
 -358 575 -313 619 -259 619 c 0
 -205 619 -160 572 -151 519 c 0
 -151 517 -150 512 -150 511 c 0
 -150 506 -162 498 -168 498 c 0
 -170 498 -172 499 -172 501 c 0
 -182 544 -217 573 -259 573 c 0
EndSplineSet
Validated: 1
EndChar
StartChar: uni0312
Encoding: 345 786 150
Width: 0
GlyphClass: 4
Flags: W
HStem: 498 181<-285 -217>
VStem: -307 64<543 622.267>
LayerCount: 2
Back
Fore
SplineSet
-206 553 m 0
 -206 528 -225 498 -285 498 c 1
 -297 508 -307 535 -307 551 c 0
 -307 620 -250 664 -225 677 c 0
 -224 678 -221 679 -217 679 c 0
 -204 679 -197 675 -197 672 c 0
 -197 667 -243 637 -243 613 c 0
 -243 586 -206 583 -206 553 c 0
EndSplineSet
Validated: 1
EndChar
StartChar: uni0314
Encoding: 1385 788 259
Width: 0
VWidth: 1000
GlyphClass: 4
Flags: W
HStem: 493 13<-209.866 -194.631>
VStem: -298 51<532.504 614.68>
LayerCount: 2
Back
Fore
SplineSet
-235 680 m 0
 -218 680 -188 660 -188 648 c 3
 -188 646 -189 644 -191 643 c 0
 -207 629 -247 609 -247 562 c 0
 -247 538 -225 514 -193 506 c 1
 -193 498 -201 493 -205 493 c 0
 -215 493 -298 509 -298 602 c 0
 -298 640 -266 680 -235 680 c 0
EndSplineSet
Validated: 1
EndChar
StartChar: uni0315
Encoding: 346 789 151
Width: 0
GlyphClass: 4
Flags: W
HStem: 461 213
VStem: -245 58<529.479 628.5>
LayerCount: 2
Back
Fore
SplineSet
-223 674 m 0
 -216 674 -207 671 -201 668 c 1
 -195 658 -187 645 -187 612 c 0
 -187 562 -217 505 -257 461 c 1
 -263 461 -276 467 -276 472 c 1
 -258 495 -245 523 -245 553 c 0
 -245 600 -273 598 -273 632 c 0
 -273 650 -254 674 -223 674 c 0
EndSplineSet
Validated: 1
EndChar
StartChar: uni0326
Encoding: 348 806 153
Width: 0
GlyphClass: 4
Flags: W
HStem: -229 183
VStem: -272 63<-164.919 -88.5>
LayerCount: 2
Back
Fore
SplineSet
-251 -46 m 0
 -239 -46 -227 -50 -219 -55 c 1
 -213 -64 -209 -81 -209 -96 c 0
 -209 -155 -257 -207 -308 -229 c 1
 -316 -227 -324 -218 -324 -214 c 1
 -310 -207 -272 -178 -272 -148 c 0
 -272 -127 -307 -131 -307 -90 c 0
 -307 -81 -296 -46 -251 -46 c 0
EndSplineSet
Validated: 1
EndChar
StartChar: uni0327
Encoding: 349 807 154
Width: 0
GlyphClass: 4
Flags: W
HStem: -152 24<-296.951 -232.613> -61 34<-255 -227.586>
VStem: -223 37<-122.34 -64.0801>
LayerCount: 2
Back
Fore
SplineSet
-255 -27 m 1
 -255 -27 -230 -27 -230 -27 c 2
 -204 -27 -186 -50 -186 -76 c 0
 -186 -123 -228 -152 -280 -152 c 0
 -292 -152 -308 -147 -314 -143 c 1
 -315 -138 -317 -135 -317 -129 c 0
 -317 -122 -309 -115 -303 -115 c 0
 -291 -115 -282 -128 -266 -128 c 0
 -238 -128 -223 -112 -223 -95 c 0
 -223 -71 -241 -61 -254 -61 c 0
 -265 -61 -270 -64 -280 -68 c 0
 -282 -68 -292 -59 -290 -55 c 0
 -281 -40 -266 -18 -258 -4 c 1
 -258 -4 -237 -4 -237 -4 c 1
 -237 -4 -255 -27 -255 -27 c 1
EndSplineSet
Validated: 1
EndChar
StartChar: uni0328
Encoding: 350 808 155
Width: 0
GlyphClass: 4
Flags: W
HStem: -218 59<-276.495 -203.867>
VStem: -335 54<-155.236 -80.9335>
LayerCount: 2
Back
Fore
SplineSet
-181 42 m 0
 -164 42 -140 37 -152 25 c 0
 -175 3 -281 -52 -281 -116 c 0
 -281 -131 -274 -159 -240 -159 c 0
 -189 -159 -165 -121 -159 -121 c 0
 -158 -121 -154 -126 -154 -134 c 0
 -154 -139 -156 -147 -159 -151 c 0
 -181 -180 -219 -218 -264 -218 c 0
 -320 -218 -335 -168 -335 -141 c 0
 -335 -75 -210 42 -181 42 c 0
EndSplineSet
Validated: 33
EndChar
StartChar: uni0370
Encoding: 1044 880 245
Width: 426
Flags: W
HStem: 307 41<126.756 305.102> 644 20G<61 76.5>
VStem: 59 64<2.06067 298.299 347 588.421>
LayerCount: 2
Back
Fore
SplineSet
196 348 m 0
 262 348 299 355 328 387 c 0
 330 390 334 387 337 385 c 1
 347 370 373 311 381 287 c 1
 382 280 372 272 366 270 c 1
 323 298 316 307 253 307 c 0
 229 307 204 308 123 295 c 1
 123 266 124 241 124 218 c 0
 125 148 134 22 142 1 c 1
 135 -9 127 -16 117 -16 c 0
 111 -16 52 5 52 20 c 2
 52 20 59 207 59 354 c 0
 59 375 52 542 42 647 c 1
 44 653 58 664 64 664 c 0
 89 664 133 643 133 627 c 0
 133 620 123 532 123 468 c 0
 123 423 123 383 123 347 c 1
 123 347 177 348 196 348 c 0
EndSplineSet
Validated: 33
EndChar
StartChar: uni0371
Encoding: 1045 881 246
Width: 383
VWidth: 295
Flags: W
HStem: -6 21G<143 154> 362 71<52.1115 118.111>
VStem: 97 75<8.625 125.653> 145 34<157.004 187.212 221 318.668>
LayerCount: 2
Back
Fore
SplineSet
175 221 m 1xd0
 234 240 315 276 339 286 c 1
 348 286 360 287 363 281 c 1
 364 274 338 216 316 209 c 0
 294 202 246 197 204 190 c 0
 188 187 179 172 179 170 c 0xd0
 179 162 177 163 177 140 c 0
 177 90 176 44 172 14 c 1
 167 6 160 -6 148 -6 c 0
 138 -6 97 20 97 33 c 0xe0
 97 57 106 83 129 157 c 0
 133 169 145 200 145 200 c 1
 145 281 130 362 84 362 c 0
 58 362 34 341 27 332 c 1
 24 332 20 337 17 342 c 0
 15 346 14 350 14 353 c 0
 27 397 67 433 107 433 c 0
 155 432 172 311 175 221 c 1xd0
EndSplineSet
Validated: 33
EndChar
StartChar: uni0372
Encoding: 1046 882 247
Width: 562
Flags: W
HStem: 621 40<102.278 236 299 422.943>
VStem: 33 27<386.927 478.246> 231 74<2.06936 621> 514 28<385.365 426.247>
LayerCount: 2
Back
Fore
SplineSet
381 621 m 2
 381 621 299 621 299 621 c 1
 299 564 304 287 305 230 c 0
 306 160 311 22 319 1 c 1
 312 -9 304 -16 294 -16 c 0
 288 -16 231 5 231 20 c 2
 231 20 236 621 236 621 c 1
 236 621 145 621 145 621 c 2
 77 621 60 524 60 392 c 1
 58 388 40 380 33 385 c 1
 23 410 9 615 5 632 c 1
 29 650 77 661 121 661 c 2
 121 661 308 661 308 661 c 2
 370 661 385 661 473 662 c 1
 515 617 542 436 542 395 c 1
 540 385 523 377 514 379 c 1
 489 473 452 621 381 621 c 2
EndSplineSet
Validated: 33
EndChar
StartChar: uni0373
Encoding: 1047 883 248
Width: 218
Flags: W
HStem: 348 73<63.2056 260.347> 362 72<-63.2598 121.433>
VStem: 51 61<-152.239 60.3147> 69 36<161.685 357>
LayerCount: 2
Back
Fore
SplineSet
105 357 m 1x90
 105 294 105 168 112 47 c 24
 117 -33 128 -137 136 -157 c 1
 129 -167 121 -174 111 -174 c 0
 105 -174 50 -153 51 -138 c 2xa0
 51 -138 69 360 69 360 c 1
 57 361 46 362 36 362 c 0
 -45 362 -73 342 -90 306 c 1
 -93 303 -100 303 -105 305 c 1
 -107 310 -109 326 -109 336 c 0
 -109 421 -27 434 17 434 c 0x50
 76 434 143 421 176 421 c 0
 233 421 266 433 278 444 c 1
 283 444 295 440 296 435 c 1
 296 428 279 348 196 348 c 0
 174 348 140 353 105 357 c 1x90
EndSplineSet
Validated: 33
EndChar
StartChar: uni0374
Encoding: 1048 884 249
Width: 237
VWidth: 1000
Flags: W
HStem: 501 194
VStem: 128 80<632.391 690.786>
LayerCount: 2
Back
Fore
SplineSet
174 695 m 0
 196 695 208 679 208 674 c 0
 208 630 91 505 75 501 c 1
 68 501 62 506 61 513 c 0
 60 519 101 630 128 677 c 0
 132 684 152 695 174 695 c 0
EndSplineSet
Validated: 33
EndChar
StartChar: uni0375
Encoding: 1049 885 250
Width: 235
VWidth: 1000
Flags: W
HStem: -81 193
VStem: 24 81<-76.9183 -19.3148>
LayerCount: 2
Back
Fore
SplineSet
59 -81 m 0
 37 -81 24 -64 24 -61 c 0
 24 -17 142 108 158 112 c 1
 165 112 170 107 171 101 c 0
 172 95 131 -17 105 -64 c 0
 101 -70 81 -81 59 -81 c 0
EndSplineSet
Validated: 33
EndChar
StartChar: uni0376
Encoding: 1050 886 251
Width: 553
Flags: W
HStem: -2 21G<75 156> 651 13G<65 80.5 472 481.5>
VStem: 66 51<153.705 595.412> 75 37<65 218.027> 434 54<429.472 516>
LayerCount: 2
Back
Fore
SplineSet
117 394 m 0xe8
 112 264 112 174 112 65 c 1
 157 137 216 249 269 347 c 0
 323 446 389 571 426 638 c 1
 431 644 465 671 479 671 c 0
 484 671 488 656 488 648 c 0
 477 459 470 290 488 37 c 1
 474 13 442 -3 414 -14 c 1
 408 -12 400 -2 399 3 c 1
 415 53 430 148 434 258 c 1
 437 378 436 444 433 516 c 1
 405 455 367 385 330 310 c 0
 281 210 218 98 172 23 c 1
 154 8 92 -2 92 -2 c 0
 92 -2 75 6 75 15 c 1xd8
 71 198 75 126 66 375 c 0
 65 396 56 542 46 647 c 1
 48 653 62 664 68 664 c 0
 93 664 131 643 131 627 c 0
 131 620 120 485 117 394 c 0xe8
EndSplineSet
Validated: 33
EndChar
StartChar: uni0377
Encoding: 1051 887 252
Width: 511
Flags: W
HStem: -3 22G<165.5 172.5 463.5 477.5> 362 71<57.1115 136.359>
VStem: 157 30<117.664 317.541> 350 55<356.062 391.895>
LayerCount: 2
Back
Fore
SplineSet
184 292 m 0
 191 229 191 148 187 117 c 1
 262 212 334 341 350 428 c 1
 355 437 405 391 405 379 c 0
 405 373 405 350 406 329 c 0
 409 285 421 216 440 156 c 0
 455 108 485 68 496 58 c 0
 503 52 483 -2 472 -2 c 0
 455 -2 425 75 411 131 c 0
 395 196 387 248 381 298 c 1
 351 221 235 58 194 10 c 0
 186 0 176 -3 169 -3 c 0
 162 -3 131 34 131 47 c 1
 131 54 145 73 152 103 c 0
 158 129 157 191 157 247 c 16
 157 328 135 362 89 362 c 0
 63 362 39 341 32 332 c 1
 29 332 25 337 22 342 c 0
 20 346 19 350 19 353 c 0
 32 397 72 433 112 433 c 0
 160 432 176 360 184 292 c 0
EndSplineSet
Validated: 33
EndChar
StartChar: uni037A
Encoding: 1052 890 253
Width: 229
VWidth: 1000
Flags: W
HStem: -208 60<77 156.714>
VStem: 41 59<-141.531 -47.2925>
LayerCount: 2
Back
Fore
SplineSet
55 -41 m 4
 66 -41 100 -54 100 -66 c 4
 100 -76 100 -92 100 -102 c 4
 100 -141 131 -148 148 -148 c 4
 161 -148 169 -147 176 -143 c 5
 181 -146 183 -154 183 -157 c 5
 174 -174 138 -208 101 -208 c 4
 53 -208 41 -159 41 -118 c 6
 41 -118 41 -64 41 -53 c 4
 41 -48 52 -41 55 -41 c 4
EndSplineSet
Validated: 1
EndChar
StartChar: uni037B
Encoding: 1053 891 254
Width: 426
VWidth: 295
Flags: W
HStem: -5 67<101.961 245.562> 375 63<101.439 282.929>
VStem: 339 47<161.664 327.552>
LayerCount: 2
Back
Fore
SplineSet
61 83 m 1
 70 75 115 62 169 62 c 0
 269 62 339 158 339 254 c 0
 339 358 255 375 206 375 c 0
 142 375 83 350 39 316 c 1
 36 316 32 320 32 323 c 0
 32 333 38 353 42 361 c 1
 73 419 137 438 196 438 c 0
 311 438 386 337 386 234 c 0
 386 79 290 -5 191 -5 c 3
 107 -5 71 39 60 53 c 1
 55 64 55 79 61 83 c 1
EndSplineSet
Validated: 1
EndChar
StartChar: uni037C
Encoding: 1054 892 255
Width: 426
VWidth: 295
Flags: W
HStem: -5 63<143.071 324.561> 175 88<201.895 278.105> 371 67<180.438 324.039>
VStem: 40 47<105.448 271.336> 196 88<180.895 257.105>
LayerCount: 2
Back
Fore
SplineSet
196 219 m 0
 196 243 216 263 240 263 c 0
 264 263 284 243 284 219 c 0
 284 195 264 175 240 175 c 0
 216 175 196 195 196 219 c 0
365 350 m 1
 356 358 311 371 257 371 c 0
 157 371 87 275 87 179 c 0
 87 75 171 58 220 58 c 0
 284 58 343 83 387 117 c 1
 390 117 394 113 394 110 c 0
 394 100 388 80 384 72 c 1
 353 14 289 -5 230 -5 c 0
 115 -5 40 96 40 199 c 0
 40 354 136 438 235 438 c 3
 319 438 355 394 366 380 c 1
 371 369 371 354 365 350 c 1
EndSplineSet
Validated: 1
EndChar
StartChar: uni037D
Encoding: 1055 893 256
Width: 426
VWidth: 295
Flags: W
HStem: -5 67<101.961 245.562> 175 88<142.895 219.105> 375 63<101.439 282.929>
VStem: 137 88<180.895 257.105> 339 47<161.664 327.552>
LayerCount: 2
Back
Fore
SplineSet
137 219 m 0
 137 243 157 263 181 263 c 0
 205 263 225 243 225 219 c 0
 225 195 205 175 181 175 c 0
 157 175 137 195 137 219 c 0
61 83 m 1
 70 75 115 62 169 62 c 0
 269 62 339 158 339 254 c 0
 339 358 255 375 206 375 c 0
 142 375 83 350 39 316 c 1
 36 316 32 320 32 323 c 0
 32 333 38 353 42 361 c 1
 73 419 137 438 196 438 c 0
 311 438 386 337 386 234 c 0
 386 79 290 -5 191 -5 c 3
 107 -5 71 39 60 53 c 1
 55 64 55 79 61 83 c 1
EndSplineSet
Validated: 1
EndChar
StartChar: uni037E
Encoding: 1056 894 257
Width: 237
VWidth: 1000
Flags: W
HStem: 310 120<71.1521 163.661>
VStem: 57 120<324.068 416.578> 93 78<-59.5478 87.3634>
LayerCount: 2
Back
Fore
SplineSet
171 39 m 0xa0
 171 11 168 -12 161 -33 c 0
 145 -81 108 -115 48 -165 c 0
 46 -166 43 -167 41 -167 c 0
 30 -167 20 -145 20 -140 c 0
 20 -131 93 -96 93 -14 c 0
 93 36 66 51 66 68 c 0
 66 93 99 124 136 124 c 0
 144 124 148 121 154 117 c 1
 170 102 171 70 171 39 c 0xa0
57 370 m 0xc0
 57 404 85 430 118 430 c 0
 151 430 177 404 177 370 c 0
 177 338 151 310 118 310 c 0
 85 310 57 338 57 370 c 0xc0
EndSplineSet
Validated: 1
EndChar
StartChar: tonos
Encoding: 988 900 243
Width: 200
VWidth: 1000
Flags: W
HStem: 493 211
VStem: 41 114
LayerCount: 2
Back
Fore
SplineSet
129 704 m 0
 150 704 155 692 155 681 c 0
 155 631 64 496 56 493 c 0
 55 493 54 493 53 493 c 0
 49 493 41 497 41 502 c 0
 41 511 63 622 83 679 c 0
 87 689 111 704 129 704 c 0
EndSplineSet
Validated: 1
EndChar
StartChar: dieresistonos
Encoding: 1395 901 260
Width: 347
VWidth: 1000
Flags: W
HStem: 442.347 215.001 453 80<74.4191 146.793 268.419 339.633>
VStem: 70 81<457.393 528.793> 175.044 103 264 80<457.393 528.793>
LayerCount: 2
Back
Fore
SplineSet
111 533 m 4x60
 134 533 151 516 151 493 c 4
 151 471 134 453 111 453 c 4
 88 453 70 471 70 493 c 4
 70 516 88 533 111 533 c 4x60
305 533 m 4
 326 533 344 516 344 493 c 4
 344 471 326 453 305 453 c 4
 282 453 264 471 264 493 c 4x68
 264 516 282 533 305 533 c 4
EndSplineSet
Refer: 243 900 S 0.903508 0 0 1.01896 138 -60 2
Validated: 1
EndChar
StartChar: Psi
Encoding: 556 936 223
Width: 1024
LayerCount: 2
Back
SplineSet
58 656 m 0
 123 656 162 577 192 480 c 0
 216.644 400.319 256.762 348.899 335.983 341.05 c 1
 335.994 345.397 336 349.715 336 354 c 0
 336 375 329 542 319 647 c 1
 321 653 335 664 341 664 c 0
 366 664 410 643 410 627 c 0
 410 620 400 532 400 468 c 0
 400 423.082 400.068 383.167 400.068 347.573 c 1
 458.263 368.834 507.24 432.858 547 514 c 0
 578.294 577.865 611 648 679 662 c 0
 702.911 666.923 740 646 748 628 c 0
 749 624 749 610 744 610 c 1
 736 618 720 623 705 623 c 0
 668 623 634 546 607 498 c 0
 549.315 395.448 509.445 311.79 400.227 297.996 c 1
 400.372 267.887 400.61 241.42 401 218 c 0
 402.167 148.003 411 22 419 1 c 1
 412 -9 404 -16 394 -16 c 0
 388 -16 329 5 329 20 c 2
 329 20 334.37 163.461 335.703 297.85 c 1
 235 303 162 366 119 491 c 0
 98.4268 550.806 68 616 30 616 c 0
 20 616 13 615 1 609 c 1025
EndSplineSet
Fore
Validated: 1
EndChar
StartChar: uni03D8
Encoding: 1004 984 244
Width: 1024
LayerCount: 2
Back
SplineSet
373 667 m 0
 549 667 699 527 699 328 c 0
 699 157.904 574.893 17.5937 420 -6.3833 c 1
 420 -108 l 2
 420 -138 420 -166 425 -182 c 0
 428 -193 482 -198 494 -198 c 1
 498 -203 499 -222 494 -227 c 1
 453 -225 416 -222 377 -222 c 0
 338 -222 300 -225 259 -227 c 1
 254 -222 255 -203 259 -198 c 1
 271 -198 325 -193 328 -182 c 0
 333 -166 333 -138 333 -108 c 2
 333 -7.55996 l 1
 175.14 11.8458 49 145.206 49 328 c 0
 49 515 197 667 373 667 c 0
358 633 m 0
 208 633 148 484 148 350 c 0
 148 195 234 24 389 24 c 0
 539 24 600 174 600 309 c 0
 600 464 513 633 358 633 c 0
EndSplineSet
Fore
Validated: 1
EndChar
StartChar: afii10058
Encoding: 1066 1033 258
Width: 1024
LayerCount: 2
Back
SplineSet
300 633 m 1
 288 633 234 628 231 617 c 0
 226 601 226 573 226 543 c 1026
EndSplineSet
Fore
Validated: 1
EndChar
StartChar: si_A
Encoding: 0 3461 373
Width: 573
VWidth: 1000
GlyphClass: 2
Flags: W
HStem: -4.5 27.4375<207.344 359 388 418.977> 200 29<388 447.437> 287 22<183.944 316> 393 40.0256<198.399 289.333>
VStem: 32.7576 80.2424<87.7183 235.756> 316 31<309 361.269> 359 29<-215 0 29 206 229.61 379.885> 463.125 62.8893<240.203 339.641>
LayerCount: 2
Back
Fore
SplineSet
424 401 m 1
 400 388.333333333 388 360.333333333 388 317 c 2
 388 317 388 233 388 233 c 1
 396 230.333333333 403.666666667 229 411 229 c 0
 425.666666667 229 437.833333333 233.5 447.5 242.5 c 0
 457.916539048 252.198157045 463.124808572 265.015898303 463.124808572 280.953223775 c 0
 463.124808572 303.849198638 451.083205715 334.864790713 427 374 c 0
 421.666666667 382.666666667 420.666666667 391.666666667 424 401 c 1
316 309 m 1
 314.666666667 348.333333333 298.666666667 374 268 386 c 0
 256 390.666666667 245.25 393 235.75 393 c 0
 226.25 393 218 390.666666667 211 386 c 0
 203.666666667 381.333333333 195 370.666666667 185 354 c 0
 177.666666667 341.333333333 166.666666667 334 152 332 c 0
 149.333333333 331.6 146.773333333 331.4 144.32 331.4 c 0
 134.506666667 331.4 126.4 334.6 120 341 c 0
 112 349 108 359 108 371 c 0
 108 379.666666667 110.333333333 387.666666667 115 395 c 0
 131.666666667 419 164.666666667 431.666666667 214 433 c 0
 215.008547009 433.017094017 216.012272628 433.025641026 217.011176857 433.025641026 c 0
 254.969537585 433.025641026 285.965811966 420.683760684 310 396 c 0
 335.333333333 368.666666667 347.666666667 332.333333333 347 287 c 1
 347 287 236 287 236 287 c 2
 200 287 170.5 275 147.5 251 c 0
 124.5 227 113 198 113 164 c 0
 113 86.6666666667 158.666666667 40.6666666667 250 26 c 0
 263.416666667 23.9583333333 277.91796875 22.9375 293.50390625 22.9375 c 0
 313.54296875 22.9375 335.375 24.625 359 28 c 1
 359 28 359 313 359 313 c 2
 359 350.333333333 368 379.666666667 386 401 c 0
 401.333333333 418.333333333 419 429.666666667 439 435 c 1
 439 435 462 424 462 424 c 1
 450.666666667 420 445 413 445 403 c 0
 445 399.666666667 446.166666667 396 448.5 392 c 0
 450.833333333 388 465 374.666666667 491 352 c 0
 511 334.666666667 522.333333333 316 525 296 c 0
 525.676056338 291.154929577 526.014084507 286.466970839 526.014084507 281.936123785 c 0
 526.014084507 259.659459102 517.842723005 241.180751174 501.5 226.5 c 0
 481.833333333 208.833333333 457.333333333 200 428 200 c 0
 414.666666667 200 401.333333333 202 388 206 c 1
 388 206 388 29 388 29 c 1
 412.666666667 33 437.666666667 40 463 50 c 0
 481.666666667 57.3333333333 501.666666667 68.3333333333 523 83 c 1
 523 83 523 51 523 51 c 1
 509.666666667 43 492.666666667 34.6666666667 472 26 c 0
 451.333333333 17.3333333333 423.333333333 9.33333333333 388 2 c 1
 388 2 388 -215 388 -215 c 1
 388 -215 359 -215 359 -215 c 1
 359 -215 359 0 359 0 c 1
 331.5 -3 305.875 -4.5 282.125 -4.5 c 0
 274.208333333 -4.5 266.5 -4.33333333333 259 -4 c 0
 112.333333333 4 37 55.6666666667 33 151 c 0
 32.8383838384 154.393939394 32.7575757576 157.738904194 32.7575757576 161.034894399 c 0
 32.7575757576 212.122742578 52.1717171717 251.444444445 91 279 c 0
 119 299 157.333333333 309 206 309 c 2
 206 309 316 309 316 309 c 1
EndSplineSet
Validated: 524321
EndChar
StartChar: si_Ii
Encoding: 0 3466 378
Width: 528
VWidth: 1000
GlyphClass: 2
Flags: W
HStem: 0 73<154.306 335.329> 403 27<418.777 476.281> 414 23.2857<247.709 328.2> 474 27<155.16 213.368> 505 27<418.241 476.767> 576 27<154.099 213.338>
VStem: 31 35<165.864 302.318> 117 28<510.735 566.995> 224 25<511.98 565.507> 381 27<440.4 494.96> 430 52.0183<168.688 321.641> 486 26<440.361 494.995>
LayerCount: 2
Back
Fore
SplineSet
408 468 m 0xdff0
 408 457.333333333 411.833333333 448.333333333 419.5 441 c 0
 427.166666667 433.666666667 436.333333333 430 447 430 c 0
 457.666666667 430 466.833333333 433.833333333 474.5 441.5 c 0
 482.166666667 449.166666667 486 458 486 468 c 0
 486 478.666666667 482 487.5 474 494.5 c 0
 466 501.5 457 505 447 505 c 0
 436.333333333 505 427.166666667 501.5 419.5 494.5 c 0
 411.833333333 487.5 408 478.666666667 408 468 c 0xdff0
145 540 m 0
 145 529.333333333 149 520.166666667 157 512.5 c 0
 165 504.833333333 174.333333333 501 185 501 c 0
 195.666666667 501 204.833333333 504.666666667 212.5 512 c 0
 220.166666667 519.333333333 224 528.333333333 224 539 c 0
 224 549.666666667 220 558.5 212 565.5 c 0
 204 572.5 194.666666667 576 184 576 c 0
 174 576 165 572.5 157 565.5 c 0
 149 558.5 145 550 145 540 c 0
445 532 m 0
 463 532 478.666666667 525.666666667 492 513 c 0
 505.333333333 500.333333333 512 485 512 467 c 0
 512 450.333333333 506 435.5 494 422.5 c 0
 482 409.5 466.666666667 403 448 403 c 0
 430 403 414.333333333 409.333333333 401 422 c 0
 387.666666667 434.666666667 381 450 381 468 c 0
 381 484.666666667 387.166666667 499.5 399.5 512.5 c 0
 411.833333333 525.5 427 532 445 532 c 0
119 355 m 0
 83.6666666667 322.333333333 66 283 66 237 c 0
 66 193.666666667 82.3333333333 156 115 124 c 0
 149.666666667 90 192.666666667 73 244 73 c 0
 302 73 349 94 385 136 c 0
 415 171.333333333 430 210.666666667 430 254 c 0
 430 299.333333333 413.333333333 338 380 370 c 0
 349.333333333 399.333333333 311.333333333 414 266 414 c 0xbff0
 210.666666667 414 161.666666667 394.333333333 119 355 c 0
170 422 m 0
 186.666666667 430.666666667 208.333333333 443 235 459 c 0
 249 467 273.333333333 486.333333333 308 517 c 0
 323.333333333 533 339.666666667 553.333333333 357 578 c 0
 370.333333333 596.666666667 382 610 392 618 c 0
 396.666666667 621.333333333 402.333333333 623 409 623 c 0
 425 623 433 617.333333333 433 606 c 0
 433 586 408.666666667 555.666666667 360 515 c 0
 327.333333333 487.666666667 289.666666667 461.333333333 247 436 c 1
 254.428571429 436.857142857 261.489795918 437.285714286 268.183673469 437.285714286 c 0
 277.108843537 437.285714286 285.380952381 436.523809524 293 435 c 0
 348.333333333 429.666666667 393.833333333 406.833333333 429.5 366.5 c 0
 464.512232416 326.906727829 482.018348624 279.764946834 482.018348624 225.074657015 c 0
 482.018348624 155.58806332 452.345565749 96.2298443147 393 47 c 0
 355 15.6666666667 306.666666667 0 248 0 c 0
 185.333333333 0 133.5 20 92.5 60 c 0
 51.5 100 31 151 31 213 c 0
 31 267.666666667 46 312.333333333 76 347 c 0
 100.666666667 375.666666667 132 400.666666667 170 422 c 0
181 603 m 0
 199 603 214.833333333 596.666666667 228.5 584 c 0
 242.166666667 571.333333333 249 556 249 538 c 0
 249 521.333333333 242.833333333 506.5 230.5 493.5 c 0
 218.166666667 480.5 202.666666667 474 184 474 c 0
 166 474 150.333333333 480.166666667 137 492.5 c 0
 123.666666667 504.833333333 117 520.666666667 117 540 c 0
 117 556 123.166666667 570.5 135.5 583.5 c 0
 147.833333333 596.5 163 603 181 603 c 0
EndSplineSet
Validated: 524289
EndChar
StartChar: si_vocalicU
Encoding: -1 3471 383
Width: 805
VWidth: 1000
GlyphClass: 2
Flags: W
HStem: 0 71<255.12 542.813> 1.8 26.2<109.813 153.228 638.221 683.512> 78 29<107.911 150.721 637.201 683.063> 282.6 22.7333<246.266 341.719 438.659 549.49> 390.333 41.8974<247.419 328.546> 400.64 31.36<468.374 572.064> 452.15 27.0695<135.928 179.928 597.945 657.168>
VStem: 31 31<125.566 348.754> 135.9 38.0872<130.239 230.918> 158 89<331.25 388.519> 190 32<426.312 451.624> 342 30<305 371.647> 408 30<304 370.384> 569 27<406.194 450.747> 591 30<302.254 380.499> 608.2 26.1667<38.4903 60.8964> 615.427 36.8115<124.967 235.622> 729 32<117.963 340.121>
LayerCount: 2
Back
Fore
SplineSet
274 431 m 0x7b3940
 339.333333333 423.666666667 372 388 372 324 c 0
 372 310 370 295.333333333 366 280 c 1
 310 280 278 279.333333333 270 278 c 0
 245.333333333 274 223.333333333 262.666666667 204 244 c 0
 183.991452991 224.681402888 173.987179487 202.546075253 173.987179487 177.594017094 c 0
 173.987179487 141.616809117 199.324786325 114.085470085 250 95 c 0
 292 79 342.333333333 71 401 71 c 0
 543.951566951 71 615.427350427 105.821535539 615.427350427 175.464606618 c 0
 615.427350427 178.573672291 615.284900285 181.752136752 615 185 c 0
 610.333333333 238.333333333 578.333333333 269.666666667 519 279 c 0
 503.8 281.4 485.12 282.6 462.96 282.6 c 0
 448.186666667 282.6 431.866666667 282.066666667 414 281 c 1
 410 295 408 308.666666667 408 322 c 0
 408 354.666666667 418.833333333 381 440.5 401 c 0
 462.166666667 421 492 431.333333333 530 432 c 0
 548.666666667 432 563 428.666666667 573 422 c 1
 570.333333333 429.333333333 569 436.333333333 569 443 c 0xb7bcc0
 569 467.142857143 584.807823129 479.214285714 616.423469388 479.214285714 c 0
 618.855442177 479.214285714 621.380952381 479.142857143 624 479 c 0
 669.333333333 476.333333333 705 446.666666667 731 390 c 0
 751 344.666666667 761 295.666666667 761 243 c 0
 761 184.333333333 752 131 734 83 c 0
 714 31.6666666667 690 4.66666666667 662 2 c 0
 660.290598291 1.86324786325 658.612754767 1.79487179487 656.966469428 1.79487179487 c 0
 642.561472715 1.79487179487 630.572649573 7.02991452991 621 17.5 c 0xb71a40
 612.466666667 26.8333333333 608.2 37.98 608.2 50.94 c 0
 608.2 54.18 608.466666667 57.5333333333 609 61 c 1
 563.666666667 20.3333333333 494.333333333 0 401 0 c 0xb71940
 302.333333333 0 230 20.3333333333 184 61 c 1
 184.507936508 57.8253968254 184.761904762 54.7354497355 184.761904762 51.7301587302 c 0
 184.761904762 38.9576719577 180.174603175 27.7142857143 171 18 c 0
 160.8 7.2 148.71 1.8 134.73 1.8 c 0
 133.176666667 1.8 131.6 1.86666666667 130 2 c 0
 101.333333333 4.66666666667 77.3333333333 31.3333333333 58 82 c 0
 40 129.333333333 31 182 31 240 c 0
 31 252.666666667 31.6666666667 265 33 277 c 0
 37.6666666667 328.333333333 51 373 73 411 c 0
 99 454.333333333 130.333333333 477 167 479 c 0
 169.682926829 479.146341463 172.267697799 479.219512195 174.754312909 479.219512195 c 0
 206.251437636 479.219512195 222 467.479674797 222 444 c 0
 222 438.666666667 221 432.666666667 219 426 c 1
 230.076923077 430.153846154 242.272189349 432.230769231 255.585798817 432.230769231 c 0
 261.50295858 432.230769231 267.641025641 431.820512821 274 431 c 0x7b3940
180 452 m 0
 178.466666667 452.1 176.9425 452.15 175.4275 452.15 c 0
 146.6425 452.15 121.166666667 434.1 99 398 c 0
 77.6666666667 362.666666667 65.6666666667 322.333333333 63 277 c 0
 62.3333333333 262.333333333 62 248.666666667 62 236 c 0
 62 184 72 132 92 80 c 1
 101.333333333 98 114 107 130 107 c 0
 136.666666667 107 143.666666667 105.666666667 151 103 c 1
 141.666666667 119 136.666666667 140.666666667 136 168 c 0
 135.933333333 169.733333333 135.9 171.455 135.9 173.165 c 0x3bb840
 135.9 205.655 147.933333333 233.933333333 172 258 c 0
 195.333333333 281.333333333 224.333333333 295.666666667 259 301 c 0
 276.333333333 303.666666667 303.333333333 305 340 305 c 1
 341.333333333 311 342 317.333333333 342 324 c 0
 342 364.666666667 324 386.666666667 288 390 c 0
 285.555555555 390.222222222 283.213991769 390.333333333 280.975308642 390.333333333 c 0
 263.065843621 390.333333333 251.740740741 383.222222222 247 369 c 0
 237.666666667 341.666666667 225 326.333333333 209 323 c 0
 204.333333333 322.333333333 200 322 196 322 c 0
 170.666666667 322 158 334.333333333 158 359 c 0x3b5840
 158 375 166 390 182 404 c 1
 187.333333333 412.666666667 190 423 190 435 c 0
 190 445.666666667 186.666666667 451.333333333 180 452 c 0
704 84 m 1
 720.666666667 140.111111111 729 194.370370371 729 246.777777778 c 0
 729 257.259259259 728.666666667 267.666666667 728 278 c 0
 725.333333333 323.333333333 713.666666667 363.333333333 693 398 c 0
 671.758620689 434.045977011 646.788347205 452.068965517 618.089179548 452.068965517 c 0
 617.064209275 452.068965517 616.034482759 452.045977011 615 452 c 0
 602.333333333 451.333333333 596 443.333333333 596 428 c 0x331cc0
 596 418 599 407 605 395 c 1
 615.666666667 384.333333333 621 366 621 340 c 0x331a40
 621 316 611.666666667 297.333333333 593 284 c 1
 632.492537313 256.417910448 652.23880597 217.047003787 652.23880597 165.887280018 c 0x3318c0
 652.23880597 162.639043588 652.15920398 159.343283582 652 156 c 0
 650.666666667 133.333333333 645.666666667 115 637 101 c 1
 644.333333333 105.666666667 652.333333333 108 661 108 c 0
 680.333333333 108 694.666666667 100 704 84 c 1
661 78 m 0
 657.666666667 78 654.666666667 77.3333333333 652 76 c 0
 640.244444445 71.4 634.366666667 64.252962963 634.366666667 54.5588888889 c 0
 634.366666667 51.6085185185 634.911111111 48.4222222222 636 45 c 0
 641.333333333 33.6666666667 649.666666667 28 661 28 c 0x731940
 664.333333333 28 667.333333333 28.6666666667 670 30 c 0
 680.666666667 33.3333333333 686 41 686 53 c 0
 686 59.6666666667 683.333333333 65.5 678 70.5 c 0
 672.666666667 75.5 667 78 661 78 c 0
569 295 m 1x371c40
 583.666666667 307.666666667 591 323.333333333 591 342 c 0x371a40
 591 356.666666667 586 369.666666667 576 381 c 0
 566 392.333333333 552.333333333 398.666666667 535 400 c 0
 530.52 400.426666667 526.163733333 400.64 521.9312 400.64 c 0
 499.7104 400.64 480.9 394.76 465.5 383 c 0
 447.166666667 369 438 350.333333333 438 327 c 0
 438 319.666666667 439 312 441 304 c 1
 458.777777778 304.888888889 473 305.333333333 483.666666667 305.333333333 c 0
 489 305.333333333 493.444444445 305.222222222 497 305 c 0
 513.666666667 304.333333333 537.666666667 301 569 295 c 1x371c40
107 62 m 0
 103.666666667 54 104.666666667 46.3333333333 110 39 c 0
 115.333333333 31.6666666667 122.333333333 28 131 28 c 0x731840
 143 28 151 33.6666666667 155 45 c 0
 157.666666667 53 156.5 60.5 151.5 67.5 c 0
 146.5 74.5 139.666666667 78 131 78 c 0
 119.666666667 78 111.666666667 72.6666666667 107 62 c 0
EndSplineSet
Validated: 524293
EndChar
StartChar: si_Oo
Encoding: 0 3477 389
Width: 636
VWidth: 1000
GlyphClass: 2
Flags: W
HStem: -0.384615 70.1237<127.953 273.688 340.798 476.786> 223.59 30.379<241.6 353> 291 30<286.649 352.471> 406.157 25.8429<111.465 169.317 287.407 349.592> 491.308 29.0081<166.362 393> 591 32.3684<173.77 381.997>
VStem: 30.4565 30.5435<165.31 328.437> 98 41<526.359 567.662> 170 29.2807<298.964 404.074> 243.158 30.8421<332.979 396.304> 294 22<105.986 167> 363 29<339.375 365> 393.923 28.188<294.843 364.002> 552.231 36.7692<173.027 355.996>
LayerCount: 2
Back
Fore
SplineSet
165 510 m 1
 193.982456141 516.877192983 228.213296399 520.315789474 267.692520776 520.315789474 c 0
 281.792243767 520.315789474 296.561403509 519.877192983 312 519 c 0
 373.333333333 515.666666667 420 504.666666667 452 486 c 0
 489.333333333 464.666666667 515.666666667 442.333333333 531 419 c 1
 520.333333333 455.666666667 502.666666667 488 478 516 c 0
 460 536 435 553 403 567 c 0
 371 581 340.666666667 588.666666667 312 590 c 0
 299.777777778 590.666666667 288.148148148 591 277.111111111 591 c 0
 221.925925926 591 181.555555555 582.666666667 156 566 c 0
 144.666666667 558.666666667 139 551.333333333 139 544 c 0
 139 535.333333333 145 529.666666667 157 527 c 0
 166.333333333 525 169 519.333333333 165 510 c 1
444 458 m 0
 401.333333333 478.666666667 351.666666667 489.666666667 295 491 c 0
 287.512820513 491.205128205 280.159763313 491.307692308 272.940828402 491.307692308 c 0
 233.236686391 491.307692308 197.58974359 488.205128205 166 482 c 0
 131.333333333 475.333333333 90 462 42 442 c 1
 42 442 42 474 42 474 c 1
 62.6666666667 480.666666667 83 487.666666667 103 495 c 0
 120.333333333 501 128 506.666666667 126 512 c 1
 121.333333333 514.666666667 115.5 518.833333333 108.5 524.5 c 0
 101.5 530.166666667 98 536.333333333 98 543 c 0
 98 551.666666667 102.666666667 561.666666667 112 573 c 0
 132 596.333333333 169.333333333 612 224 620 c 0
 240.561403509 622.245614035 257.24099723 623.368421053 274.038781163 623.368421053 c 0
 297.135734072 623.368421053 320.456140351 621.245614035 344 617 c 0
 409.333333333 604.333333333 460 578.333333333 496 539 c 0
 538.666666667 491.666666667 564 430.666666667 572 356 c 1
 578.666666667 341.333333333 583.166666667 324.5 585.5 305.5 c 0
 587.833333333 286.5 589 268 589 250 c 0
 589 188 577 133.666666667 553 87 c 0
 523 29 479.333333333 0 422 0 c 0
 396.666666667 0 373.333333333 4.33333333333 352 13 c 0
 327.333333333 23 311.666666667 37 305 55 c 1
 284.692307692 18.0769230769 248.479289941 -0.384615384615 196.360946746 -0.384615384615 c 0
 192.017751479 -0.384615384615 187.564102564 -0.25641025641 183 0 c 0
 135 2.66666666667 96.3333333333 29.3333333333 67 80 c 0
 42.6376811594 122.188405797 30.4565217391 169.672967864 30.4565217391 222.4536862 c 0
 30.4565217391 228.890359168 30.6376811594 235.405797101 31 242 c 0
 33.6666666667 291.333333333 43.6666666667 333.333333333 61 368 c 0
 83 410.666666667 112.666666667 432 150 432 c 0
 182.853801169 432 199.280701754 410.385657125 199.280701754 367.156971376 c 0
 199.280701754 363.894429055 199.187134503 360.50877193 199 357 c 0
 198.90960452 355.101694915 198.86440678 353.220243225 198.86440678 351.35564493 c 0
 198.86440678 325.717418367 207.40960452 303.265536723 224.5 284 c 0
 242.260416667 263.979166667 264.869628906 253.96875 292.327636719 253.96875 c 0
 293.213378906 253.96875 294.104166667 253.979166667 295 254 c 0
 341 254.666666667 372.333333333 273.666666667 389 311 c 0
 392.282051282 318.384615385 393.923076923 328.041420118 393.923076923 339.970414201 c 0
 393.923076923 347.426035503 393.282051282 355.769230769 392 365 c 1
 392.666666667 345 385.833333333 327.666666667 371.5 313 c 0
 357.166666667 298.333333333 339.333333333 291 318 291 c 0
 312 291 305.666666667 291.666666667 299 293 c 0
 279.666666667 297.666666667 265 307.333333333 255 322 c 0
 247.105263158 333.578947369 243.157894737 346.404432133 243.157894737 360.476454294 c 0
 243.157894737 364.228993537 243.438596491 368.070175439 244 372 c 0
 246.666666667 390.666666667 256 406 272 418 c 0
 285.333333333 428 299.333333333 433.333333333 314 434 c 0
 316.453333333 434.106666667 318.872533333 434.16 321.2576 434.16 c 0
 348.685866667 434.16 371.6 427.106666667 390 413 c 0
 411.407407407 396 422.111111111 371.864197531 422.111111111 340.592592593 c 0
 422.111111111 338.75308642 422.074074074 336.888888889 422 335 c 0
 421.333333333 305 410.166666667 279.666666667 388.5 259 c 0
 366.833333333 238.333333333 339.666666667 226.666666667 307 224 c 0
 303.239316239 223.726495727 299.527722989 223.58974359 295.86522025 223.58974359 c 0
 263.81832128 223.58974359 235.52991453 234.05982906 211 255 c 0
 183.666666667 278.333333333 170 308 170 344 c 0
 170 370.916126009 170.257211067 386.12914846 170.771633201 389.639067352 c 0
 168.358255075 398.259480316 163.101044008 403.379791199 155 405 c 0
 151.228571429 405.771428571 147.550816327 406.157142857 143.966734694 406.157142857 c 0
 119.674625851 406.157142857 99.685714286 388.438095238 84 353 c 0
 68.6666666667 320.333333333 61 287.333333333 61 254 c 0
 61 212.666666667 69.3333333333 175.666666667 86 143 c 0
 104 107 129 84.6666666667 161 76 c 0
 176.304347826 71.8260869565 190.973534972 69.7391304348 205.007561437 69.7391304348 c 0
 217.872085696 69.7391304348 230.202898551 71.4927536232 242 75 c 0
 276.666666667 85.6666666667 294 107.666666667 294 141 c 2
 294 141 294 167 294 167 c 1
 294 167 316 167 316 167 c 1
 316 167 316 140 316 140 c 2
 316 117.333333333 326.666666667 99.6666666667 348 87 c 0
 365.333333333 76.3333333333 386 71 410 71 c 0
 456.666666667 71 493 94.3333333333 519 141 c 0
 541.153846154 179.153846154 552.230769231 223.272189349 552.230769231 273.355029586 c 0
 552.230769231 277.528599605 552.153846154 281.743589743 552 286 c 0
 550.666666667 325.333333333 536.333333333 363 509 399 c 0
 487.666666667 427.666666667 466 447.333333333 444 458 c 0
274 365 m 0
 274 352.333333333 278.5 341.833333333 287.5 333.5 c 0
 296.5 325.166666667 307 321 319 321 c 0
 335 321 347 327 355 339 c 0
 360.333333333 347 363 355.666666667 363 365 c 0
 363 377 358.666666667 387.166666667 350 395.5 c 0
 341.333333333 403.833333333 330.666666667 408 318 408 c 0
 306 408 295.666666667 403.833333333 287 395.5 c 0
 278.333333333 387.166666667 274 377 274 365 c 0
EndSplineSet
Validated: 524321
EndChar
StartChar: si_Ka
Encoding: -1 3482 391
Width: 746
VWidth: 1000
GlyphClass: 2
Flags: W
HStem: -1.025 71.8345<143.225 255.043 329.777 449.072> -0.892857 27.8929<505.497 591.973> 73 27<70.3346 109.333> 285 28<220.484 386.549> 368 64.973<340.324 519.215> 391.658 41.3421<124.902 189.664>
VStem: 21 26<18.9674 53.2001> 27 96<306.376 390.495> 194 31.7353<343 385.313> 279.062 29.8542<103.561 163> 475.367 39.4947<100.616 210.917> 648.711 52.5084<89.9012 241.59>
LayerCount: 2
Back
Fore
SplineSet
179 267 m 1xb0f0
 161.666666667 252.333333333 145 233.666666667 129 211 c 0
 100.333333333 170.333333333 80.6666666667 131.666666667 70 95 c 1
 76 98.3333333333 82.3333333333 100 89 100 c 0
 94.3333333333 100 106.666666667 96 126 88 c 0
 153.142857143 76.5396825397 176.192743764 70.8095238095 195.149659864 70.8095238095 c 0
 197.145124717 70.8095238095 199.095238095 70.873015873 201 71 c 0
 227.666666667 73 249 83.6666666667 265 103 c 0
 274.375 114.875 279.0625 133.1953125 279.0625 157.9609375 c 0
 279.0625 159.611979167 279.041666667 161.291666667 279 163 c 2
 279 163 309 163 309 163 c 2
 308.944444445 160.944444445 308.916666667 158.930555556 308.916666667 156.958333333 c 0
 308.916666667 135.263888889 312.277777778 118.611111111 319 107 c 0
 333.545454545 82.7575757576 358.008264463 70.6363636364 392.388429752 70.6363636364 c 0
 395.826446281 70.6363636364 399.363636363 70.7575757576 403 71 c 0
 424.333333333 72.3333333333 442.166666667 82.5 456.5 101.5 c 0
 469.078231293 118.173469388 475.367346939 136.258781064 475.367346939 155.755935027 c 0
 475.367346939 158.476468138 475.244897959 161.224489796 475 164 c 0
 469 228 426 267.333333333 346 282 c 0
 334 284 319 285 301 285 c 0
 244.333333333 285 203.666666667 279 179 267 c 1xb0f0
101 303 m 0
 94.3333333333 297 84.6666666667 294 72 294 c 0
 55.3333333333 294 43.6666666667 298 37 306 c 0
 30.3333333333 314 27 324 27 336 c 0
 27 354 34 372.166666667 48 390.5 c 0
 62 408.833333333 79.3333333333 421.333333333 100 428 c 0
 111.333333333 431.333333333 123.333333333 433 136 433 c 0xb5f0
 163.333333333 433 185 426 201 412 c 0
 217.490196079 396.647058823 225.735294118 377.656574394 225.735294118 355.028546713 c 0
 225.735294118 351.12716263 225.490196079 347.117647059 225 343 c 1
 246.333333333 367 281 388.333333333 329 407 c 0
 373.684684685 424.315315315 416.497443389 432.972972973 457.438276114 432.972972973 c 0
 465.362308254 432.972972973 473.216216216 432.648648649 481 432 c 0
 541.666666667 426.666666667 592.666666667 403.333333333 634 362 c 0
 676 318.666666667 698.333333333 265.333333333 701 202 c 0
 701.146341463 198.146341463 701.219512195 194.331945271 701.219512195 190.556811422 c 0
 701.219512195 142.738449336 689.479674797 101.219512195 666 66 c 0
 642 30.6666666667 612 9.33333333333 576 2 c 0
 566.785714286 0.0714285714287 558.053571429 -0.892857142857 549.803571429 -0.892857142857 c 0
 532.386904762 -0.892857142857 517.119047619 3.40476190476 504 12 c 1
 504 12 506 38 506 38 c 1
 514 33.3333333333 525 30 539 28 c 0
 543.888888889 27.3333333333 548.444444444 27 552.666666667 27 c 0x79f0
 561.111111111 27 568.222222222 28.3333333333 574 31 c 0
 623.807407407 52.2592592593 648.711111111 91.5045267489 648.711111111 148.735802469 c 0
 648.711111111 154.319341564 648.474074074 160.074074074 648 166 c 0
 644 212.666666667 626 254 594 290 c 0
 564.666666667 323.333333333 531 345 493 355 c 0
 461.666666667 363.666666667 430.666666667 368 400 368 c 0
 326.666666667 368 266.333333333 346.333333333 219 303 c 1
 249 309.666666667 278 313 306 313 c 0
 364.666666667 313 412.666666667 298.166666667 450 268.5 c 0
 487.333333333 238.833333333 508.666666667 197 514 143 c 0
 514.574712644 137.022988506 514.862068966 131.164883076 514.862068966 125.42568371 c 0
 514.862068966 97.8775267539 508.241379311 73.0689655173 495 51 c 0
 479 24.3333333333 455.333333333 8 424 2 c 0
 414.666666667 0 405.666666667 -1 397 -1 c 0
 351 -1 317.333333333 20.3333333333 296 63 c 1
 278.666666667 21.6666666667 249 0.333333333333 207 -1 c 0
 206.283333333 -1.01666666667 205.567291667 -1.025 204.851875 -1.025 c 0
 176.950625 -1.025 150 11.65 124 37 c 0
 122.666666667 38.3333333333 118 45.6666666667 110 59 c 0
 104 68.3333333333 97.3333333333 73 90 73 c 0
 78 73 67.6666666667 66.1666666667 59 52.5 c 0
 50.3333333333 38.8333333333 46.3333333333 25 47 11 c 1
 47 11 21 22 21 22 c 1xbaf0
 24.3333333333 52 34.5 87.1666666667 51.5 127.5 c 0
 68.5 167.833333333 87.6666666667 202.666666667 109 232 c 0
 135 268 163 299.333333333 193 326 c 1
 193.666666667 332.666666667 194 339 194 345 c 0
 194 373 183.666666667 388.333333333 163 391 c 0
 159.929824561 391.438596491 157.032779317 391.657894737 154.308864266 391.657894737 c 0
 136.331024931 391.657894737 125.894736842 382.105263158 123 363 c 0xb5f0
 117.666666667 331.666666667 110.333333333 311.666666667 101 303 c 0
EndSplineSet
Validated: 524325
EndChar
StartChar: si_Kha
Encoding: 0 3483 393
Width: 630
VWidth: 1000
GlyphClass: 2
Flags: W
HStem: -1.01389 30.0139<103.341 164.624> -0.5 67.5<390.653 480> 115 30<99.9225 163.61> 320.036 75.9636<143.989 331.722> 576.08 25.1302<209.881 375.681>
VStem: 32.5152 30.4848<105.477 228.268> 177 33.4286<39.6509 105.961> 368.18 43.8201<173.379 286.585> 548.059 35.9412<191.817 408.072>
LayerCount: 2
Back
Fore
SplineSet
90 74 m 0xbf80
 90 62 94.6666666667 51.5 104 42.5 c 0
 113.333333333 33.5 124 29 136 29 c 0
 147.333333333 29 157 33.1666666667 165 41.5 c 0
 173 49.8333333333 177 59.6666666667 177 71 c 0
 177 86.3333333333 171.666666667 98 161 106 c 0
 153 112 143.333333333 115 132 115 c 0
 117.333333333 115 106.666666667 110.333333333 100 101 c 0
 93.3333333333 91.6666666667 90 82.6666666667 90 74 c 0xbf80
70 105 m 1
 80.6666666667 131.666666667 102.333333333 145 135 145 c 0
 142.333333333 145 149.666666667 144.333333333 157 143 c 0
 187.666666667 137 205.333333333 115.666666667 210 79 c 0
 210.285714286 76.5238095238 210.428571429 74.0544217687 210.428571429 71.5918367347 c 0
 210.428571429 56.8163265306 205.285714286 42.2857142857 195 28 c 0
 181.666666667 9.33333333333 164.333333333 -0.333333333333 143 -1 c 0
 142.453703704 -1.00925925926 141.909207819 -1.01388888889 141.366512346 -1.01388888889 c 0xbf80
 102.835133745 -1.01388888889 73.3796296296 22.3240740741 53 69 c 0
 39.3434343435 100.515151515 32.5151515152 137.61707989 32.5151515152 180.305785124 c 0
 32.5151515152 191.798898071 33.0101010101 203.696969697 34 216 c 0
 38.6666666667 269.333333333 60.6666666667 312.666666667 100 346 c 0
 139.333333333 379.333333333 188.333333333 396 247 396 c 0
 291 396 328.666666667 384.333333333 360 361 c 0
 394.666666667 335.666666667 412 301.333333333 412 258 c 0
 412 204.666666667 390 157 346 115 c 1
 349.333333333 115.666666667 352.333333333 116 355 116 c 0
 359.666666667 116 367.333333333 111 378 101 c 0
 380.666666667 97 390.333333333 89 407 77 c 0
 418.333333333 70.3333333333 429 67 439 67 c 0
 479 67 510.333333333 111.333333333 533 200 c 0
 543.039215686 238.274509804 548.058823529 275.663206459 548.058823529 312.166089965 c 0
 548.058823529 314.447520184 548.039215686 316.725490196 548 319 c 0
 546.666666667 392.333333333 522.5 453.166666667 475.5 501.5 c 0
 428.5 549.833333333 370.333333333 574.666666667 301 576 c 0
 298.5 576.053571429 296.018415179 576.080357143 293.555245536 576.080357143 c 0
 204.060081845 576.080357143 138.875 540.720238095 98 470 c 1
 98 470 64 470 64 470 c 1
 108.666666667 553.333333333 182.666666667 597 286 601 c 0
 289.929824561 601.140350877 293.833795014 601.210526316 297.711911357 601.210526316 c 0
 367.51800554 601.210526316 428.947368421 578.473684211 482 533 c 0
 538 485 570.666666667 423.666666667 580 349 c 0
 582.666666667 329.666666667 584 310 584 290 c 0
 584 215.333333333 569 150 539 94 c 0
 508.333333333 35.3333333333 469.666666667 4 423 0 c 0
 419.333333333 -0.333333333333 415.777777778 -0.5 412.333333333 -0.5 c 0x7f80
 395.111111111 -0.5 380.666666667 3.66666666667 369 12 c 0
 363 16 354.333333333 25.3333333333 343 40 c 0
 335 50.6666666667 327 55.6666666667 319 55 c 0
 311 54.3333333333 284.666666667 31.6666666667 240 -13 c 1
 240 -13 204 -10 204 -10 c 1
 217.333333333 3.33333333333 245.333333333 34.6666666667 288 84 c 0
 340 146 366.666666667 191.666666667 368 221 c 0
 368.119904077 223.326139089 368.179856115 225.611303763 368.179856115 227.855494022 c 0
 368.179856115 287.999792971 325.119904077 318.714628297 239 320 c 0
 237.593939394 320.024242424 236.193829201 320.036363636 234.799669421 320.036363636 c 0
 197.854435262 320.036363636 165.087878788 311.524242424 136.5 294.5 c 0
 106.833333333 276.833333333 86.3333333333 252.333333333 75 221 c 0
 67 199.666666667 63 178 63 156 c 0
 63 139.333333333 65.3333333333 122.333333333 70 105 c 1
EndSplineSet
Validated: 524289
EndChar
StartChar: si_Nga
Encoding: -1 3486 398
Width: 647
VWidth: 1000
GlyphClass: 2
Flags: W
HStem: 0 70<126.576 267.545 356.298 497.781> 219.933 28.7262<175.626 326.09> 234 29<118.971 275.63> 271.837 29.1633<119.954 190.045> 399 33.4464<119.694 203.951> 407 25<213 275.207> 558 24<225.356 381.139>
VStem: 50 38<110.642 209.01> 70 35<314.206 385.279> 205 36<313.812 386.164> 299 27<106.388 177> 341 31.4324<262.217 357.273> 565.444 32.6692<167.951 371.719>
LayerCount: 2
Back
Fore
SplineSet
105 351 m 0x9af8
 105 336.333333333 109.833333333 324.333333333 119.5 315 c 0
 129.166666667 305.666666667 140.666666667 301 154 301 c 0
 168.666666667 301 180.833333333 305.666666667 190.5 315 c 0
 200.166666667 324.333333333 205 336 205 350 c 0
 205 364 200.166666667 375.666666667 190.5 385 c 0
 180.833333333 394.333333333 169.333333333 399 156 399 c 0
 142 399 130 394.333333333 120 385 c 0
 110 375.666666667 105 364.333333333 105 351 c 0x9af8
565 286 m 0
 561.666666667 360.666666667 535.333333333 424.666666667 486 478 c 0
 436.666666667 531.333333333 376.333333333 558 305 558 c 0
 225.666666667 558 159 528 105 468 c 1xb2f8
 105 468 73 468 73 468 c 1
 132.333333333 544 210.666666667 582 308 582 c 0
 386.666666667 582 453.666666667 553 509 495 c 0
 563 439.666666667 592.333333333 371.333333333 597 290 c 0
 597.742424243 278.015151515 598.113636364 266.308712121 598.113636364 254.880681818 c 0
 598.113636364 194.475378788 587.742424243 141.848484849 567 97 c 0
 537.666666667 32.3333333333 492.333333333 0 431 0 c 0
 401.666666667 0 377.666666667 5.66666666667 359 17 c 0
 345 25 329.666666667 39 313 59 c 1
 282.333333333 20.3333333333 244.666666667 0.666666666667 200 0 c 0
 199.056179775 -0.0149812734083 198.115641964 -0.0224719101124 197.178386567 -0.0224719101124 c 0
 156.407776796 -0.0224719101124 121.848314607 14.1516853933 93.5 42.5 c 0
 64.5 71.5 50 105.333333333 50 144 c 0
 50 162 53.6666666667 179.333333333 61 196 c 0
 69 215.333333333 83.3333333333 231.333333333 104 244 c 0
 124.666666667 256.666666667 148 263 174 263 c 0xb378
 186.666666667 263 203.666666667 261 225 257 c 0
 249.666666667 252.333333333 266.666666667 249.666666667 276 249 c 0
 279.120567376 248.773049645 282.127659575 248.659574468 285.021276596 248.659574468 c 0
 316.127659575 248.659574468 334.120567376 261.773049645 339 288 c 0
 340.333333333 294.666666667 341 301.333333333 341 308 c 0
 341 339.333333333 326.666666667 364.333333333 298 383 c 0
 273.333333333 399 245 407 213 407 c 1xd778
 231.666666667 394.333333333 241 374 241 346 c 0
 241 325.333333333 232.333333333 307.5 215 292.5 c 0
 199.081632653 278.724489796 180.351936693 271.836734694 158.81091212 271.836734694 c 0
 156.89615438 271.836734694 154.959183673 271.891156463 153 272 c 0
 127.666666667 273.333333333 107.5 281.5 92.5 296.5 c 0
 77.5 311.5 70 329.333333333 70 350 c 0
 70 362.666666667 73.3333333333 374.666666667 80 386 c 0
 98.214285714 416.964285714 136.61065051 432.446428571 195.189094388 432.446428571 c 0x9af8
 200.932079082 432.446428571 206.869047619 432.297619047 213 432 c 0
 272.333333333 429.333333333 315.666666667 413 343 383 c 0
 362.621621621 361 372.432432432 334.227173119 372.432432432 302.681519357 c 0
 372.432432432 298.85780375 372.288288288 294.963963964 372 291 c 0
 369.333333333 248.333333333 345.666666667 225 301 221 c 0
 292.644444445 220.288888889 284.525925926 219.933333333 276.644444444 219.933333333 c 0xd6f8
 254.97037037 219.933333333 235.088888889 222.622222222 217 228 c 0
 203.666666667 232 190 234 176 234 c 0
 135.333333333 234 108.666666667 220.333333333 96 193 c 0
 90.6666666667 182.333333333 88 171.333333333 88 160 c 0xb378
 88 136 98.5 115.166666667 119.5 97.5 c 0
 140.5 79.8333333333 166.666666667 71 198 71 c 0
 224.666666667 71 248.166666667 77.5 268.5 90.5 c 0
 288.833333333 103.5 299 121.333333333 299 144 c 2
 299 144 299 177 299 177 c 1
 299 177 326 177 326 177 c 1
 326 177 326 144 326 144 c 2
 326 122 336.666666667 103.666666667 358 89 c 0
 377.333333333 76.3333333333 400.333333333 70 427 70 c 0
 475.666666667 70 512.333333333 93.3333333333 537 140 c 0
 555.962962963 175.555555555 565.444444444 217.958847736 565.444444444 267.209876543 c 0
 565.444444444 273.366255144 565.296296296 279.629629629 565 286 c 0
EndSplineSet
Validated: 524289
EndChar
StartChar: si_Cha
Encoding: 0 3489 403
Width: 598
VWidth: 1000
GlyphClass: 2
Flags: W
HStem: 0 71<149.68 436.116> 159 28<379.61 450.822> 287.267 22.3048<138.057 238.726 313.024 329> 394.29 37.7097<147.443 222.576> 407.857 25.1429<399.215 466.604>
VStem: 32.7955 34.1733<135.327 234.974> 56 88<331.243 392.061> 238.955 27.0448<309.188 375.164> 286 27<307.266 375.88> 326.421 30.5789<208.735 286.654 309 357.884> 503 28<280.457 374.443> 517.077 32.1538<132.816 232.307>
LayerCount: 2
Back
Fore
SplineSet
358 287 m 1xe1c0
 357.333333333 280.333333333 357 273.666666667 357 267 c 0
 357 223 372 197 402 189 c 0
 406.666666667 187.666666667 411.333333333 187 416 187 c 0
 444 187 466.666666667 209.333333333 484 254 c 1
 473.333333333 266 455 274.666666667 429 280 c 0
 415 282.666666667 391.333333333 285 358 287 c 1xe1c0
388 405 m 1
 371.333333333 378.333333333 361.666666667 346.333333333 359 309 c 1
 395 309 422 307 440 303 c 0
 464 297.666666667 483 290 497 280 c 1
 501 299.333333333 503 314.333333333 503 325 c 0
 503 353 493.666666667 374.666666667 475 390 c 0
 459.761904762 401.904761905 440.612244898 407.857142857 417.551020408 407.857142857 c 0xe9e0
 408.326530612 407.857142857 398.476190476 406.904761905 388 405 c 1
359 407 m 1
 328.333333333 389.666666667 313 361.666666667 313 323 c 0
 313 317.666666667 313.333333333 312.333333333 314 307 c 0
 316.666666667 307 319.833333333 307.333333333 323.5 308 c 0
 327.166666667 308.666666667 329.666666667 309 331 309 c 0
 333 319 336.333333333 334.333333333 341 355 c 0
 345.666666667 375.666666667 351.666666667 393 359 407 c 1
262 284 m 1
 247.066666667 286.177777778 231.915555556 287.266666667 216.546666667 287.266666667 c 0
 198.982222222 287.266666667 181.133333333 285.844444445 163 283 c 0
 137.666666667 279 115.666666667 268.333333333 97 251 c 0
 76.9791666667 231.625 66.96875 209.121744792 66.96875 183.490234375 c 0
 66.96875 143.419020433 93.3125 113.588942308 146 94 c 0
 187.333333333 78.6666666667 238 71 298 71 c 0
 444.051282051 71 517.076923077 109.094674556 517.076923077 185.284023669 c 0
 517.076923077 202.325443787 513.384615385 218.230769231 506 233 c 1
 492.666666667 202.333333333 476.333333333 181.333333333 457 170 c 0
 444.333333333 162.666666667 429 159 411 159 c 0
 400.333333333 159 390.333333333 160.666666667 381 164 c 0
 359 172 343.333333333 190.333333333 334 219 c 0
 328.947368421 233.736842105 326.421052632 248.207756233 326.421052632 262.412742382 c 0
 326.421052632 270.698984303 327.280701755 278.894736842 329 287 c 1
 329 287 292 284 292 284 c 1
 288 296 286 308.666666667 286 322 c 0
 286 348.666666667 293.5 372.5 308.5 393.5 c 0
 323.5 414.5 343.333333333 427 368 431 c 1
 382 464.333333333 406 500.333333333 440 539 c 0
 487.333333333 592.333333333 522 619 544 619 c 0
 560 619 568 611.666666667 568 597 c 0
 568 589.666666667 564.666666667 584 558 580 c 0
 538 568.666666667 509 549.666666667 471 523 c 1
 433 489.666666667 409 459.333333333 399 432 c 1xf5d0
 407 432.666666667 417.666666667 433 431 433 c 0
 477 432.333333333 508.666666667 409.333333333 526 364 c 0
 529.333333333 355.333333333 531 344.333333333 531 331 c 0xe9e0
 531 301 526 278 516 262 c 1
 538.153846154 233.076923077 549.230769231 200.74556213 549.230769231 165.00591716 c 0
 549.230769231 162.027613412 549.153846154 159.025641025 549 156 c 0
 545.666666667 104.666666667 519.333333333 65.3333333333 470 38 c 0
 425.333333333 12.6666666667 368 0 298 0 c 0
 221.333333333 0 160.333333333 12.6666666667 115 38 c 0
 63 67.3333333333 35.6666666667 110.666666667 33 168 c 0
 32.8636363637 170.545454545 32.7954545455 173.064566116 32.7954545455 175.557334711 c 0xedd0
 32.7954545455 209.625172176 45.5303030303 238.772727273 71 263 c 0
 96.3333333333 287 128 301.333333333 166 306 c 0
 183.142857143 308.380952381 200.285714286 309.571428571 217.428571429 309.571428571 c 2
 217.428571429 309.571428571 238 309 238 309 c 1
 238.636815921 315.368159204 238.955223881 321.379891587 238.955223881 327.035197149 c 0
 238.955223881 368.743075666 221.636815921 391.064676617 187 394 c 0
 184.870967742 394.193548387 182.813735692 394.290322581 180.82830385 394.290322581 c 0
 162.29760666 394.290322581 150.021505377 385.860215054 144 369 c 0
 134.666666667 341.666666667 122 326.333333333 106 323 c 0
 101.333333333 322.333333333 97 322 93 322 c 0
 68.3333333333 322 56 334.666666667 56 360 c 0
 56 366.666666667 57.3333333333 372.666666667 60 378 c 0
 78 414 108.666666667 432 152 432 c 0xf3c0
 186.666666667 432 214.333333333 422.5 235 403.5 c 0
 255.666666667 384.5 266 357.666666667 266 323 c 0
 266 311 264.666666667 298 262 284 c 1
EndSplineSet
Validated: 524289
EndChar
StartChar: si_Jha
Encoding: -1 3491 406
Width: 1079
VWidth: 1000
GlyphClass: 2
Flags: W
HStem: -0.0434783 71.0435<141.199 255.043 329.777 449.447 567.203 706.719 791.629 929.305> 73 27<70.3346 109.333> 285 28<220.484 387.165> 391.658 41.3421<124.902 189.664> 404 30<377.051 599.774> 557 23<657.085 815.955>
VStem: 21 26<18.9674 53.2001> 27 96<306.376 390.495> 194 31.7353<343 385.313> 279.062 29.8542<103.561 163> 475.367 36.6327<139.062 219.033> 733 31<102.867 196> 1001.2 31.6608<186.476 371.477>
LayerCount: 2
Back
Fore
SplineSet
482 236 m 1xecf8
 485.333333333 266.666666667 496 295 514 321 c 0
 530 343.666666667 548.666666667 361.333333333 570 374 c 0
 576 378 586.333333333 383 601 389 c 1
 595.666666667 391 581.666666667 394 559 398 c 0
 536.333333333 402 514 404 492 404 c 0
 384 404 293 370.333333333 219 303 c 1
 249 309.666666667 277.666666667 313 305 313 c 0
 382.333333333 313 441.333333333 287.333333333 482 236 c 1xecf8
397 -1 m 0
 351 -1 317.333333333 20.3333333333 296 63 c 1
 278.666666667 21.6666666667 249 0.333333333333 207 -1 c 0
 206.283333333 -1.01666666667 205.567291667 -1.025 204.851875 -1.025 c 0
 176.950625 -1.025 150 11.65 124 37 c 0
 122.666666667 38.3333333333 118 45.6666666667 110 59 c 0
 104 68.3333333333 97.3333333333 73 90 73 c 0
 78 73 67.6666666667 66.1666666667 59 52.5 c 0
 50.3333333333 38.8333333333 46.3333333333 25 47 11 c 1
 47 11 21 22 21 22 c 1xeef8
 24.3333333333 52 34.5 87.1666666667 51.5 127.5 c 0
 68.5 167.833333333 87.6666666667 202.666666667 109 232 c 0
 135 268 163 299.333333333 193 326 c 1
 193.666666667 332.666666667 194 339 194 345 c 0
 194 373 183.666666667 388.333333333 163 391 c 0
 159.929824561 391.438596491 157.032779317 391.657894737 154.308864266 391.657894737 c 0
 136.331024931 391.657894737 125.894736842 382.105263158 123 363 c 0
 117.666666667 331.666666667 110.333333333 311.666666667 101 303 c 0
 94.3333333333 297 84.6666666667 294 72 294 c 0
 55.3333333333 294 43.6666666667 298 37 306 c 0
 30.3333333333 314 27 324 27 336 c 0
 27 354 34 372.166666667 48 390.5 c 0
 62 408.833333333 79.3333333333 421.333333333 100 428 c 0
 111.333333333 431.333333333 123.333333333 433 136 433 c 0xf5f8
 163.333333333 433 185 426 201 412 c 0
 217.490196079 396.647058823 225.735294118 377.656574394 225.735294118 355.028546713 c 0
 225.735294118 351.12716263 225.490196079 347.117647059 225 343 c 1
 244.333333333 365 276.666666667 385 322 403 c 0
 374.666666667 423.666666667 427.666666667 434 481 434 c 0
 553.666666667 434 615.333333333 422 666 398 c 1
 666 398 666 373 666 373 c 1
 662.317460317 373.317460317 658.665154951 373.476190476 655.0430839 373.476190476 c 0
 620.633408919 373.476190476 588.952380953 359.150793651 560 330.5 c 0
 528 298.833333333 512 261.333333333 512 218 c 0
 512 178.666666667 522.666666667 145 544 117 c 0
 566.666666667 86.3333333333 596 71 632 71 c 0
 659.333333333 71 682.333333333 77 701 89 c 0
 722.333333333 102.333333333 733 120.333333333 733 143 c 2
 733 143 733 196 733 196 c 1
 733 196 764 196 764 196 c 1
 764 196 764 143 764 143 c 2
 764 120.333333333 773.666666667 102.666666667 793 90 c 0
 812.333333333 77.3333333333 835.333333333 71 862 71 c 0
 908 71 943.333333333 94.6666666667 968 142 c 0
 988 180 999 227.333333333 1001 284 c 0
 1001.13087935 287.599182004 1001.19631902 291.175480196 1001.19631902 294.728894576 c 0
 1001.19631902 363.576298192 976.630879347 423.833333333 927.5 475.5 c 0
 875.833333333 529.833333333 812.666666667 557 738 557 c 0
 658 557 591.666666667 527.333333333 539 468 c 1
 539 468 510 468 510 468 c 1
 566.666666667 542.666666667 644.666666667 580 744 580 c 0
 823.333333333 580 890.333333333 551.333333333 945 494 c 0
 998.333333333 439.333333333 1027.33333333 371.333333333 1032 290 c 0
 1032.57142857 279.142857143 1032.85714286 268.523809524 1032.85714286 258.142857143 c 0
 1032.85714286 195.857142857 1022.57142857 142.142857143 1002 97 c 0
 973.333333333 32.3333333333 928.333333333 0 867 0 c 0
 817.666666667 0 778 19.6666666667 748 59 c 1
 717.333333333 20.3333333333 679.333333333 0.666666666667 634 0 c 0
 632.869565217 -0.0289855072464 631.741335854 -0.0434782608696 630.615311909 -0.0434782608696 c 0
 605.842785129 -0.0434782608696 582.137681159 6.97101449275 559.5 21 c 0
 535.833333333 35.6666666667 518.666666667 55.3333333333 508 80 c 1
 492 26 455 -1 397 -1 c 0
179 267 m 1
 161.666666667 252.333333333 145 233.666666667 129 211 c 0
 100.333333333 170.333333333 80.6666666667 131.666666667 70 95 c 1
 76 98.3333333333 82.3333333333 100 89 100 c 0
 94.3333333333 100 106.666666667 96 126 88 c 0
 153.142857143 76.5396825397 176.192743764 70.8095238095 195.149659864 70.8095238095 c 0
 197.145124717 70.8095238095 199.095238095 70.873015873 201 71 c 0
 227.666666667 73 249 83.6666666667 265 103 c 0
 274.375 114.875 279.0625 133.1953125 279.0625 157.9609375 c 0
 279.0625 159.611979167 279.041666667 161.291666667 279 163 c 2
 279 163 309 163 309 163 c 2
 308.944444445 160.944444445 308.916666667 158.930555556 308.916666667 156.958333333 c 0
 308.916666667 135.263888889 312.277777778 118.611111111 319 107 c 0
 333.545454545 82.7575757576 358.008264463 70.6363636364 392.388429752 70.6363636364 c 0
 395.826446281 70.6363636364 399.363636363 70.7575757576 403 71 c 0
 424.333333333 72.3333333333 442.166666667 82.5 456.5 101.5 c 0
 469.078231293 118.173469388 475.367346939 136.258781064 475.367346939 155.755935027 c 0
 475.367346939 158.476468138 475.244897959 161.224489796 475 164 c 0
 469 228 426 267.333333333 346 282 c 0
 334 284 319 285 301 285 c 0
 244.333333333 285 203.666666667 279 179 267 c 1
EndSplineSet
Validated: 524325
Ligature2: "NidahasFMAbhaya-Regular-Ligature Substitution lookup 11 subtable" si_Ka si_Halant zwj si_Dha
EndChar
StartChar: si_Nya
Encoding: 0 3492 407
Width: 1024
VWidth: 1000
GlyphClass: 2
Flags: W
HStem: -238 28<938.251 980> -1 71.234<267.666 378.402 454.361 572.614> -1 27.8732<767.057 888.346> 73.0385 27.9615<195.411 233.749> 285 28<346.595 507.747> 294 23<746.297 914> 391.658 41.3421<250.258 312.592 618 714.937 787.936 883.898> 406 27<520.748 704.204>
VStem: 27 30<122.322 309.257> 146 25<18.7062 50.9949> 151 97<306.376 389.761> 319.114 32.019<345 383.789> 404 29.9231<103.09 163> 600.367 78.897<98.3672 222.982> 820 58<-168.471 -64.2537>
LayerCount: 2
Back
Fore
SplineSet
629 71 m 1xb8be
 610.333333333 23 574.666666667 -1 522 -1 c 0
 476 -1 442 20.3333333333 420 63 c 1
 404 21.6666666667 374.333333333 0.333333333333 331 -1 c 0
 330.283333333 -1.01666666667 329.5675 -1.025 328.8525 -1.025 c 0
 300.9675 -1.025 274.35 11.65 249 37 c 0
 248.333333333 37.6666666667 243.333333333 45 234 59 c 0
 228.666666667 67.6666666667 222 72.3333333333 214 73 c 0
 213.512820513 73.0256410257 213.028599605 73.0384615385 212.547337278 73.0384615385 c 0
 200.515779093 73.0384615385 190.333333333 65.0256410257 182 49 c 0
 176.666666667 37.6666666667 173 25.6666666667 171 13 c 1
 171 13 146 21 146 21 c 1xd0de
 156 92.3333333333 185 162 233 230 c 0
 251 255.333333333 279.666666667 287.666666667 319 327 c 0
 319.076190476 329.247619047 319.114285714 331.436462585 319.114285714 333.566530612 c 0
 319.114285714 368.712653061 308.742857143 387.857142857 288 391 c 0
 285.017543859 391.438596491 282.1966759 391.657894737 279.537396122 391.657894737 c 0
 261.986149585 391.657894737 251.473684211 382.105263158 248 363 c 0
 242.666666667 331.666666667 235 311.666666667 225 303 c 0
 218.333333333 297 208.333333333 294 195 294 c 0
 179 294 167.666666667 298 161 306 c 0
 154.333333333 314 151 323.666666667 151 335 c 0
 151 359.666666667 162.333333333 382.666666667 185 404 c 1
 152.333333333 400 122.333333333 381.666666667 95 349 c 0
 69.6666666667 319 57 275.333333333 57 218 c 0
 57 137.333333333 83 74.3333333333 135 29 c 1
 135 29 135 0 135 0 c 1
 99 18 71.3333333333 49 52 93 c 0
 35.3333333333 131 27 173.666666667 27 221 c 0
 27 263.666666667 33.6666666667 299 47 327 c 0
 60.3333333333 355 78.8333333333 378.666666667 102.5 398 c 0
 126.166666667 417.333333333 151 428.333333333 177 431 c 0
 184.428571429 431.857142857 192.040816327 432.285714286 199.836734694 432.285714286 c 0
 210.231292517 432.285714286 220.952380953 431.523809524 232 430 c 1
 240.666666667 432 250 433 260 433 c 0xd6be
 286.666666667 433 308.333333333 426.333333333 325 413 c 0
 342.422222222 398.688888889 351.133333333 377.989629629 351.133333333 350.902222222 c 0
 351.133333333 348.967407407 351.088888889 347 351 345 c 1
 363.666666667 359 384.666666667 373.333333333 414 388 c 0
 448.666666667 404.666666667 485.833333333 417 525.5 425 c 0
 551.944444445 430.333333333 578.907407408 433 606.388888889 433 c 0
 620.12962963 433 634 432.333333333 648 431 c 0
 682 427.666666667 710.333333333 421.333333333 733 412 c 1
 749.457142857 425.885714286 772.857142857 432.828571429 803.2 432.828571429 c 0
 812.190476191 432.828571429 821.790476191 432.219047619 832 431 c 0
 894 423.666666667 933.666666667 378 951 294 c 1
 951 294 820 294 820 294 c 2x95be
 792 294 769 291 751 285 c 0
 703.176245211 269.260536399 679.264367816 234.00678205 679.264367816 179.238736953 c 0
 679.264367816 173.692605804 679.509578544 167.946360153 680 162 c 0
 683.333333333 124 698.666666667 92.5 726 67.5 c 0
 753.333333333 42.5 787 29 827 27 c 0
 828.915492958 26.9154929577 830.826224956 26.8732394366 832.732195993 26.8732394366 c 0
 875.934206176 26.8732394366 916.690140845 48.5821596244 955 92 c 1
 955 92 978 75 978 75 c 1
 970 65.6666666667 957 51.3333333333 939 32 c 0
 920.333333333 8 905.5 -15.3333333333 894.5 -38 c 0
 883.5 -60.6666666667 878 -82.6666666667 878 -104 c 0
 878 -128.666666667 885.166666667 -150.166666667 899.5 -168.5 c 0
 913.833333333 -186.833333333 940.666666667 -200.666666667 980 -210 c 1
 980 -210 980 -238 980 -238 c 1
 966 -240.666666667 948.333333333 -242 927 -242 c 0
 903 -241.333333333 886.333333333 -238.666666667 877 -234 c 0
 839 -214 820 -183.333333333 820 -142 c 0
 820 -134 820.666666667 -125.666666667 822 -117 c 0
 826 -89 848.666666667 -46.6666666667 890 10 c 1
 854.666666667 2.66666666667 823 -1 795 -1 c 0
 772.333333333 -1 752.666666667 1.33333333333 736 6 c 0
 683.333333333 20.6666666667 647.666666667 42.3333333333 629 71 c 1xb8be
611 231 m 1
 621 256.333333333 641.333333333 278 672 296 c 0
 696 310 745 317 819 317 c 2
 819 317 914 317 914 317 c 1x949e
 908.666666667 343 898 363 882 377 c 0
 867.9375 390.020833333 851.43359375 396.53125 832.48828125 396.53125 c 0
 827.18359375 396.53125 821.6875 396.020833333 816 395 c 0
 804.666666667 393 794.166666667 383.333333333 784.5 366 c 0
 774.833333333 348.666666667 763 339 749 337 c 0
 745.465116279 336.441860465 742.176852353 336.162790698 739.135208221 336.162790698 c 0
 720.37840274 336.162790698 711 346.775193799 711 368 c 0
 711 372.666666667 711.666666667 377.333333333 713 382 c 0
 713.666666667 382.666666667 714.333333333 383.833333333 715 385.5 c 0
 715.666666667 387.166666667 716 388.333333333 716 389 c 0
 713.333333333 390.333333333 701.5 393.5 680.5 398.5 c 0
 659.5 403.5 638.333333333 406 617 406 c 0
 583 406 543.666666667 399.666666667 499 387 c 0
 469.666666667 379 439.5 366.333333333 408.5 349 c 0
 377.5 331.666666667 356.333333333 316.333333333 345 303 c 1
 374.333333333 309.666666667 403 313 431 313 c 0x999e
 519 313 579 285.666666667 611 231 c 1
300 266 m 1
 284.666666667 252 266.333333333 229 245 197 c 0
 229 173.666666667 212.333333333 139.666666667 195 95 c 1
 200.333333333 99 206.333333333 101 213 101 c 0
 219 101 232 96.6666666667 252 88 c 0
 278.53968254 76.5396825397 300.986394558 70.8095238095 319.340136054 70.8095238095 c 0
 321.272108843 70.8095238095 323.158730159 70.873015873 325 71 c 0
 352.333333333 73 374.333333333 84.3333333333 391 105 c 0
 398.333333333 114.333333333 402.666666667 124.333333333 404 135 c 0
 404 149 404 149 404 163 c 1
 404 163 434 163 434 163 c 2
 433.948717949 161.256410257 433.923076923 159.534516766 433.923076923 157.834319527 c 0
 433.923076923 137.431952663 437.615384615 120.153846154 445 106 c 0
 457.212765957 82.1560283688 479.571902822 70.2340425532 512.077410593 70.2340425532 c 0
 516.834314169 70.2340425532 521.808510638 70.4893617021 527 71 c 0
 549 73 567.166666667 83.5 581.5 102.5 c 0
 594.078231293 119.173469388 600.367346939 137.002082466 600.367346939 155.985839234 c 0
 600.367346939 158.634735527 600.244897959 161.306122449 600 164 c 0
 594 227.333333333 550 266.666666667 468 282 c 0
 456 284 442 285 426 285 c 0xd89e
 375.333333333 285 333.333333333 278.666666667 300 266 c 1
EndSplineSet
Validated: 524289
EndChar
StartChar: si_Ndja
Encoding: 0 3494 410
Width: 637
VWidth: 1000
GlyphClass: 2
Flags: W
HStem: 0 71<188.847 474.687> 289.667 22.1333<184.328 274.344 364.346 423 441.986 476.438> 393.038 38.9615<183.158 262> 406 27.0444<444.211 510.058>
VStem: 27 30<134.853 309.446> 71 36.8667<134.749 237.286> 275 29<311 378.116> 331 30<309.328 379.284> 396.667 29.3333<323.357 392.268> 527 31.0208<321.59 390.44> 552.129 35.0412<131.402 234.295>
LayerCount: 2
Back
Fore
SplineSet
426 359 m 0xdfc0
 426 344.333333333 431.166666667 332.166666667 441.5 322.5 c 0
 451.833333333 312.833333333 464 308 478 308 c 0
 491.333333333 308 502.833333333 312.5 512.5 321.5 c 0
 522.166666667 330.5 527 341.666666667 527 355 c 0
 527 368.333333333 522.166666667 380.166666667 512.5 390.5 c 0
 502.833333333 400.833333333 490.333333333 406 475 406 c 0
 461.666666667 406 450.166666667 401.5 440.5 392.5 c 0
 430.833333333 383.5 426 372.333333333 426 359 c 0xdfc0
399 344 m 0
 397.444444445 350 396.666666667 356.296296296 396.666666667 362.888888889 c 0
 396.666666667 376.074074074 399.777777778 390.444444445 406 406 c 1
 376 388.666666667 361 364.666666667 361 334 c 0
 361 326.666666667 362 318.333333333 364 309 c 1
 371.333333333 309.666666667 382.333333333 310.333333333 397 311 c 0
 403.666666667 311 412.333333333 310.333333333 423 309 c 1
 411 315.666666667 403 327.333333333 399 344 c 0
300 288 m 1
 289.111111111 289.111111111 278.148148148 289.666666667 267.111111111 289.666666667 c 0
 245.037037037 289.666666667 222.666666667 287.444444445 200 283 c 0
 173.333333333 277.666666667 151.333333333 266 134 248 c 0
 116.577777778 229.333333333 107.866666667 208.634074074 107.866666667 185.902222222 c 0
 107.866666667 144.070331384 134.244444445 113.43625731 187 94 c 0
 227 78.6666666667 276.666666667 71 336 71 c 0
 477.333333333 71 549.333333333 108.333333333 552 183 c 0
 552.086021505 184.720430107 552.129032258 186.424210891 552.129032258 188.111342352 c 0xefa0
 552.129032258 212.574748526 543.086021505 233.537634409 525 251 c 0
 507.666666667 267.666666667 484.666666667 278.666666667 456 284 c 0
 434.698412699 287.841269841 413.76266062 289.761904762 393.192743764 289.761904762 c 0
 374.49281935 289.761904762 356.095238095 288.174603175 338 285 c 1
 333.333333333 301 331 316.333333333 331 331 c 0
 331 384.333333333 359.333333333 418.333333333 416 433 c 1
 428.666666667 468.333333333 449.333333333 503.666666667 478 539 c 0
 521.333333333 592.333333333 556 619 582 619 c 0
 598 619 606 611.666666667 606 597 c 0
 606 589.666666667 602.666666667 584 596 580 c 0
 576 568.666666667 547.333333333 549.333333333 510 522 c 1
 476.666666667 493.333333333 454.666666667 463.666666667 444 433 c 1
 444 433 468 433 468 433 c 2
 469.096296296 433.029629629 470.185349794 433.044444444 471.267160494 433.044444444 c 0
 494.526090535 433.044444444 514.437037037 426.196296296 531 412.5 c 0
 549.013888889 397.603899573 558.020833333 379.080462073 558.020833333 356.9296875 c 0xdfc0
 558.020833333 324.698784722 542.680555555 302.055555555 512 289 c 1
 534.666666667 279.666666667 553.166666667 262.833333333 567.5 238.5 c 0
 580.613475177 216.237588653 587.170212766 191.324581259 587.170212766 163.760977818 c 0
 587.170212766 161.196921684 587.113475177 158.609929078 587 156 c 0
 585 104.666666667 559 65.3333333333 509 38 c 0
 464.333333333 12.6666666667 406.666666667 0 336 0 c 0
 259.333333333 0 197.666666667 13 151 39 c 0
 150.012992581 39.8938935121 149.032747917 40.796370522 148.059266008 41.7074310297 c 2
 148.059266008 41.7074310297 143 24 143 24 c 1
 116.333333333 37.3333333333 90 58.3333333333 64 87 c 1
 39.3333333333 129 27 173.666666667 27 221 c 0
 27 263.666666667 33.6666666667 299 47 327 c 0
 60.3333333333 355 78.8333333333 378.666666667 102.5 398 c 0
 108.509595665 402.909247163 114.59441653 407.281171722 120.754462596 411.115773678 c 0
 136.168663339 425.038591321 156.417175807 432 181.5 432 c 1xefa0
 183.993302299 432 186.449027565 431.964970742 188.867175798 431.894912227 c 0
 190.156346369 431.946952378 191.337217158 431.972972626 192.409788167 431.972972973 c 0
 195.318949106 431.972972973 197.431380521 431.781551277 198.74708241 431.398707886 c 0
 230.638312375 429.088643793 255.389284905 420.122407831 273 404.5 c 0
 293.666666667 386.166666667 304 360 304 326 c 0
 304 314 302.666666667 301.333333333 300 288 c 1
94.9072822996 348.892512888 m 1
 69.6357608563 319.560036083 57.0000000897 275.929198454 57 218 c 0
 57 150.083751985 79.2108790867 100.125236007 123.63263726 68.124452066 c 1
 101.558150154 95.6663373507 84.0139377337 128.958186662 71 168 c 1
 70.3333333333 206 84 238.666666667 112 266 c 0
 138.666666667 290.666666667 171.333333333 305.333333333 210 310 c 0
 220.8 311.2 232.68 311.8 245.64 311.8 c 0
 254.28 311.8 263.4 311.533333333 273 311 c 1
 274.333333333 317.666666667 275 324.333333333 275 331 c 0
 275 371.666666667 257.666666667 392.333333333 223 393 c 0
 222.153846154 393.025641025 221.319526627 393.038461538 220.49704142 393.038461538 c 0
 199.934911243 393.038461538 186.769230769 385.025641025 181 369 c 0
 171.666666667 342.333333333 159 327.333333333 143 324 c 0
 138.333333333 322.666666667 134 322 130 322 c 0
 109.81005498 322 98.1124824127 330.964170963 94.9072822996 348.892512888 c 1
EndSplineSet
Validated: 524321
EndChar
StartChar: si_Ttha
Encoding: -1 3496 413
Width: 638
VWidth: 1000
GlyphClass: 2
Flags: W
HStem: 0 71<123.038 258.091 342.11 488.281> 363 35<362.901 461.537> 374.082 23.9175<159.859 221>
VStem: 33 36<139.134 285.34> 288 29<102.283 190> 308.51 29.4902<426.302 548.943> 555.923 31.0769<168.184 345.821>
LayerCount: 2
Back
Fore
SplineSet
362 569 m 1xd6
 346 547.666666667 338 517.666666667 338 479 c 0
 338 447.666666667 347.666666667 425.333333333 367 412 c 0
 380.333333333 402.666666667 395.333333333 398 412 398 c 0
 446 398 471 415.333333333 487 450 c 1
 470.333333333 474.666666667 453.166666667 495.166666667 435.5 511.5 c 0
 417.833333333 527.833333333 405.333333333 539 398 545 c 0
 385.333333333 555.666666667 373.333333333 563.666666667 362 569 c 1xd6
505 423 m 1
 483 383 452.333333333 363 413 363 c 0
 387 363 363.666666667 371.5 343 388.5 c 0
 322.333333333 405.5 311 426.666666667 309 452 c 0
 308.673202615 457.163398693 308.509803922 462.304370114 308.509803922 467.422914264 c 0xd6
 308.509803922 514.513520441 322.339869281 559.705882353 350 603 c 1
 401.333333333 582.333333333 450 543.333333333 496 486 c 0
 546.666666667 422.666666667 576 357 584 289 c 0
 586 272.333333333 587 255.333333333 587 238 c 0
 587 173.333333333 574 119 548 75 c 0
 518.666666667 25 476.666666667 0 422 0 c 0
 372.666666667 0 333 19.6666666667 303 59 c 1
 272.333333333 20.3333333333 234.666666667 0.666666666667 190 0 c 0
 189.276190476 -0.0095238095238 188.554489796 -0.0142857142857 187.834897959 -0.0142857142857 c 0
 138.183061224 -0.0142857142857 98.5714285713 22.6571428571 69 68 c 0
 45 104.571428571 33 145.551020408 33 190.93877551 c 0
 33 198.503401361 33.3333333333 206.190476191 34 214 c 0
 37.3333333333 253.333333333 48.6666666667 288 68 318 c 0
 89.3333333333 350.666666667 117.333333333 373.666666667 152 387 c 0
 172.666666667 394.333333333 195.666666667 398 221 398 c 1
 221 398 221 374 221 374 c 2
 219.295532646 374.054982818 217.600701456 374.082474227 215.91550643 374.082474227 c 0
 176.734722075 374.082474227 142.762886598 359.221649485 114 329.5 c 0
 84 298.5 69 261.333333333 69 218 c 0
 69 178.666666667 79.6666666667 144.666666667 101 116 c 0
 123.666666667 85.3333333333 153.333333333 70 190 70 c 0
 216.666666667 70 239.666666667 76 259 88 c 0
 278.333333333 100 288 117 288 139 c 2
 288 139 288 190 288 190 c 1
 288 190 317 190 317 190 c 1
 317 190 317 139 317 139 c 2xba
 317 118.333333333 327 101.833333333 347 89.5 c 0
 367 77.1666666667 390.333333333 71 417 71 c 0
 465.666666667 71 502.666666667 94 528 140 c 0
 546.615384615 173.846153846 555.923076923 213.420118343 555.923076923 258.721893491 c 0
 555.923076923 266.958579882 555.615384615 275.384615385 555 284 c 0
 553 311.333333333 545.666666667 340.666666667 533 372 c 0
 522.333333333 398 513 415 505 423 c 1
EndSplineSet
Validated: 524289
EndChar
StartChar: si_Ddha
Encoding: 0 3498 416
Width: 647
VWidth: 1000
GlyphClass: 2
Flags: W
HStem: -0.0206186 71.0206<126.886 270.45 355.314 495.859> 288 27<15 124 144.961 255> 363 30<379.459 463.281> 391 41.0244<158.012 233.277>
VStem: 46 39<117.28 232.948> 255 34<315 365.496> 299 27<107.189 190> 317.51 29.4902<424.178 547.804> 564.9 33.1<168.142 345.418>
LayerCount: 2
Back
Fore
SplineSet
52 203 m 0xed80
 57.3333333333 222.333333333 68 240.666666667 84 258 c 0
 98 273.333333333 111.333333333 283.333333333 124 288 c 1
 124 288 15 288 15 288 c 1
 15 288 15 315 15 315 c 1
 15 315 255 315 255 315 c 1
 255 333.666666667 249 351 237 367 c 0
 225 383 211.333333333 391 196 391 c 0
 190.666666667 391 185.333333333 389.666666667 180 387 c 0
 165.333333333 380.333333333 153.666666667 369.333333333 145 354 c 0
 139 342.666666667 127.333333333 336.333333333 110 335 c 0
 100.666666667 333 91.8333333333 335.5 83.5 342.5 c 0
 75.1666666667 349.5 71 358 71 368 c 0
 71 409.333333333 104 430.666666667 170 432 c 0
 170.926829268 432.016260163 171.848602022 432.024390244 172.765318263 432.024390244 c 0xdd80
 209.433967876 432.024390244 238.012195122 419.016260163 258.5 393 c 0
 279.5 366.333333333 289.666666667 331.333333333 289 288 c 1
 289 288 195 288 195 288 c 2
 166.333333333 288 140.833333333 276.666666667 118.5 254 c 0
 96.1666666667 231.333333333 85 205.333333333 85 176 c 0
 85 148 95.5 123.5 116.5 102.5 c 0
 137.5 81.5 164.666666667 71 198 71 c 0
 224.666666667 71 248.166666667 77.8333333333 268.5 91.5 c 0
 288.833333333 105.166666667 299 123.333333333 299 146 c 2
 299 146 299 190 299 190 c 1
 299 190 326 190 326 190 c 1
 326 190 326 146 326 146 c 2xee80
 326 123.333333333 336 105.166666667 356 91.5 c 0
 376 77.8333333333 399 71 425 71 c 0
 473.666666667 71 510.666666667 94.3333333333 536 141 c 0
 555.266666667 175.566666667 564.9 215.6725 564.9 261.3175 c 0
 564.9 269.3725 564.6 277.6 564 286 c 0
 562 312.666666667 554.333333333 341.666666667 541 373 c 0
 531 397.666666667 522 414.666666667 514 424 c 1
 492.666666667 383.333333333 462 363 422 363 c 0
 396 363 372.666666667 371.5 352 388.5 c 0
 331.333333333 405.5 320 426.666666667 318 452 c 0
 317.673202615 456.967320261 317.509803922 461.931436627 317.509803922 466.892349097 c 0
 317.509803922 512.532743816 331.339869281 557.901960784 359 603 c 1
 425.666666667 576.333333333 482.166666667 527.333333333 528.5 456 c 0
 574.833333333 384.666666667 598 312.666666667 598 240 c 0
 598 174.666666667 584.666666667 120 558 76 c 0
 528 25.3333333333 485.666666667 0 431 0 c 0
 401.666666667 0 377.666666667 5.66666666667 359 17 c 0
 345 25 329.666666667 39 313 59 c 1
 282.333333333 20.3333333333 244.666666667 0.666666666667 200 0 c 0
 199.092783505 -0.0137457044673 198.188684593 -0.020618556701 197.287703263 -0.020618556701 c 0
 154.491090091 -0.020618556701 118.728522337 15.4862542955 90 46.5 c 0
 60.6666666667 78.1666666667 46 115.333333333 46 158 c 0
 46 173.333333333 48 188.333333333 52 203 c 0xed80
372 567 m 1
 355.333333333 545 347 514.666666667 347 476 c 0
 347 444.666666667 357 422.333333333 377 409 c 0
 393.666666667 398.333333333 409.333333333 393 424 393 c 0xed80
 452 393 476.666666667 412 498 450 c 1
 486.666666667 467.333333333 469.333333333 487.666666667 446 511 c 0
 419.333333333 538.333333333 394.666666667 557 372 567 c 1
EndSplineSet
Validated: 524321
EndChar
StartChar: si_Ta
Encoding: 0 3501 420
Width: 704
VWidth: 1000
GlyphClass: 2
Flags: W
HStem: -1.73469 74.7347<174.252 361.564> -0.666667 26.6667<465.326 562.175> 79.45 29.55<72.4125 120.896> 296.048 23.9524<206.437 345.533> 379 56<305.467 473.094> 389.024 43.9756<123.881 175.341>
VStem: 22 22<19.7869 47.8611> 37 77<313.438 383.971> 178 28<348.25 385.188> 417 42<124.802 245.426> 612 51.9474<82.3275 248.047>
LayerCount: 2
Back
Fore
SplineSet
159 265 m 1xb0e0
 153 257.666666667 141 240.333333333 123 213 c 0
 105 183.666666667 88 146 72 100 c 1
 81.3333333333 106 91.6666666667 109 103 109 c 0
 119 109 141.333333333 102 170 88 c 0
 190 78 218 73 254 73 c 0
 276 73 297 75 317 79 c 0
 347 85 371.166666667 97.5 389.5 116.5 c 0
 407.833333333 135.5 417 159.333333333 417 188 c 0
 417 196 416.333333333 204.333333333 415 213 c 0
 409.666666667 240.333333333 392 261.666666667 362 277 c 0
 337.238095238 289.698412699 310.964474679 296.047619048 283.179138322 296.047619048 c 0
 281.789871504 296.047619048 280.396825397 296.031746032 279 296 c 0
 229.666666667 294.666666667 189.666666667 284.333333333 159 265 c 1xb0e0
174 322 m 1
 176.666666667 331.333333333 178 340.666666667 178 350 c 0
 178 376.016260163 169.7509419 389.024390244 153.252825699 389.024390244 c 0
 152.840372794 389.024390244 152.422764227 389.016260163 152 389 c 0
 135.333333333 388.333333333 125 377.833333333 121 357.5 c 0
 117 337.166666667 114.666666667 326.333333333 114 325 c 0
 110 312.333333333 103 303.666666667 93 299 c 0
 87 296.333333333 80.3333333333 295 73 295 c 0
 58.3333333333 295 48.3333333333 301 43 313 c 0
 39 322.333333333 37 332 37 342 c 0
 37 365.333333333 46.1666666667 386.333333333 64.5 405 c 0
 82.8333333333 423.666666667 103.333333333 433 126 433 c 0xb5e0
 178 433 204.666666667 404.666666667 206 348 c 1
 231.333333333 376.666666667 266.666666667 399 312 415 c 0
 351.333333333 428.333333333 392.333333333 435 435 435 c 0
 450.333333333 435 465 434 479 432 c 0
 529 424.666666667 572 397 608 349 c 0
 640.666666667 305.666666667 659 260 663 212 c 0
 663.631578947 203.789473684 663.947368421 195.711911357 663.947368421 187.767313019 c 0
 663.947368421 145.396121884 654.964912281 106.807017544 637 72 c 0
 613.666666667 27.3333333333 581 3.33333333333 539 0 c 0
 532.888888889 -0.444444444445 527.018518518 -0.666666666667 521.388888889 -0.666666666667 c 0
 493.240740741 -0.666666666667 471.111111111 4.88888888889 455 16 c 1
 455 16 460 42 460 42 c 1
 478 31.3333333333 497 26 517 26 c 0x79e0
 531 26 543.333333333 28.6666666667 554 34 c 0
 592.666666667 53.3333333333 612 91.6666666667 612 149 c 0
 612 233 573 298.333333333 495 345 c 0
 457 367.666666667 414.333333333 379 367 379 c 0
 296.333333333 379 241 354.666666667 201 306 c 1
 222.333333333 315.333333333 249 320 281 320 c 0
 322.333333333 320 356.666666667 312.333333333 384 297 c 0
 426 273 450.333333333 237.333333333 457 190 c 0
 458.333333333 180 459 170.333333333 459 161 c 0
 459 115 444.166666667 77.3333333333 414.5 48 c 0
 384.833333333 18.6666666667 346.333333333 2.33333333333 299 -1 c 0
 291.163265306 -1.48979591837 283.546438984 -1.73469387755 276.149521033 -1.73469387755 c 0
 223.138275718 -1.73469387755 181.421768707 10.843537415 151 36 c 0
 141 46 131 55.6666666667 121 65 c 0
 109.1 74.6333333333 97.6816666667 79.45 86.745 79.45 c 0
 84.815 79.45 82.9 79.3 81 79 c 0
 65 76.3333333333 52.6666666667 53 44 9 c 1
 44 9 22 25 22 25 c 1xbae0
 32.6666666667 95 58 162 98 226 c 0
 126.666666667 271.333333333 152 303.333333333 174 322 c 1
EndSplineSet
Validated: 524289
EndChar
StartChar: si_Tha
Encoding: 10 3502 422
Width: 614
VWidth: 1000
GlyphClass: 2
Flags: W
HStem: -1.01471 71.9217<180.868 411.19> 363 32<365.313 451.238> 405 25<177.123 245>
VStem: 33 33.981<169.153 312.923> 308.51 30.4902<423.188 549.295> 530 36<192.271 361.15>
LayerCount: 2
Back
Fore
SplineSet
363 565 m 1
 347 549 339 520 339 478 c 0
 339 445.333333333 349 422 369 408 c 0
 381.666666667 399.333333333 395 395 409 395 c 0
 437 395 459.666666667 411.333333333 477 444 c 1
 467 463.333333333 451.333333333 484.333333333 430 507 c 0
 401.333333333 537.666666667 379 557 363 565 c 1
245 405 m 1
 194.333333333 404.333333333 151.833333333 388.166666667 117.5 356.5 c 0
 83.8206349207 325.436507937 66.980952381 288.118276644 66.980952381 244.545306122 c 0
 66.980952381 185.279018875 90.9873015873 140.430583501 139 110 c 0
 179.682170543 83.9379844961 233.092302145 70.9069767442 299.230394808 70.9069767442 c 0
 302.456643231 70.9069767442 305.713178295 70.9379844961 309 71 c 0
 373 71.6666666667 425.833333333 91.3333333333 467.5 130 c 0
 509.166666667 168.666666667 530 219.666666667 530 283 c 0
 530 335 517.666666667 378 493 412 c 1
 474.333333333 379.333333333 447.666666667 363 413 363 c 0
 387 363 363.666666667 371.5 343 388.5 c 0
 322.333333333 405.5 311 426.666666667 309 452 c 0
 308.673202615 457.163398693 308.509803922 462.304370114 308.509803922 467.422914264 c 0
 308.509803922 514.513520441 322.339869281 559.705882353 350 603 c 1
 401.333333333 582.333333333 449 538.666666667 493 472 c 0
 541.666666667 400 566 327.333333333 566 254 c 0
 566 180.666666667 540.666666667 120 490 72 c 0
 439.333333333 24 375.333333333 -0.333333333333 298 -1 c 0
 296.911764706 -1.00980392157 295.825980392 -1.01470588235 294.742647059 -1.01470588235 c 0
 222.159313726 -1.01470588235 160.578431373 20.9901960784 110 65 c 0
 58.6666666667 109.666666667 33 167.333333333 33 238 c 0
 33 291.333333333 54.3333333333 336.666666667 97 374 c 0
 137.666666667 409.333333333 187 428 245 430 c 1
 245 430 245 405 245 405 c 1
EndSplineSet
Validated: 524289
EndChar
StartChar: si_La
Encoding: 0 3517 442
Width: 670
VWidth: 1000
GlyphClass: 2
Flags: W
HStem: -154.211 42.2105<274.651 474.453> 171.286 44.6678<419.352 547.707> 282 26<265 368 396 518> 404.041 27.9588<280.855 480.909>
VStem: 30.963 76.037<47.8848 252.475> 368 28<247.475 282> 575 36<243.697 342.619> 594.05 30.2167<2.00513 84>
LayerCount: 2
Back
Fore
SplineSet
265 308 m 1xfe
 265 308 518 308 518 308 c 1
 518 308 518 282 518 282 c 1
 518 282 396 282 396 282 c 1
 394 265.333333333 402.666666667 250 422 236 c 0
 439.333333333 223.333333333 458.333333333 216.666666667 479 216 c 0
 480.333333333 215.968992248 481.654768343 215.953488372 482.96430503 215.953488372 c 0
 509.809807103 215.953488372 531.65503876 222.468992248 548.5 235.5 c 0
 566.166666667 249.166666667 575 267.666666667 575 291 c 0xfe
 575 297.666666667 574.333333333 304.333333333 573 311 c 0
 559.288659794 373.027491409 492.182520282 404.041237113 371.681581465 404.041237113 c 0
 369.144719595 404.041237113 366.58419244 404.027491409 364 404 c 0
 297.333333333 403.333333333 239.333333333 382.333333333 190 341 c 0
 134.666666667 294.333333333 107 234.333333333 107 161 c 0
 107 150.333333333 107.666666667 139.666666667 109 129 c 0
 124.333333333 -7 201.666666667 -86.3333333333 341 -109 c 0
 353.666666667 -111 366.666666667 -112 380 -112 c 0
 436 -112 483 -98.3333333333 521 -71 c 0
 553 -47.6666666667 575.333333333 -15.3333333333 588 26 c 0
 592.033333333 39.5666666667 594.05 51.52 594.05 61.86 c 0
 594.05 70.32 592.7 77.7 590 84 c 1
 590 84 624 84 624 84 c 1
 624.177777778 80.6222222222 624.266666667 77.2207407407 624.266666667 73.7955555556 c 0xfd
 624.266666667 51.5318518519 620.511111111 28.2666666667 613 4 c 0
 600.333333333 -38.6666666667 573.666666667 -74.3333333333 533 -103 c 0
 487 -135 432 -152 368 -154 c 0
 363.157894737 -154.140350877 358.355493998 -154.210526316 353.592797784 -154.210526316 c 0
 267.864265928 -154.210526316 195 -131.473684211 135 -86 c 0
 65.6419753087 -33.6543209877 30.962962963 38.2785779607 30.962962963 129.798696845 c 0
 30.962962963 131.525491541 30.975308642 133.259259259 31 135 c 0
 32.3333333333 232.333333333 66.3333333333 307.666666667 133 361 c 0
 193 408.333333333 270 432 364 432 c 0
 425.333333333 432 477 423 519 405 c 0
 571 382.333333333 601 347.666666667 609 301 c 0
 610.333333333 293.666666667 611 286.666666667 611 280 c 0
 611 244.666666667 597.166666667 217 569.5 197 c 0
 545.785714286 179.857142857 519.255102041 171.285714286 489.908163265 171.285714286 c 0
 485.017006802 171.285714286 480.047619047 171.523809524 475 172 c 0
 442.333333333 175.333333333 416.333333333 186.5 397 205.5 c 0
 377.666666667 224.5 368 250 368 282 c 1
 368 282 265 282 265 282 c 1
 265 282 265 308 265 308 c 1xfe
EndSplineSet
Validated: 524321
EndChar
StartChar: si_Fa
Encoding: 0 3526 454
Width: 616
VWidth: 1000
GlyphClass: 2
Flags: W
HStem: -1 27<141.275 220 388 460.342> 360.161 70.8387<120.32 253.397 344.939 479.211>
VStem: 32.8947 34.5535<108.559 290.831> 280 32<222 325.88> 531.126 36.8978<110.646 293.357>
LayerCount: 2
Back
Fore
SplineSet
506 38 m 0
 482.666666667 12.6666666667 454 0 420 0 c 0
 409.333333333 0 398.666666667 1.33333333333 388 4 c 1
 388 4 388 29 388 29 c 1
 396 27 404 26 412 26 c 0
 447.333333333 26 476.666666667 44 500 80 c 0
 520 110 530.333333333 140.666666667 531 172 c 0
 531.083989501 175.926509187 531.125984252 179.791183583 531.125984252 183.594023188 c 0
 531.125984252 300.531341063 491.417322835 359 412 359 c 0
 386.666666667 359 364 352.666666667 344 340 c 0
 322.666666667 325.333333333 312 306.666666667 312 284 c 2
 312 284 312 222 312 222 c 1
 312 222 280 222 280 222 c 1
 280 222 280 284 280 284 c 2
 280 306.666666667 270.333333333 325.333333333 251 340 c 0
 233.795698925 353.440860215 213.556364898 360.161290323 190.281997919 360.161290323 c 0
 184.696149844 360.161290323 178.935483871 359.774193549 173 359 c 0
 135.666666667 354.333333333 107.666666667 335 89 301 c 0
 74.6321839081 273.988505747 67.4482758621 239.793103448 67.4482758621 198.413793103 c 0
 67.4482758621 191.793103448 67.6321839081 184.988505747 68 178 c 0
 70 138.666666667 82.3333333333 104 105 74 c 0
 128.333333333 42 155.666666667 26 187 26 c 0
 198.333333333 26 209.333333333 28 220 32 c 1
 220 32 220 6 220 6 c 1
 206.666666667 1.33333333333 194 -1 182 -1 c 0
 160.666666667 -1 138.333333333 6.33333333333 115 21 c 0
 63 54.3333333333 35.6666666667 117.333333333 33 210 c 0
 32.9298245614 212.842105263 32.8947368421 215.66943675 32.8947368421 218.48199446 c 0
 32.8947368421 269.108033241 44.2631578947 314.947368421 67 356 c 0
 94.3333333333 406 131.333333333 431 178 431 c 0
 234 431 273.333333333 407 296 359 c 1
 314.666666667 404.333333333 355.333333333 428.333333333 418 431 c 0
 419.885714286 431.085714286 421.757959184 431.128571429 423.616734694 431.128571429 c 0
 465.129387755 431.128571429 499.923809524 409.752380953 528 367 c 0
 554.682539683 325.349206349 568.023809524 275.121882086 568.023809524 216.318027211 c 0
 568.023809524 142.234315948 547.349206349 82.7949735447 506 38 c 0
EndSplineSet
Validated: 524289
EndChar
StartChar: si_Halant
Encoding: 0 3530 455
Width: 8
VWidth: 1000
GlyphClass: 2
Flags: W
HStem: 468 28<-112.437 -37.7171>
VStem: -140 27<377 478 498.094 638> -26.7377 36.7803<504.107 586.595>
LayerCount: 2
Back
Fore
SplineSet
-113 638 m 5
 -113 638 -113 503 -113 503 c 5
 -104.333333333 498.333333333 -93.3333333333 496 -80 496 c 4
 -44.4918032787 496 -26.737704918 511.425692018 -26.737704918 542.277076055 c 4
 -26.737704918 544.442085461 -26.825136612 546.683060109 -27 549 c 4
 -29 577 -57.6666666667 606.666666667 -113 638 c 5
-140 377 m 5
 -140 377 -140 681 -140 681 c 5
 -128.666666667 671.666666667 -108.333333333 660.333333333 -79 647 c 4
 -49.6666666667 633.666666667 -29.3333333333 621.666666667 -18 611 c 4
 0.695035461 592.99737326 10.0425531915 569.789737829 10.0425531915 541.377093708 c 4
 10.0425531915 521.820733363 2.86170212767 504.861702127 -11.5 490.5 c 4
 -26.5 475.5 -45.3333333333 468 -68 468 c 4
 -82.6666666667 468 -97.6666666667 471.333333333 -113 478 c 5
 -113 478 -113 331 -113 331 c 5
 -113 331 -140 377 -140 377 c 5
EndSplineSet
Validated: 524289
EndChar
